<!-- <svg xmlns="http://www.w3.org/2000/svg" viewBox="0 0 28 17" width="28" height="17">
  <path d="M 10,3 V 8.25 14 h 4 c 2,0 3.5,-0.762277 3.5,-3.285 C 17.5,9.6197614 16.733803,8.8576983 16,8.25 16.733803,7.6951445 17,7 17,6 17,3.6966437 15,3 13,3 Z m 1.5,1.5 c 2.5,0 4,0 4,1.5 0,1.5 -1.5,1.5 -4,1.5 z m 0,4.5722656 c 2.5,0 4.5,-1.233e-4 4.5,1.6427344 0,1.642857 -1,1.785 -4.5,1.785 z" />
</svg> -->
<!-- <svg xmlns="http://www.w3.org/2000/svg" viewBox="0 0 12 12" width="12" height="16">
  <path class="up" d="M6 4C5.8 4 5.6 4.1 5.5 4.2L2.2 7.5C1.9 7.8 1.9 8.3 2.2 8.6C2.5 8.9 3 8.9 3.3 8.6L6 5.9L8.7 8.6C9 8.9 9.5 8.9 9.8 8.6C10.1 8.3 10.1 7.8 9.8 7.5L6.6 4.3C6.4 4.1 6.2 4 6 4Z"></path>
  <path class="down" d="M6 8.825C5.8 8.825 5.6 8.725 5.5 8.625L2.2 5.325C1.9 5.025 1.9 4.525 2.2 4.225C2.5 3.925 3 3.925 3.3 4.225L6 6.925L8.7 4.225C9 3.925 9.5 3.925 9.8 4.225C10.1 4.525 10.1 5.025 9.8 5.325L6.6 8.525C6.4 8.725 6.2 8.825 6 8.825Z"></path>
</svg> -->
<svg xmlns="http://www.w3.org/2000/svg" viewBox="0 0 16 16" width="16" height="16">
  <path class="down" d="m4.427 7.427 3.396 3.396a.25.25 0 0 0 .354 0l3.396-3.396A.25.25 0 0 0 11.396 7H4.604a.25.25 0 0 0-.177.427Z"></path>
  <path class="up" d="m4.427 9.573 3.396-3.396a.25.25 0 0 1 .354 0l3.396 3.396a.25.25 0 0 1-.177.427H4.604a.25.25 0 0 1-.177-.427Z"></path>
</svg>