<svg xmlns="http://www.w3.org/2000/svg" viewBox="0 0 16 16" width="16" height="16">
  <path d="M3 2C2.72386 2 2.46221 2.10029 2.28125 2.28125C2.10029 2.46221 2 2.72386 2 3C2 4.25 2 10.75 2 12C2 12.5523 2.44772 13 3 13L5 13C5.55228 13 6 12.5523 6 12L6 3C6 2.44772 5.55228 2 5 2L3 2Z" fill-opacity="0.1"/>
  <path d="M3.5 3C3.22386 3 3 3.22386 3 3.5L3 3.5C3 3.77614 3.22386 4 3.5 4L4.5 4C4.77614 4 5 3.77614 5 3.5L5 3.5C5 3.22386 4.77614 3 4.5 3L3.5 3ZM3.5 5C3.22386 5 3 5.22386 3 5.5L3 5.5C3 5.77614 3.22386 6 3.5 6L4.5 6C4.77614 6 5 5.77614 5 5.5L5 5.5C5 5.22386 4.77614 5 4.5 5L3.5 5ZM3.5 7C3.22386 7 3 7.22386 3 7.5L3 7.5C3 7.77614 3.22386 8 3.5 8L4.5 8C4.77614 8 5 7.77614 5 7.5L5 7.5C5 7.22386 4.77614 7 4.5 7L3.5 7Z"/>
  <path d="M3 1C1.89543 1 1 1.89543 1 3C1 4.25 1 10.75 1 12C1 13.1046 1.89543 14 3 14L5 14L13 14C14.1046 14 15 13.1046 15 12L15 3C15 1.89543 14.1046 1 13 1L4 1L3 1ZM3 2L5 2C5.55228 2 6 2.44772 6 3L6 12C6 12.5523 5.55228 13 5 13L3 13C2.44772 13 2 12.5523 2 12C2 10.75 2 4.25 2 3C2 2.72386 2.10029 2.46221 2.28125 2.28125C2.46221 2.10029 2.72386 2 3 2ZM6.5625 2L13 2C13.5523 2 14 2.44772 14 3L14 12C14 12.5523 13.5523 13 13 13L6.5625 13C6.76003 12.6899 7 12.3949 7 12L7 3C7 2.60511 6.76003 2.31007 6.5625 2Z"/>
</svg>
