<svg height="100%" stroke-miterlimit="10" style="fill-rule:nonzero;clip-rule:evenodd;stroke-linecap:round;stroke-linejoin:round;" version="1.1" viewBox="0 0 1280 800" width="100%" xmlns="http://www.w3.org/2000/svg" xmlns:xlink="http://www.w3.org/1999/xlink" xmlns:bx="https://boxy-svg.com">
  <defs>
    <path d="M110 110L1315 110L1315 565L110 565L110 110Z" id="Fill"></path>
    <path d="M287.719-377L727.719-377L727.719-97L287.719-97L287.719-377Z" id="Fill_2"></path>
    <path d="M267.108-226.662C267.051-226.594 266.855-226.527 266.399-226.455C265.016-226.233 263.328-225.73 261.17-224.864C256.763-223.099 251.573-220.272 246.796-216.497C240.237-211.355 232.165-204.461 223.193-195.515C200.522-172.932 173.278-139.651 173.278-139.651L170.773-136.59L168.169-139.569C168.169-139.569 162.327-146.26 148.314-160.616C134.548-174.793 116.164-186.234 116.164-186.234L115.582-186.596L115.452-186.831C114.921-187.793 114.604-187.888 113.646-187.364C113.581-187.359 113.532-187.355 113.492-187.355C113.525-186.661 113.581-186.275 114.636-185.327C116.128-184.202 130.992-173.105 146.176-157.548C161.359-141.918 169.644-129.464 169.644-129.464C169.865-129.291 169.853-129.337 170.583-129.329C171.316-129.32 171.454-129.219 171.879-129.86L171.987-130.024C175.488-134.362 204.917-170.657 227.313-192.984C251.407-217.004 267.196-224.845 267.196-224.845C267.323-225.057 267.287-225.013 267.287-225.745C267.287-226.249 267.282-226.426 267.108-226.662Z" id="Fill_3"></path>
    <path d="M176.487-156.78C176.719-156.845 176.952-156.911 177.184-156.976C185.903-159.428 194.757-161.48 203.612-163.286C194.521-161.431 185.432-159.319 176.487-156.78ZM179.526-157.625C181.467-159.928 183.61-162.448 185.935-165.142C170.92-162.05 156.138-158.069 141.671-152.884C105.874-140.054 47.3662-112.27-0.994018-103.8C-57.7352-93.8618-94.2521-112.432-123.436-133.57C-140.205-145.715-153.938-161.446-166.278-177.959C-156.8-155.117-145.68-131.956-125.944-116.657C-83.8121-83.9989-40.1589-78.452 21.2005-93.9284C53.8982-102.176 120.205-135.002 139.323-143.279C149.309-147.603 159.449-151.566 169.841-154.803C172.275-155.561 174.724-156.285 177.184-156.976C177.962-157.197 178.744-157.412 179.526-157.625ZM185.935-165.142C186.755-165.311 187.574-165.477 188.394-165.639C187.574-165.477 186.753-165.309 185.935-165.142ZM176.487-156.78C176.115-156.674 175.743-156.568 175.372-156.461C175.743-156.568 176.115-156.674 176.487-156.78ZM188.394-165.639C189.589-165.876 190.784-166.11 191.981-166.337C190.784-166.11 189.589-165.878 188.394-165.639ZM191.981-166.337C193.917-166.704 195.855-167.056 197.797-167.396C195.855-167.056 193.917-166.703 191.981-166.337ZM274.411-169.475C294.313-166.12 313.076-158.815 331.018-149.736C313.626-157.647 295.614-164.048 276.653-166.861C254.438-170.158 231.9-168.536 209.897-164.504C211.503-166.317 213.125-168.133 214.752-169.936C234.577-172.371 254.639-172.81 274.411-169.475Z" id="Fill_4"></path>
    <path d="M597.027-247.072C597.02-247.064 596.996-247.056 596.941-247.047C596.773-247.02 596.568-246.959 596.307-246.854C595.772-246.64 595.142-246.297 594.563-245.839C593.767-245.215 592.787-244.378 591.699-243.293C588.948-240.553 585.642-236.515 585.642-236.515L585.338-236.143L585.022-236.505C585.022-236.505 584.314-237.317 582.613-239.059C580.943-240.779 578.712-242.167 578.712-242.167L578.642-242.211L578.626-242.239C578.562-242.356 578.523-242.368 578.407-242.304C578.399-242.303 578.393-242.303 578.388-242.303C578.392-242.219 578.399-242.172 578.527-242.057C578.708-241.92 580.511-240.574 582.354-238.686C584.196-236.79 585.201-235.279 585.201-235.279C585.228-235.258 585.227-235.263 585.315-235.262C585.404-235.261 585.421-235.249 585.473-235.327L585.486-235.347C585.91-235.873 589.481-240.277 592.199-242.986C595.122-245.9 597.038-246.852 597.038-246.852C597.053-246.878 597.049-246.872 597.049-246.961C597.049-247.022 597.048-247.044 597.027-247.072Z" id="Fill_5"></path>
    <path d="M575.719-253.167L599.719-253.167L599.719-229.167L575.719-229.167L575.719-253.167Z" id="Fill_6"></path>
    <path d="M597.027-191.239C597.02-191.231 596.996-191.223 596.941-191.214C596.773-191.187 596.568-191.126 596.307-191.021C595.772-190.807 595.142-190.464 594.563-190.006C593.767-189.382 592.787-188.545 591.699-187.46C588.948-184.72 585.642-180.681 585.642-180.681L585.338-180.31L585.022-180.672C585.022-180.672 584.314-181.483 582.613-183.225C580.943-184.945 578.712-186.334 578.712-186.334L578.642-186.378L578.626-186.406C578.562-186.523 578.523-186.534 578.407-186.471C578.399-186.47 578.393-186.47 578.388-186.47C578.392-186.385 578.399-186.339 578.527-186.224C578.708-186.087 580.511-184.741 582.354-182.853C584.196-180.957 585.201-179.445 585.201-179.445C585.228-179.425 585.227-179.43 585.315-179.429C585.404-179.428 585.421-179.416 585.473-179.493L585.486-179.513C585.91-180.04 589.481-184.444 592.199-187.153C595.122-190.067 597.038-191.019 597.038-191.019C597.053-191.044 597.049-191.039 597.049-191.128C597.049-191.189 597.048-191.21 597.027-191.239Z" id="Fill_7"></path>
    <path d="M575.719-197.333L599.719-197.333L599.719-173.333L575.719-173.333L575.719-197.333Z" id="Fill_8"></path>
    <path d="M110 177.637C110 169.001 117.001 162 125.637 162L1299.36 162C1308 162 1315 169.001 1315 177.637L1315 601.363C1315 609.999 1308 617 1299.36 617L125.637 617C117.001 617 110 609.999 110 601.363L110 177.637Z" id="Fill_9"></path>
    <path d="M339.918 120.543C339.918 117.782 342.156 115.543 344.918 115.543L571.79 115.543C574.552 115.543 576.79 117.782 576.79 120.543L576.79 145.543C576.79 148.305 574.552 150.543 571.79 150.543L344.918 150.543C342.156 150.543 339.918 148.305 339.918 145.543L339.918 120.543Z" id="Fill_10"></path>
    <path d="M596.918 120.543C596.918 117.782 599.156 115.543 601.918 115.543L708.956 115.543C711.718 115.543 713.956 117.782 713.956 120.543L713.956 145.543C713.956 148.305 711.718 150.543 708.956 150.543L601.918 150.543C599.156 150.543 596.918 148.305 596.918 145.543L596.918 120.543Z" id="Fill_11"></path>
    <path d="M746.918 120.543C746.918 117.782 749.156 115.543 751.918 115.543L858.956 115.543C861.718 115.543 863.956 117.782 863.956 120.543L863.956 145.543C863.956 148.305 861.718 150.543 858.956 150.543L751.918 150.543C749.156 150.543 746.918 148.305 746.918 145.543L746.918 120.543Z" id="Fill_12"></path>
    <path d="M896.918 120.543C896.918 117.782 899.156 115.543 901.918 115.543L950.801 115.543C953.563 115.543 955.801 117.782 955.801 120.543L955.801 145.543C955.801 148.305 953.563 150.543 950.801 150.543L901.918 150.543C899.156 150.543 896.918 148.305 896.918 145.543L896.918 120.543Z" id="Fill_13"></path>
    <path d="M1176.92 120.543C1176.92 117.782 1179.16 115.543 1181.92 115.543L1230.8 115.543C1233.56 115.543 1235.8 117.782 1235.8 120.543L1235.8 145.543C1235.8 148.305 1233.56 150.543 1230.8 150.543L1181.92 150.543C1179.16 150.543 1176.92 148.305 1176.92 145.543L1176.92 120.543Z" id="Fill_14"></path>
    <path d="M1246.92 120.543C1246.92 117.782 1249.16 115.543 1251.92 115.543L1300.8 115.543C1303.56 115.543 1305.8 117.782 1305.8 120.543L1305.8 145.543C1305.8 148.305 1303.56 150.543 1300.8 150.543L1251.92 150.543C1249.16 150.543 1246.92 148.305 1246.92 145.543L1246.92 120.543Z" id="Fill_15"></path>
    <path d="M974.918 120.543C974.918 117.782 977.156 115.543 979.918 115.543L1087.79 115.543C1090.55 115.543 1092.79 117.782 1092.79 120.543L1092.79 145.543C1092.79 148.305 1090.55 150.543 1087.79 150.543L979.918 150.543C977.156 150.543 974.918 148.305 974.918 145.543L974.918 120.543Z" id="Fill_16"></path>
    <linearGradient gradientUnits="userSpaceOnUse" x1="570.021" y1="100.564" x2="570.021" y2="800" id="gradient-0" gradientTransform="matrix(-0.020498, 0.999823, -0.777663, 0.004329, 633.813991, -148.703564)">
      <stop offset="0" style="stop-color: rgb(247, 247, 247);"></stop>
      <stop offset="1" style="stop-color: rgb(223, 227, 230);"></stop>
    </linearGradient>
    <bx:grid x="0" y="0" width="100" height="100"></bx:grid>
    <filter id="drop-shadow-filter-0" color-interpolation-filters="sRGB" x="-50%" y="-50%" width="200%" height="200%" bx:preset="drop-shadow 1 4 7 8 0.5 #0003">
      <feGaussianBlur in="SourceAlpha" stdDeviation="8"></feGaussianBlur>
      <feOffset dx="4" dy="7"></feOffset>
      <feComponentTransfer result="offsetblur">
        <feFuncA id="spread-ctrl" type="linear" slope="1"></feFuncA>
      </feComponentTransfer>
      <feFlood flood-color="#0003"></feFlood>
      <feComposite in2="offsetblur" operator="in"></feComposite>
      <feMerge>
        <feMergeNode></feMergeNode>
        <feMergeNode in="SourceGraphic"></feMergeNode>
      </feMerge>
    </filter>
  </defs>
  <path d="M 0 0 L 1280 0 L 1280 512 L 0 512 L 0 0 Z" fill="#f7f7f7" fill-rule="nonzero" opacity="1" stroke="none"></path>
  <use opacity="1" xlink:href="#Image"></use>
  <path d="M 0 100.564 L 1280 100.564 L 1280 800 L 0 800 L 0 100.564 Z" fill-rule="nonzero" opacity="1" style="fill: url(#gradient-0); fill-rule: nonzero; paint-order: fill;"></path>
  <path d="M 323.852 192.156 C 320.095 192.157 316.281 193.516 313.416 196.381 C 308.362 201.433 298.219 211.581 293.165 216.633 C 273.552 235.358 234.472 272.732 214.892 291.427 C 213.05 293.165 211.642 295.339 210.916 297.763 C 207.88 307.738 201.901 327.67 198.865 337.645 C 198.861 337.656 198.744 337.634 198.74 337.645 C 198.731 337.678 198.74 338.141 198.74 338.141 C 197.409 343.728 202.581 348.606 208.059 346.963 C 208.061 346.961 218.953 343.489 230.049 339.881 C 235.599 338.076 241.27 336.271 245.58 334.787 C 247.736 334.045 249.559 333.316 250.922 332.799 C 251.605 332.54 252.212 332.375 252.661 332.178 C 253.019 332.022 253.626 331.699 253.656 331.681 C 254.718 331.015 254.891 329.486 254.028 328.575 C 254.026 328.572 246.616 320.668 246.574 320.624 C 246.043 320.06 245.196 319.881 244.462 320.126 C 244.389 320.151 242.547 320.826 239.616 321.742 C 236.706 322.651 232.791 323.783 228.931 324.972 C 223.019 326.794 219.566 327.828 217.128 328.575 C 219.569 320.545 223.189 308.742 225.204 302.111 C 243.516 284.632 279.308 250.376 298.258 232.287 C 303.43 237.456 311.553 245.585 316.771 250.8 C 307.658 259.493 291.54 274.927 283.101 282.978 C 282.308 283.735 282.221 285.041 282.977 285.836 C 284.852 287.809 288.679 291.689 290.556 293.663 C 291.313 294.46 292.494 294.546 293.289 293.788 C 303.101 284.419 322.737 265.634 332.55 256.266 C 332.578 256.241 332.647 256.169 332.674 256.142 C 337.739 251.079 347.859 240.953 352.925 235.89 C 358.653 230.149 358.656 220.872 352.925 215.142 C 348.234 210.45 338.855 201.072 334.164 196.381 C 331.299 193.515 327.61 192.156 323.852 192.156 Z M 323.852 207.066 C 328.542 211.756 337.675 220.889 342.364 225.578 C 338.589 229.345 331.764 236.188 327.455 240.487 C 322.27 235.3 314.151 227.186 308.944 221.975 C 313.244 217.674 320.066 210.853 323.852 207.066 Z" fill="#000000" fill-rule="nonzero" opacity="1" stroke="none"></path>
  <path d="M 374.544 258.627 C 372.788 258.627 371.036 259.392 369.698 260.739 C 352.332 278.19 318.325 312.396 300.246 330.563 C 291.911 321.808 277.131 306.344 269.435 298.26 C 267.707 296.359 265.089 295.59 262.601 296.272 C 257.507 297.676 255.76 303.983 259.494 307.702 C 268.399 317.059 286.248 335.742 295.153 345.099 C 297.806 347.879 302.248 347.927 304.967 345.223 C 323.583 326.513 360.774 289.14 379.388 270.429 C 382.053 267.75 382.05 263.416 379.388 260.739 C 378.05 259.392 376.298 258.627 374.544 258.627 Z" fill="#000000" fill-rule="nonzero" opacity="1" stroke="none"></path>
  <path d="M 100.571 100.571 L 1202.286 100.571 L 1202.286 600 L 100.571 600 L 100.571 100.571 Z" mask="url(#StrokeMask)" stroke-linecap="butt" stroke-linejoin="round" style="stroke-width: 5px; fill: rgb(255, 255, 255); filter: url(#drop-shadow-filter-0);" stroke="#dfe3e5"></path>
  <path d="M 132.342 379.595 C 127.292 379.595 123.199 383.688 123.199 388.737 L 123.199 412.509 C 123.199 417.559 127.292 421.652 132.342 421.652 L 156.113 421.652 C 161.163 421.652 165.256 417.559 165.256 412.509 L 165.256 388.737 C 165.256 383.688 161.163 379.595 156.113 379.595 L 132.342 379.595 Z M 132.342 385.995 C 138.285 385.995 150.171 385.995 156.113 385.995 C 157.629 385.995 158.856 387.227 158.856 388.737 C 158.856 394.68 158.856 406.566 158.856 412.509 C 158.856 414.025 157.624 415.252 156.113 415.252 C 150.171 415.252 138.285 415.252 132.342 415.252 C 130.826 415.252 129.599 414.019 129.599 412.509 C 129.599 406.566 129.599 394.68 129.599 388.737 C 129.599 387.222 130.832 385.995 132.342 385.995 Z M 152.285 393.995 C 151.796 393.945 151.285 394.096 150.885 394.452 C 150.782 394.543 151.328 394.146 151.371 394.137 C 151.172 394.192 150.965 394.231 150.77 394.309 C 150.119 394.57 149.4 394.967 148.713 395.509 C 147.937 396.119 146.987 396.925 145.942 397.966 C 143.829 400.071 142.219 402.06 141.371 403.081 C 141.012 402.693 141.019 402.663 140.256 401.88 C 138.712 400.289 137.054 399.207 136.628 398.937 C 136.576 398.904 136.348 398.742 136.342 398.738 C 136.332 398.732 136.299 398.746 136.285 398.738 C 136.121 398.611 135.991 398.477 135.714 398.395 C 135.397 398.3 135.196 398.337 134.971 398.366 C 133.973 398.419 133.179 399.242 133.228 400.252 C 133.23 400.3 133.265 400.697 133.457 401.08 C 133.639 401.448 133.843 401.652 133.97 401.766 C 134.009 401.801 134.044 401.821 134.085 401.852 C 134.23 401.962 135.801 403.161 137.371 404.766 C 138.949 406.391 139.771 407.623 139.771 407.623 C 139.878 407.785 140.017 407.904 140.171 408.023 C 140.171 408.023 140.343 408.152 140.657 408.309 C 140.657 408.309 141.024 408.425 141.314 408.452 L 141.371 408.452 C 141.371 408.452 141.618 408.431 142.228 408.28 C 142.228 408.28 142.643 408.022 142.885 407.795 L 142.971 407.681 C 142.997 407.649 143.033 407.628 143.057 407.595 C 143.066 407.581 143.076 407.552 143.085 407.538 C 143.559 406.952 146.678 403.166 148.999 400.852 C 151.529 398.329 152.942 397.652 152.942 397.652 C 153.265 397.491 153.533 397.251 153.713 396.938 C 153.713 396.938 153.781 396.78 153.885 396.509 C 153.885 396.509 153.957 396.225 153.97 395.995 L 153.97 395.909 C 153.97 395.909 153.959 395.228 153.571 394.709 C 153.25 394.281 152.774 394.044 152.285 393.995 Z" fill="#089589" fill-opacity="0.75" fill-rule="nonzero" opacity="1" stroke="none"></path>
  <path d="M 168.913 432.623 C 163.864 432.623 159.771 436.716 159.771 441.766 L 159.771 465.538 C 159.771 470.587 163.864 474.68 168.913 474.68 L 192.685 474.68 C 197.734 474.68 201.828 470.587 201.828 465.538 L 201.828 441.766 C 201.828 436.716 197.734 432.623 192.685 432.623 L 168.913 432.623 Z M 168.913 439.023 C 174.856 439.023 186.742 439.023 192.685 439.023 C 194.201 439.023 195.428 440.256 195.428 441.766 C 195.428 447.709 195.428 459.595 195.428 465.538 C 195.428 467.053 194.195 468.28 192.685 468.28 C 186.742 468.28 174.856 468.28 168.913 468.28 C 167.398 468.28 166.171 467.048 166.171 465.538 C 166.171 459.595 166.171 447.709 166.171 441.766 C 166.171 440.25 167.403 439.023 168.913 439.023 Z M 188.857 447.023 C 188.368 446.974 187.857 447.125 187.456 447.48 C 187.354 447.572 187.899 447.175 187.942 447.166 C 187.743 447.221 187.537 447.26 187.342 447.338 C 186.691 447.598 185.971 447.995 185.285 448.537 C 184.508 449.147 183.558 449.954 182.513 450.995 C 180.401 453.1 178.79 455.088 177.942 456.109 C 177.584 455.722 177.591 455.692 176.827 454.909 C 175.283 453.318 173.626 452.236 173.2 451.966 C 173.147 451.933 172.92 451.77 172.913 451.767 C 172.903 451.76 172.87 451.775 172.857 451.767 C 172.692 451.639 172.562 451.506 172.285 451.424 C 171.968 451.329 171.768 451.366 171.542 451.394 C 170.545 451.447 169.751 452.27 169.799 453.281 C 169.801 453.328 169.837 453.726 170.028 454.109 C 170.211 454.476 170.415 454.68 170.542 454.795 C 170.58 454.829 170.616 454.85 170.656 454.881 C 170.801 454.99 172.372 456.19 173.942 457.794 C 175.52 459.419 176.342 460.652 176.342 460.652 C 176.45 460.813 176.589 460.932 176.742 461.052 C 176.742 461.052 176.914 461.181 177.228 461.337 C 177.228 461.337 177.595 461.453 177.885 461.481 L 177.942 461.481 C 177.942 461.481 178.19 461.46 178.8 461.309 C 178.8 461.309 179.215 461.05 179.456 460.823 L 179.542 460.709 C 179.569 460.677 179.604 460.657 179.628 460.623 C 179.637 460.61 179.647 460.58 179.656 460.567 C 180.131 459.98 183.249 456.194 185.571 453.88 C 188.101 451.358 189.513 450.68 189.513 450.68 C 189.837 450.519 190.105 450.28 190.285 449.966 C 190.285 449.966 190.353 449.809 190.457 449.538 C 190.457 449.538 190.528 449.254 190.542 449.024 L 190.542 448.938 C 190.542 448.938 190.531 448.257 190.142 447.737 C 189.821 447.309 189.346 447.073 188.857 447.023 Z" fill="#089589" fill-opacity="0.75" fill-rule="nonzero" opacity="1" stroke="none"></path>
  <path d="M 132.342 485.652 C 127.292 485.652 123.199 489.745 123.199 494.795 L 123.199 518.566 C 123.199 523.616 127.292 527.709 132.342 527.709 L 156.113 527.709 C 161.163 527.709 165.256 523.616 165.256 518.566 L 165.256 494.795 C 165.256 489.745 161.163 485.652 156.113 485.652 L 132.342 485.652 Z M 132.342 492.052 C 138.285 492.052 150.171 492.052 156.113 492.052 C 157.629 492.052 158.856 493.284 158.856 494.795 C 158.856 500.738 158.856 512.623 158.856 518.566 C 158.856 520.082 157.624 521.309 156.113 521.309 C 150.171 521.309 138.285 521.309 132.342 521.309 C 130.826 521.309 129.599 520.076 129.599 518.566 C 129.599 512.623 129.599 500.738 129.599 494.795 C 129.599 493.279 130.832 492.052 132.342 492.052 Z M 152.285 500.052 C 151.796 500.002 151.285 500.153 150.885 500.509 C 150.782 500.6 151.328 500.204 151.371 500.194 C 151.172 500.249 150.965 500.289 150.77 500.366 C 150.119 500.627 149.4 501.024 148.713 501.566 C 147.937 502.176 146.987 502.982 145.942 504.023 C 143.829 506.128 142.219 508.117 141.371 509.138 C 141.012 508.75 141.019 508.72 140.256 507.938 C 138.712 506.347 137.054 505.264 136.628 504.994 C 136.576 504.962 136.348 504.799 136.342 504.795 C 136.332 504.789 136.299 504.803 136.285 504.795 C 136.121 504.668 135.991 504.535 135.714 504.452 C 135.397 504.357 135.196 504.395 134.971 504.423 C 133.973 504.476 133.179 505.299 133.228 506.309 C 133.23 506.357 133.265 506.754 133.457 507.138 C 133.639 507.505 133.843 507.709 133.97 507.823 C 134.009 507.858 134.044 507.878 134.085 507.909 C 134.23 508.019 135.801 509.218 137.371 510.823 C 138.949 512.448 139.771 513.68 139.771 513.68 C 139.878 513.842 140.017 513.961 140.171 514.081 C 140.171 514.081 140.343 514.21 140.657 514.366 C 140.657 514.366 141.024 514.482 141.314 514.509 L 141.371 514.509 C 141.371 514.509 141.618 514.488 142.228 514.338 C 142.228 514.338 142.643 514.079 142.885 513.852 L 142.971 513.738 C 142.997 513.706 143.033 513.686 143.057 513.652 C 143.066 513.638 143.076 513.609 143.085 513.595 C 143.559 513.009 146.678 509.223 148.999 506.909 C 151.529 504.386 152.942 503.709 152.942 503.709 C 153.265 503.548 153.533 503.308 153.713 502.995 C 153.713 502.995 153.781 502.838 153.885 502.566 C 153.885 502.566 153.957 502.283 153.97 502.052 L 153.97 501.966 C 153.97 501.966 153.959 501.285 153.571 500.766 C 153.25 500.338 152.774 500.101 152.285 500.052 Z" fill="#089589" fill-opacity="0.75" fill-rule="nonzero" opacity="1" stroke="none"></path>
  <path d="M 690.783 131.323 L 683.626 131.323 L 683.626 115.53 L 691.297 115.53 C 693.234 115.559 694.605 116.119 695.411 117.212 C 695.898 117.884 696.14 118.687 696.14 119.623 C 696.14 120.587 695.898 121.362 695.411 121.948 C 695.141 122.276 694.74 122.576 694.212 122.848 C 695.019 123.141 695.628 123.605 696.039 124.241 C 696.449 124.876 696.655 125.648 696.655 126.555 C 696.655 127.49 696.419 128.33 695.947 129.073 C 695.647 129.566 695.272 129.98 694.823 130.315 C 694.315 130.701 693.717 130.966 693.028 131.108 C 692.339 131.252 691.591 131.323 690.783 131.323 Z M 690.708 124.369 L 686.776 124.369 L 686.776 128.58 L 690.654 128.58 C 691.347 128.58 691.887 128.487 692.273 128.301 C 692.972 127.958 693.322 127.301 693.322 126.33 C 693.322 125.508 692.983 124.944 692.305 124.637 C 691.926 124.466 691.394 124.376 690.708 124.369 Z M 692.348 121.358 C 692.776 121.101 692.99 120.64 692.99 119.977 C 692.99 119.241 692.705 118.755 692.134 118.519 C 691.64 118.355 691.012 118.272 690.248 118.272 L 686.776 118.272 L 686.776 121.755 L 690.654 121.755 C 691.347 121.755 691.912 121.622 692.348 121.358 Z"></path>
  <path d="M 708.912 121.123 C 709.897 122.358 710.39 123.819 710.39 125.504 C 710.39 127.219 709.897 128.685 708.912 129.903 C 707.926 131.121 706.429 131.73 704.423 131.73 C 702.416 131.73 700.919 131.121 699.933 129.903 C 698.948 128.685 698.455 127.219 698.455 125.504 C 698.455 123.819 698.948 122.358 699.933 121.123 C 700.919 119.887 702.416 119.269 704.423 119.269 C 706.429 119.269 707.926 119.887 708.912 121.123 Z M 704.412 121.851 C 703.519 121.851 702.832 122.167 702.349 122.8 C 701.867 123.432 701.626 124.333 701.626 125.504 C 701.626 126.677 701.867 127.58 702.349 128.215 C 702.832 128.852 703.519 129.169 704.412 129.169 C 705.305 129.169 705.991 128.852 706.469 128.215 C 706.948 127.58 707.187 126.677 707.187 125.504 C 707.187 124.333 706.948 123.432 706.469 122.8 C 705.991 122.167 705.305 121.851 704.412 121.851 Z"></path>
  <path d="M 723.205 115.552 L 723.205 131.323 L 720.237 131.323 L 720.237 129.705 C 719.801 130.398 719.304 130.902 718.748 131.216 C 718.191 131.53 717.498 131.687 716.669 131.687 C 715.304 131.687 714.156 131.136 713.224 130.032 C 712.292 128.928 711.827 127.512 711.827 125.783 C 711.827 123.79 712.285 122.223 713.203 121.08 C 714.12 119.937 715.347 119.366 716.883 119.366 C 717.59 119.366 718.219 119.521 718.769 119.831 C 719.319 120.142 719.765 120.573 720.108 121.123 L 720.108 115.552 L 723.205 115.552 Z M 714.976 125.558 C 714.976 126.637 715.19 127.498 715.619 128.14 C 716.04 128.79 716.683 129.116 717.547 129.116 C 718.412 129.116 719.069 128.794 719.519 128.151 C 719.969 127.509 720.194 126.677 720.194 125.655 C 720.194 124.226 719.833 123.205 719.112 122.591 C 718.669 122.219 718.154 122.034 717.569 122.034 C 716.676 122.034 716.02 122.371 715.603 123.046 C 715.185 123.721 714.976 124.558 714.976 125.558 Z"></path>
  <path d="M 730.726 128.258 L 733.137 119.644 L 736.383 119.644 L 732.376 131.13 C 731.604 133.345 730.994 134.718 730.544 135.25 C 730.094 135.782 729.194 136.048 727.844 136.048 C 727.572 136.048 727.355 136.046 727.19 136.043 C 727.027 136.039 726.78 136.026 726.451 136.005 L 726.451 133.562 L 726.837 133.583 C 727.137 133.598 727.422 133.587 727.694 133.551 C 727.965 133.515 728.194 133.433 728.38 133.305 C 728.558 133.184 728.724 132.93 728.878 132.545 C 729.032 132.159 729.094 131.923 729.065 131.837 L 724.78 119.644 L 728.176 119.644 L 730.726 128.258 Z"></path>
  <path d="M 752.198 131.323 L 752.198 128.13 L 755.476 128.13 L 755.476 131.323 L 752.198 131.323 Z M 748.158 128.13 L 748.158 131.323 L 744.88 131.323 L 744.88 128.13 L 748.158 128.13 Z M 762.783 128.13 L 762.783 131.323 L 759.505 131.323 L 759.505 128.13 L 762.783 128.13 Z"></path>
  <path d="M 1142.858 61.714 C 1142.858 45.304 1156.16 32 1172.572 32 C 1188.983 32 1202.286 45.304 1202.286 61.714 C 1202.286 78.125 1188.983 91.429 1172.572 91.429 C 1156.16 91.429 1142.858 78.125 1142.858 61.714 Z" fill="#dfe3e5" fill-rule="nonzero" opacity="1" stroke="none"></path>
  <path d="M 1180.197 44.262 C 1179.356 44.262 1178.496 44.568 1177.847 45.213 C 1176.714 46.349 1174.428 48.633 1173.294 49.769 C 1168.878 53.983 1160.092 62.392 1155.685 66.598 C 1155.264 66.989 1154.954 67.478 1154.789 68.024 C 1154.103 70.268 1152.759 74.753 1152.074 76.997 C 1152.074 77 1152.046 76.995 1152.046 76.997 C 1152.046 77.004 1152.046 77.109 1152.046 77.109 C 1151.744 78.366 1152.915 79.463 1154.149 79.094 C 1154.149 79.093 1156.599 78.312 1159.095 77.5 C 1160.339 77.094 1161.619 76.688 1162.588 76.354 C 1163.072 76.187 1163.484 76.023 1163.786 75.907 C 1163.941 75.849 1164.078 75.811 1164.179 75.767 C 1164.261 75.732 1164.398 75.659 1164.407 75.655 C 1164.645 75.505 1164.682 75.161 1164.49 74.956 C 1164.49 74.956 1162.816 73.177 1162.807 73.167 C 1162.688 73.041 1162.496 73 1162.332 73.055 C 1162.323 73.061 1161.902 73.213 1161.244 73.419 C 1160.595 73.623 1159.708 73.878 1158.839 74.146 C 1157.514 74.556 1156.736 74.788 1156.188 74.956 C 1156.736 73.15 1157.55 70.494 1157.998 69.002 C 1162.122 65.069 1170.176 57.362 1174.437 53.292 C 1175.607 54.455 1177.427 56.283 1178.606 57.457 C 1176.558 59.413 1172.928 62.886 1171.027 64.697 C 1170.853 64.867 1170.835 65.161 1170.999 65.34 C 1171.42 65.784 1172.288 66.657 1172.709 67.101 C 1172.874 67.28 1173.139 67.3 1173.322 67.129 C 1175.525 65.021 1179.95 60.795 1182.154 58.687 C 1182.163 58.681 1182.181 58.665 1182.181 58.659 C 1183.324 57.52 1185.6 55.241 1186.743 54.102 C 1188.032 52.81 1188.032 50.723 1186.743 49.434 C 1185.683 48.378 1183.571 46.268 1182.519 45.213 C 1181.87 44.568 1181.047 44.262 1180.197 44.262 Z M 1180.197 47.617 C 1181.258 48.672 1183.306 50.727 1184.366 51.782 C 1183.516 52.63 1181.98 54.169 1181.011 55.137 C 1179.84 53.969 1178.012 52.144 1176.842 50.971 C 1177.811 50.004 1179.347 48.469 1180.197 47.617 Z" fill="#000000" fill-rule="nonzero" opacity="1" stroke="none"></path>
  <path d="M 1191.607 59.218 C 1191.205 59.218 1190.812 59.39 1190.51 59.693 C 1186.606 63.62 1178.954 71.316 1174.885 75.404 C 1173.011 73.434 1169.683 69.954 1167.955 68.135 C 1167.562 67.708 1166.976 67.535 1166.419 67.688 C 1165.267 68.004 1164.874 69.423 1165.715 70.26 C 1167.717 72.365 1171.74 76.569 1173.742 78.674 C 1174.336 79.3 1175.333 79.31 1175.946 78.702 C 1180.142 74.492 1188.508 66.083 1192.695 61.874 C 1193.29 61.271 1193.29 60.296 1192.695 59.693 C 1192.394 59.39 1192 59.218 1191.607 59.218 Z" fill="#000000" fill-rule="nonzero" opacity="1" stroke="none"></path>
  <path d="M 1092.572 29.714 C 1110.245 29.714 1124.572 44.041 1124.572 61.714 C 1124.572 79.387 1110.245 93.714 1092.572 93.714 L 0 93.714 L 0 29.714 L 1092.572 29.714 Z" fill="#dfe3e5" fill-rule="nonzero" opacity="1" stroke="none"></path>
  <path d="M 924.087 130.047 C 922.579 131.439 920.686 132.103 918.711 132.05 C 916.727 131.994 914.835 131.245 913.371 129.629 L 912.761 128.971 C 912.397 128.623 912.329 128.317 912.364 127.951 C 912.395 127.59 912.543 127.325 912.822 127.065 C 913.1 126.809 913.376 126.682 913.741 126.678 C 914.108 126.671 914.414 126.768 914.725 127.159 L 915.337 127.812 C 916.297 128.822 917.596 129.373 918.812 129.398 C 920.037 129.421 921.326 128.932 922.268 128.085 C 922.999 127.392 923.539 126.452 923.74 125.507 C 923.95 124.561 923.849 123.484 923.456 122.543 L 923.173 121.875 L 923.164 121.888 L 923.447 122.562 C 923.091 121.726 922.478 120.939 921.719 120.417 C 920.96 119.897 919.964 119.576 918.931 119.564 L 916.7 119.564 L 916.7 122.686 L 910.75 118.228 L 916.7 113.767 L 916.7 116.888 L 918.931 116.888 C 921.518 116.86 923.667 118.095 925.038 120.009 L 925.349 120.431 L 925.349 120.428 C 926.309 121.905 926.638 123.57 926.464 125.24 C 926.281 127.073 925.486 128.752 924.087 130.047 Z" fill="#089589" fill-rule="nonzero" opacity="1" stroke="none"></path>
  <path d="M 964.224 128.847 C 965.733 130.24 967.625 130.902 969.6 130.85 C 971.575 130.795 973.468 130.046 974.94 128.428 L 975.543 127.77 C 975.909 127.424 975.982 127.116 975.945 126.751 C 975.909 126.39 975.763 126.124 975.488 125.866 C 975.205 125.61 974.931 125.483 974.565 125.477 C 974.199 125.471 973.897 125.568 973.577 125.959 L 972.974 126.613 C 972.014 127.622 970.707 128.172 969.491 128.198 C 968.275 128.222 966.985 127.732 966.044 126.885 C 965.312 126.191 964.773 125.251 964.563 124.307 C 964.361 123.361 964.453 122.284 964.855 121.344 L 965.139 120.675 L 965.148 120.688 L 964.855 121.362 C 965.221 120.526 965.833 119.739 966.592 119.217 C 967.351 118.698 968.348 118.376 969.381 118.365 L 971.612 118.365 L 971.612 121.486 L 977.555 117.027 L 971.612 112.567 L 971.612 115.689 L 969.381 115.689 C 966.784 115.66 964.636 116.896 963.264 118.808 L 962.963 119.232 L 962.953 119.228 C 962.003 120.705 961.664 122.37 961.838 124.04 C 962.03 125.873 962.825 127.552 964.224 128.847 Z" fill="#089589" fill-rule="nonzero" opacity="1" stroke="none"></path>
  <path d="M 611.468 121.081 L 611.468 124.738 L 616.954 124.738 L 616.954 121.081 L 611.468 121.081 Z M 611.468 113.767 L 611.468 117.424 L 616.954 117.424 L 616.954 113.767 L 611.468 113.767 Z M 615.125 128.395 L 615.125 132.053 L 644.382 132.053 L 644.382 128.395 L 615.125 128.395 Z M 620.611 121.081 L 620.611 124.738 L 644.382 124.738 L 644.382 121.081 L 620.611 121.081 Z M 620.611 113.767 L 620.611 117.424 L 644.382 117.424 L 644.382 113.767 L 620.611 113.767 Z" fill="#089589" fill-rule="nonzero" opacity="1" stroke="none"></path>
  <path d="M 845.341 113.767 L 842.909 120.134 L 845.548 119.43 L 846.737 116.205 L 847.714 118.848 L 849.864 118.273 L 848.146 113.767 L 845.341 113.767 Z M 858.373 118.147 L 835.101 124.374 L 835.101 126.959 L 858.373 120.732 L 858.373 118.147 Z M 852.243 124.523 L 850.033 125.115 L 850.104 125.303 L 849.328 125.303 L 839.984 127.803 L 838.36 132.053 L 840.968 132.053 L 842.633 127.361 L 850.877 127.361 L 852.542 132.053 L 855.113 132.053 L 852.243 124.523 Z" fill="#089589" fill-rule="nonzero" opacity="1" stroke="none"></path>
  <path d="M 559.017 113.767 L 557.189 113.767 L 557.189 115.595 L 559.025 115.595 L 559.025 122.91 L 557.189 122.91 L 557.189 124.738 L 564.503 124.738 L 564.503 122.91 L 561.76 122.91 L 561.76 113.767 L 559.017 113.767 Z M 566.332 113.767 L 566.332 117.424 L 588.274 117.424 L 588.274 113.767 L 566.332 113.767 Z M 566.332 121.081 L 566.332 124.738 L 588.274 124.738 L 588.274 121.081 L 566.332 121.081 Z M 560.846 128.395 L 560.846 132.053 L 588.274 132.053 L 588.274 128.395 L 560.846 128.395 Z" fill="#089589" fill-rule="nonzero" opacity="1" stroke="none"></path>
  <path d="M 445.61 113.771 C 441.102 113.899 439.03 117.363 440.881 121.105 L 443.604 120.271 C 440.951 117.748 444.219 114.028 450.091 116.862 L 450.876 114.869 C 448.887 114.056 447.113 113.728 445.61 113.771 Z M 451.867 119.744 C 451.698 119.732 451.511 119.755 451.315 119.823 L 440.325 123.644 C 438.755 124.191 439.576 126.544 441.147 125.998 L 452.136 122.176 C 453.511 121.699 453.054 119.837 451.867 119.744 Z M 451.019 124.797 L 448.429 125.589 C 450.996 130.197 444.736 130.986 440.519 128.784 L 439.789 130.803 C 445.27 133.497 453.834 131.988 451.019 124.797 Z" fill="#089589" fill-rule="nonzero" opacity="1" stroke="none"></path>
  <path d="M 489.212 119.917 C 486.003 121.5 484.727 125.265 486.31 128.473 C 487.893 131.681 491.658 132.958 494.866 131.374 L 498.303 129.678 C 500.48 128.604 501.766 126.553 501.778 124.268 L 499.112 125.272 C 498.707 126.184 498.089 126.934 497.172 127.387 L 493.735 129.083 C 491.787 130.044 489.563 129.29 488.602 127.342 C 487.64 125.394 488.395 123.169 490.343 122.208 L 493.78 120.512 C 494.926 119.947 496.125 120.05 497.208 120.512 L 500.142 119.51 C 498.209 117.614 495.17 116.977 492.649 118.22 L 489.212 119.917 Z M 502.686 114.47 C 502.421 114.601 502.173 114.766 501.934 114.93 L 503.369 117.026 C 503.904 116.661 504.686 116.416 505.408 116.376 C 506.439 116.447 508.347 116.388 509.212 116.325 C 511.291 116.251 512.991 117.942 513.067 120.077 C 513.141 122.155 511.45 123.856 509.315 123.933 C 508.259 123.861 506.253 123.918 505.422 123.983 L 505.623 126.556 C 506.133 126.516 508.78 126.465 509.248 126.504 L 509.338 126.504 L 509.391 126.522 C 512.857 126.399 515.746 123.542 515.621 120.019 L 515.622 119.93 C 515.453 116.503 512.647 113.647 509.154 113.771 L 509.118 113.789 L 509.064 113.771 C 508.554 113.811 505.907 113.862 505.439 113.824 L 505.386 113.805 L 505.297 113.804 C 504.381 113.854 503.48 114.076 502.686 114.47 Z M 495.734 122.397 C 495.126 122.759 494.927 123.545 495.288 124.153 C 495.65 124.761 496.435 124.961 497.044 124.6 L 506.776 121.223 C 507.447 120.99 507.803 120.256 507.57 119.584 C 507.336 118.912 506.603 118.557 505.931 118.79 L 496.199 122.167 C 496.071 122.208 495.951 122.267 495.842 122.345 C 495.805 122.36 495.769 122.378 495.734 122.397 Z" fill="#089589" fill-rule="nonzero" opacity="1" stroke="none"></path>
  <path d="M 391.594 113.767 L 387.984 132.053 L 390.708 132.053 L 394.319 113.767 L 391.594 113.767 Z" fill="#089589" fill-rule="nonzero" opacity="1" stroke="none"></path>
  <path d="M 179.276 400.623 C 179.276 395.574 183.369 391.48 188.419 391.48 L 581.562 391.48 C 586.61 391.48 590.705 395.574 590.705 400.623 C 590.705 405.673 586.61 409.766 581.562 409.766 L 188.419 409.766 C 183.369 409.766 179.276 405.673 179.276 400.623 Z" fill="#089589" fill-opacity="0.75" fill-rule="nonzero" opacity="1" stroke="none"></path>
  <path d="M 215.847 453.652 C 215.847 448.602 219.941 444.509 224.99 444.509 L 787.276 444.509 C 792.325 444.509 796.419 448.602 796.419 453.652 C 796.419 458.701 792.325 462.795 787.276 462.795 L 224.99 462.795 C 219.941 462.795 215.847 458.701 215.847 453.652 Z" fill="#089589" fill-opacity="0.75" fill-rule="nonzero" opacity="1" stroke="none"></path>
  <path d="M 179.276 506.68 C 179.276 501.631 183.369 497.538 188.419 497.538 L 604.419 497.538 C 609.468 497.538 613.562 501.631 613.562 506.68 C 613.562 511.73 609.468 515.823 604.419 515.823 L 188.419 515.823 C 183.369 515.823 179.276 511.73 179.276 506.68 Z" fill="#089589" fill-opacity="0.75" fill-rule="nonzero" opacity="1" stroke="none"></path>
  <path d="M 393.335 277.268 C 393.335 272.219 397.428 268.125 402.478 268.125 L 1161.335 268.125 C 1166.382 268.125 1170.478 272.219 1170.478 277.268 C 1170.478 282.318 1166.382 286.411 1161.335 286.411 L 402.478 286.411 C 397.428 286.411 393.335 282.318 393.335 277.268 Z" fill="#089589" fill-opacity="0.75" fill-rule="nonzero" opacity="0.65" stroke="none"></path>
  <path d="M 443.621 187.668 C 443.621 182.619 447.714 178.525 452.764 178.525 L 1161.335 178.525 C 1166.382 178.525 1170.478 182.619 1170.478 187.668 L 1170.478 205.93 C 1170.478 210.98 1166.382 215.073 1161.335 215.073 L 452.764 215.073 C 447.714 215.073 443.621 210.98 443.621 205.93 L 443.621 187.668 Z" fill="#089589" fill-opacity="0.75" fill-rule="nonzero" opacity="1" stroke="none"></path>
  <path d="M 130.544 132.471 C 129.955 133.059 128.998 133.059 128.408 132.471 L 119.843 123.906 C 119.254 123.315 119.254 122.36 119.843 121.769 L 128.408 113.205 C 129.26 112.411 130.651 112.838 130.91 113.97 C 131.024 114.46 130.886 114.974 130.544 115.341 L 123.046 122.838 L 130.544 130.334 C 131.134 130.925 131.134 131.88 130.544 132.471 Z" fill="#089589" fill-rule="nonzero" opacity="1" stroke="none"></path>
  <path d="M 329.845 113.767 L 329.845 122.495 L 329.845 132.053 L 336.495 132.053 C 339.819 132.053 342.313 130.786 342.313 126.592 C 342.313 124.771 341.04 123.505 339.819 122.495 C 341.04 121.572 341.482 120.416 341.482 118.754 C 341.482 114.925 338.157 113.767 334.833 113.767 L 329.845 113.767 Z M 332.339 116.261 C 336.495 116.261 338.988 116.261 338.988 118.754 C 338.988 121.248 336.495 121.248 332.339 121.248 L 332.339 116.261 Z M 332.339 123.862 C 336.495 123.862 339.819 123.862 339.819 126.592 C 339.819 129.323 338.157 129.559 332.339 129.559 L 332.339 123.862 Z" fill="#089589" fill-rule="nonzero" opacity="1" stroke="none"></path>
  <path d="M 1110.144 112.598 C 1110.144 111.067 1111.388 109.824 1112.915 109.824 L 1121.774 109.824 C 1122.506 109.824 1123.21 110.116 1123.731 110.637 L 1128.348 115.255 C 1128.869 115.776 1129.162 116.48 1129.162 117.216 L 1129.162 130.823 C 1129.162 132.354 1127.918 133.596 1126.391 133.596 L 1112.128 133.596 C 1111.47 133.596 1110.94 133.064 1110.94 132.407 C 1110.94 131.751 1111.47 131.219 1112.128 131.219 L 1126.391 131.219 C 1126.611 131.219 1126.784 131.041 1126.784 130.823 L 1126.784 119.333 L 1122.423 119.333 C 1120.896 119.333 1119.653 118.091 1119.653 116.56 L 1119.653 112.202 L 1112.915 112.202 C 1112.695 112.202 1112.522 112.379 1112.522 112.598 L 1112.522 116.56 C 1112.522 117.216 1111.991 117.749 1111.333 117.749 C 1110.675 117.749 1110.144 117.216 1110.144 116.56 L 1110.144 112.598 Z M 1112.869 120.474 C 1113.335 120.011 1114.085 120.011 1114.551 120.474 L 1117.724 123.644 C 1118.181 124.107 1118.181 124.86 1117.724 125.323 L 1114.551 128.493 C 1114.259 128.811 1113.811 128.943 1113.39 128.835 C 1112.97 128.727 1112.64 128.398 1112.531 127.977 C 1112.421 127.555 1112.549 127.109 1112.869 126.813 L 1115.2 124.483 L 1112.869 122.154 C 1112.412 121.69 1112.412 120.939 1112.869 120.474 Z M 1109.002 122.154 L 1106.67 124.483 L 1109.002 126.813 C 1109.44 127.282 1109.431 128.011 1108.974 128.465 C 1108.526 128.917 1107.795 128.929 1107.328 128.493 L 1104.156 125.323 C 1103.69 124.86 1103.69 124.107 1104.156 123.644 L 1107.328 120.474 C 1107.795 120.038 1108.526 120.051 1108.974 120.502 C 1109.431 120.956 1109.44 121.686 1109.002 122.154 Z M 1122.03 112.3 L 1122.03 116.56 C 1122.03 116.779 1122.204 116.956 1122.423 116.956 L 1126.684 116.956 L 1126.666 116.936 L 1122.048 112.318 L 1122.03 112.3 Z" fill="#089589" fill-rule="nonzero" opacity="1" stroke="none"></path>
  <path d="M 1172.261 112.598 L 1172.261 114.579 L 1175.827 114.579 C 1176.741 114.579 1177.317 115.569 1176.86 116.362 C 1176.65 116.729 1176.256 116.956 1175.827 116.956 L 1159.187 116.956 C 1158.272 116.956 1157.706 115.966 1158.163 115.173 C 1158.373 114.806 1158.766 114.579 1159.187 114.579 L 1162.752 114.579 L 1162.752 112.598 C 1162.752 111.067 1163.996 109.824 1165.532 109.824 L 1169.491 109.824 C 1171.018 109.824 1172.261 111.067 1172.261 112.598 Z M 1165.13 114.579 L 1169.884 114.579 L 1169.884 112.598 C 1169.884 112.379 1169.71 112.202 1169.491 112.202 L 1165.532 112.202 C 1165.312 112.202 1165.13 112.379 1165.13 112.598 L 1165.13 114.579 Z M 1162.999 130.862 C 1163.027 131.065 1163.191 131.219 1163.392 131.219 L 1171.621 131.219 C 1171.822 131.219 1171.996 131.065 1172.014 130.862 L 1173.066 120.403 C 1173.111 120.005 1173.358 119.659 1173.724 119.484 C 1174.547 119.084 1175.488 119.726 1175.424 120.639 L 1174.382 131.098 C 1174.236 132.517 1173.047 133.596 1171.621 133.596 L 1163.392 133.596 C 1161.975 133.596 1160.778 132.517 1160.64 131.1 L 1159.589 120.64 C 1159.534 120.199 1159.735 119.761 1160.101 119.51 C 1160.86 118.994 1161.884 119.49 1161.957 120.403 L 1162.999 130.862 Z" fill="#089589" fill-rule="evenodd" opacity="1" stroke="none"></path>
  <path d="M 785.52 121.888 L 779.112 128.41 L 772.591 122.002 L 785.52 121.888 Z" fill="#089589" fill-rule="nonzero" opacity="1" stroke="none"></path>
  <path d="M 1159.69 283.429 C 1158.492 283.396 1157.331 283.629 1156.197 284.057 C 1156.188 284.061 1156.142 284.086 1156.142 284.086 C 1153.125 284.704 1150.09 285.781 1146.624 287.372 C 1139.091 290.829 1130.524 296.18 1122.542 303.4 C 1112.366 312.534 1099.886 324.728 1086.062 340.514 C 1053.614 377.509 1018.396 426.389 1013.312 433.457 C 1009.774 428.957 1002.56 419.927 986.515 401.114 C 965.513 376.357 939.1 357.327 936.887 355.743 C 936.723 355.492 936.704 355.346 936.485 355.057 C 935.689 354.017 934.144 352.374 931.603 351.514 C 929.015 350.638 926.547 351.043 925.111 351.514 C 924.627 351.675 924.508 351.836 924.142 352.001 C 924.819 351.772 925.541 351.635 926.254 351.572 C 926.144 351.582 926.83 351.542 926.83 351.543 C 925.724 351.543 924.691 351.841 923.712 352.2 C 923.694 352.206 923.676 352.193 923.657 352.2 C 923.264 352.348 922.908 352.544 922.542 352.743 C 922.533 352.749 922.524 352.765 922.515 352.771 C 919.571 354.382 917.541 357.455 917.687 361.057 C 917.715 361.69 917.779 363.759 918.711 365.914 C 919.625 368.022 920.869 369.409 922.003 370.572 C 922.185 370.764 922.368 370.968 922.569 371.143 C 924.709 372.986 946.871 391.897 969.372 418.286 C 969.363 418.28 969.344 418.292 969.344 418.286 C 991.845 444.807 1003.941 465.629 1003.941 465.629 C 1004.425 466.451 1005.038 467.192 1005.742 467.829 C 1005.916 467.985 1006.409 468.508 1007.598 469.172 C 1008.832 469.86 1010.414 470.247 1011.283 470.343 C 1012.919 470.522 1012.764 470.399 1013.139 470.401 C 1013.139 470.401 1014.071 471.03 1017.399 469.886 C 1021.139 468.603 1022.592 465.868 1023.059 465.058 C 1022.995 465.151 1022.949 465.251 1022.885 465.343 C 1028.096 457.951 1072.677 395.063 1106.058 356.972 C 1141.888 316.086 1164.087 303.658 1164.087 303.657 C 1165.614 302.786 1166.876 301.477 1167.69 299.915 C 1167.699 299.887 1168.778 297.194 1168.86 295.772 C 1168.915 294.675 1168.86 294.702 1168.86 294.143 C 1168.86 293.793 1168.915 290.353 1167.141 287.6 C 1165.404 284.897 1162.551 283.507 1159.69 283.429 Z" fill-rule="nonzero" opacity="1" stroke="none" style="fill: rgb(255, 255, 255);"></path>
  <path d="M 1159.443 292.558 C 1159.36 292.676 1159.068 292.792 1158.373 292.917 C 1156.279 293.302 1153.719 294.174 1150.455 295.674 C 1143.781 298.734 1135.918 303.634 1128.686 310.177 C 1118.757 319.09 1106.533 331.04 1092.947 346.547 C 1058.615 385.691 1017.353 443.378 1017.353 443.378 L 1013.559 448.684 L 1009.619 443.521 C 1009.619 443.521 1000.768 431.923 979.548 407.039 C 958.702 382.465 930.862 362.634 930.862 362.634 L 929.984 362.006 L 929.783 361.599 C 928.988 359.931 928.503 359.766 927.049 360.675 C 926.958 360.684 926.876 360.691 926.821 360.691 C 926.867 361.894 926.958 362.562 928.549 364.206 C 930.816 366.156 953.317 385.391 976.311 412.356 C 999.305 439.449 1011.859 461.036 1011.859 461.036 C 1012.188 461.335 1012.169 461.256 1013.276 461.27 C 1014.382 461.285 1014.592 461.461 1015.241 460.35 L 1015.397 460.066 C 1020.7 452.546 1065.271 389.634 1099.182 350.934 C 1135.671 309.299 1159.58 295.707 1159.58 295.707 C 1159.772 295.34 1159.717 295.416 1159.717 294.147 C 1159.717 293.274 1159.708 292.967 1159.443 292.558 Z" fill-rule="nonzero" opacity="1" stroke="none" style="fill: rgba(85, 132, 155, 0.267);"></path>
  <path d="M 504.457 367.829 C 503.667 367.73 502.87 367.748 502.086 367.857 C 496.856 368.585 492.23 373.705 494.543 380.086 C 508.956 419.84 526.163 461.686 558.172 490.086 C 591.058 519.264 625.211 536.784 663.2 543.229 C 701.143 549.665 742.342 545.072 789.6 531.429 C 841.176 516.536 941.468 459.426 970.003 445.286 C 984.905 437.897 999.945 431.164 1015.232 425.714 C 1018.478 424.557 1021.724 423.462 1024.997 422.401 C 1025.39 422.277 1025.728 422.162 1026.057 422.057 C 1026.067 422.055 1026.076 422.06 1026.085 422.057 C 1038.985 417.904 988.444 402.777 966.025 411.971 C 911.03 434.535 822.832 482.274 751.657 496.543 C 669.156 513.082 617.081 482.721 573.857 446.886 C 549.56 426.743 529.253 400.236 510.801 371.971 C 509.13 369.414 506.828 368.125 504.457 367.829 Z" fill-rule="nonzero" opacity="1" stroke="none" style="fill: rgb(255, 255, 255);"></path>
  <path d="M 1022.217 413.687 C 1022.565 413.575 1022.921 413.461 1023.269 413.348 C 1036.471 409.098 1049.884 405.541 1063.296 402.411 C 1049.527 405.626 1035.758 409.287 1022.217 413.687 Z M 1026.816 412.223 C 1029.76 408.231 1033.006 403.863 1036.526 399.193 C 1013.788 404.553 991.397 411.454 969.491 420.441 C 915.283 442.679 826.681 490.839 753.447 505.521 C 667.521 522.746 612.221 490.559 568.027 453.919 C 542.632 432.867 521.836 405.6 503.149 376.977 C 517.503 416.57 534.342 456.716 564.229 483.235 C 628.031 539.842 694.138 549.458 787.058 522.632 C 836.573 508.335 936.988 451.436 965.934 437.089 C 981.056 429.595 996.416 422.725 1012.151 417.115 C 1015.836 415.8 1019.548 414.546 1023.269 413.348 C 1024.448 412.965 1025.637 412.592 1026.816 412.223 Z M 1036.526 399.193 C 1037.76 398.901 1039.004 398.613 1040.247 398.332 C 1039.004 398.613 1037.76 398.904 1036.526 399.193 Z M 1022.217 413.687 C 1021.651 413.871 1021.093 414.055 1020.526 414.241 C 1021.093 414.055 1021.651 413.871 1022.217 413.687 Z M 1040.247 398.332 C 1042.057 397.921 1043.868 397.516 1045.678 397.122 C 1043.868 397.516 1042.057 397.918 1040.247 398.332 Z M 1045.678 397.122 C 1048.613 396.486 1051.548 395.876 1054.483 395.287 C 1051.548 395.876 1048.613 396.488 1045.678 397.122 Z M 1170.506 391.683 C 1200.65 397.498 1229.056 410.16 1256.229 425.898 C 1229.888 412.185 1202.615 401.089 1173.898 396.214 C 1140.261 390.499 1106.131 393.311 1072.814 400.3 C 1075.246 397.157 1077.696 394.009 1080.165 390.884 C 1110.181 386.663 1140.563 385.902 1170.506 391.683 Z" fill-rule="nonzero" opacity="1" stroke="none" style="fill: rgba(85, 132, 155, 0.267);"></path>
  <path d="M 310.782 112.211 C 310.782 109.686 312.828 107.639 315.354 107.639 L 522.78 107.639 C 525.305 107.639 527.351 109.686 527.351 112.211 L 527.351 135.068 C 527.351 137.593 525.305 139.639 522.78 139.639 L 315.354 139.639 C 312.828 139.639 310.782 137.593 310.782 135.068 L 310.782 112.211 Z" fill="#dfe3e5" fill-rule="nonzero" stroke="none"></path>
  <rect fill="#ffffff" height="35.657" stroke="none" width="220.227" x="308.954" y="105.811"></rect>
  <path d="M 310.782 112.211 C 310.782 109.686 312.828 107.639 315.354 107.639 L 522.78 107.639 C 525.305 107.639 527.351 109.686 527.351 112.211 L 527.351 135.068 C 527.351 137.593 525.305 139.639 522.78 139.639 L 315.354 139.639 C 312.828 139.639 310.782 137.593 310.782 135.068 L 310.782 112.211 Z" fill-rule="evenodd" stroke="none" style="fill: rgb(223, 227, 229);"></path>
  <path d="M 310.782 112.211 C 310.782 109.686 312.828 107.639 315.354 107.639 L 522.78 107.639 C 525.305 107.639 527.351 109.686 527.351 112.211 L 527.351 135.068 C 527.351 137.593 525.305 139.639 522.78 139.639 L 315.354 139.639 C 312.828 139.639 310.782 137.593 310.782 135.068 L 310.782 112.211 Z" fill="none" mask="url(#StrokeMask_10)" stroke="#dfe3e5" stroke-linecap="butt" stroke-linejoin="round" stroke-width="4"></path>
  <path d="M 545.754 112.211 C 545.754 109.686 547.8 107.639 550.325 107.639 L 648.189 107.639 C 650.714 107.639 652.76 109.686 652.76 112.211 L 652.76 135.068 C 652.76 137.593 650.714 139.639 648.189 139.639 L 550.325 139.639 C 547.8 139.639 545.754 137.593 545.754 135.068 L 545.754 112.211 Z" fill="#dfe3e5" fill-rule="nonzero" stroke="none"></path>
  <rect fill="#ffffff" height="35.657" stroke="none" width="110.663" x="543.925" y="105.811"></rect>
  <path d="M 545.754 112.211 C 545.754 109.686 547.8 107.639 550.325 107.639 L 648.189 107.639 C 650.714 107.639 652.76 109.686 652.76 112.211 L 652.76 135.068 C 652.76 137.593 650.714 139.639 648.189 139.639 L 550.325 139.639 C 547.8 139.639 545.754 137.593 545.754 135.068 L 545.754 112.211 Z" fill-rule="evenodd" stroke="none" style="fill: rgb(223, 227, 229);"></path>
  <path d="M 545.754 112.211 C 545.754 109.686 547.8 107.639 550.325 107.639 L 648.189 107.639 C 650.714 107.639 652.76 109.686 652.76 112.211 L 652.76 135.068 C 652.76 137.593 650.714 139.639 648.189 139.639 L 550.325 139.639 C 547.8 139.639 545.754 137.593 545.754 135.068 L 545.754 112.211 Z" fill="none" mask="url(#StrokeMask_11)" stroke="#dfe3e5" stroke-linecap="butt" stroke-linejoin="round" stroke-width="4"></path>
  <path d="M 682.897 112.211 C 682.897 109.686 684.943 107.639 687.468 107.639 L 785.331 107.639 C 787.857 107.639 789.903 109.686 789.903 112.211 L 789.903 135.068 C 789.903 137.593 787.857 139.639 785.331 139.639 L 687.468 139.639 C 684.943 139.639 682.897 137.593 682.897 135.068 L 682.897 112.211 Z" fill="#dfe3e5" fill-rule="nonzero" stroke="none"></path>
  <rect fill="#ffffff" height="35.657" stroke="none" width="110.663" x="681.068" y="105.811"></rect>
  <path d="M 682.897 112.211 C 682.897 109.686 684.943 107.639 687.468 107.639 L 785.331 107.639 C 787.857 107.639 789.903 109.686 789.903 112.211 L 789.903 135.068 C 789.903 137.593 787.857 139.639 785.331 139.639 L 687.468 139.639 C 684.943 139.639 682.897 137.593 682.897 135.068 L 682.897 112.211 Z" fill-rule="evenodd" stroke="none" style="fill: rgb(223, 227, 229);"></path>
  <path d="M 682.897 112.211 C 682.897 109.686 684.943 107.639 687.468 107.639 L 785.331 107.639 C 787.857 107.639 789.903 109.686 789.903 112.211 L 789.903 135.068 C 789.903 137.593 787.857 139.639 785.331 139.639 L 687.468 139.639 C 684.943 139.639 682.897 137.593 682.897 135.068 L 682.897 112.211 Z" fill="none" mask="url(#StrokeMask_12)" stroke="#dfe3e5" stroke-linecap="butt" stroke-linejoin="round" stroke-width="4"></path>
  <path d="M 820.04 112.211 C 820.04 109.686 822.086 107.639 824.611 107.639 L 869.304 107.639 C 871.829 107.639 873.875 109.686 873.875 112.211 L 873.875 135.068 C 873.875 137.593 871.829 139.639 869.304 139.639 L 824.611 139.639 C 822.086 139.639 820.04 137.593 820.04 135.068 L 820.04 112.211 Z" fill="#dfe3e5" fill-rule="nonzero" stroke="none"></path>
  <rect fill="#ffffff" height="35.657" stroke="none" width="57.494" x="818.211" y="105.811"></rect>
  <path d="M 820.04 112.211 C 820.04 109.686 822.086 107.639 824.611 107.639 L 869.304 107.639 C 871.829 107.639 873.875 109.686 873.875 112.211 L 873.875 135.068 C 873.875 137.593 871.829 139.639 869.304 139.639 L 824.611 139.639 C 822.086 139.639 820.04 137.593 820.04 135.068 L 820.04 112.211 Z" fill="#000000" fill-rule="evenodd" stroke="none"></path>
  <path d="M 820.04 112.211 C 820.04 109.686 822.086 107.639 824.611 107.639 L 869.304 107.639 C 871.829 107.639 873.875 109.686 873.875 112.211 L 873.875 135.068 C 873.875 137.593 871.829 139.639 869.304 139.639 L 824.611 139.639 C 822.086 139.639 820.04 137.593 820.04 135.068 L 820.04 112.211 Z" mask="url(#StrokeMask_13)" stroke="#dfe3e5" stroke-linecap="butt" stroke-linejoin="round" stroke-width="4" style="fill: rgb(223, 227, 229);"></path>
  <path d="M 1076.041 112.211 C 1076.041 109.686 1078.09 107.639 1080.613 107.639 L 1125.303 107.639 C 1127.827 107.639 1129.875 109.686 1129.875 112.211 L 1129.875 135.068 C 1129.875 137.593 1127.827 139.639 1125.303 139.639 L 1080.613 139.639 C 1078.09 139.639 1076.041 137.593 1076.041 135.068 L 1076.041 112.211 Z" fill="#dfe3e5" fill-rule="nonzero" stroke="none"></path>
  <rect fill="#ffffff" height="35.657" stroke="none" width="57.494" x="1074.213" y="105.811"></rect>
  <path d="M 1076.041 112.211 C 1076.041 109.686 1078.09 107.639 1080.613 107.639 L 1125.303 107.639 C 1127.827 107.639 1129.875 109.686 1129.875 112.211 L 1129.875 135.068 C 1129.875 137.593 1127.827 139.639 1125.303 139.639 L 1080.613 139.639 C 1078.09 139.639 1076.041 137.593 1076.041 135.068 L 1076.041 112.211 Z" fill="#000000" fill-rule="evenodd" stroke="none"></path>
  <path d="M 1076.041 112.211 C 1076.041 109.686 1078.09 107.639 1080.613 107.639 L 1125.303 107.639 C 1127.827 107.639 1129.875 109.686 1129.875 112.211 L 1129.875 135.068 C 1129.875 137.593 1127.827 139.639 1125.303 139.639 L 1080.613 139.639 C 1078.09 139.639 1076.041 137.593 1076.041 135.068 L 1076.041 112.211 Z" mask="url(#StrokeMask_14)" stroke="#dfe3e5" stroke-linecap="butt" stroke-linejoin="round" stroke-width="4" style="fill: rgb(223, 227, 229);"></path>
  <path d="M 1140.042 112.211 C 1140.042 109.686 1142.09 107.639 1144.613 107.639 L 1189.303 107.639 C 1191.827 107.639 1193.875 109.686 1193.875 112.211 L 1193.875 135.068 C 1193.875 137.593 1191.827 139.639 1189.303 139.639 L 1144.613 139.639 C 1142.09 139.639 1140.042 137.593 1140.042 135.068 L 1140.042 112.211 Z" fill="#dfe3e5" fill-rule="nonzero" stroke="none"></path>
  <rect fill="#ffffff" height="35.657" stroke="none" width="57.494" x="1138.213" y="105.811"></rect>
  <path d="M 1140.042 112.211 C 1140.042 109.686 1142.09 107.639 1144.613 107.639 L 1189.303 107.639 C 1191.827 107.639 1193.875 109.686 1193.875 112.211 L 1193.875 135.068 C 1193.875 137.593 1191.827 139.639 1189.303 139.639 L 1144.613 139.639 C 1142.09 139.639 1140.042 137.593 1140.042 135.068 L 1140.042 112.211 Z" fill-rule="evenodd" stroke="none" style="fill: rgb(223, 227, 229);"></path>
  <path d="M 1140.042 112.211 C 1140.042 109.686 1142.09 107.639 1144.613 107.639 L 1189.303 107.639 C 1191.827 107.639 1193.875 109.686 1193.875 112.211 L 1193.875 135.068 C 1193.875 137.593 1191.827 139.639 1189.303 139.639 L 1144.613 139.639 C 1142.09 139.639 1140.042 137.593 1140.042 135.068 L 1140.042 112.211 Z" fill="none" mask="url(#StrokeMask_15)" stroke="#dfe3e5" stroke-linecap="butt" stroke-linejoin="round" stroke-width="4"></path>
  <path d="M 891.354 112.211 C 891.354 109.686 893.4 107.639 895.925 107.639 L 994.551 107.639 C 997.075 107.639 999.123 109.686 999.123 112.211 L 999.123 135.068 C 999.123 137.593 997.075 139.639 994.551 139.639 L 895.925 139.639 C 893.4 139.639 891.354 137.593 891.354 135.068 L 891.354 112.211 Z" fill="#dfe3e5" fill-rule="nonzero" stroke="none"></path>
  <rect fill="#ffffff" height="35.657" stroke="none" width="111.425" x="889.525" y="105.811"></rect>
  <path d="M 891.354 112.211 C 891.354 109.686 893.4 107.639 895.925 107.639 L 994.551 107.639 C 997.075 107.639 999.123 109.686 999.123 112.211 L 999.123 135.068 C 999.123 137.593 997.075 139.639 994.551 139.639 L 895.925 139.639 C 893.4 139.639 891.354 137.593 891.354 135.068 L 891.354 112.211 Z" fill-rule="evenodd" stroke="none" style="fill: rgb(223, 227, 229);"></path>
  <path d="M 891.354 112.211 C 891.354 109.686 893.4 107.639 895.925 107.639 L 994.551 107.639 C 997.075 107.639 999.123 109.686 999.123 112.211 L 999.123 135.068 C 999.123 137.593 997.075 139.639 994.551 139.639 L 895.925 139.639 C 893.4 139.639 891.354 137.593 891.354 135.068 L 891.354 112.211 Z" fill="none" mask="url(#StrokeMask_16)" stroke="#dfe3e5" stroke-linecap="butt" stroke-linejoin="round" stroke-width="4"></path>
  <path d="M 363.937 107.639 L 363.937 139.639" fill="none" opacity="1" stroke="#f7f7f7" stroke-linecap="butt" stroke-linejoin="round" stroke-width="2"></path>
  <path d="M 418.794 107.639 L 418.794 139.639" fill="none" opacity="1" stroke="#f7f7f7" stroke-linecap="butt" stroke-linejoin="round" stroke-width="2"></path>
  <path d="M 473.652 107.639 L 473.652 139.639" fill="none" opacity="1" stroke="#f7f7f7" stroke-linecap="butt" stroke-linejoin="round" stroke-width="2"></path>
  <path d="M 598.909 107.639 L 598.909 139.64" fill="none" opacity="1" stroke="#f7f7f7" stroke-linecap="butt" stroke-linejoin="round" stroke-width="2"></path>
  <path d="M 942.684 107.639 L 942.684 139.639" fill="none" opacity="1" stroke="#f7f7f7" stroke-linecap="butt" stroke-linejoin="round" stroke-width="2"></path>
  <path d="M 0 0 L 1280 0 L 1280 22.857 L 0 22.857 L 0 0 Z" fill="#dfe3e6" fill-rule="nonzero" opacity="1" stroke="none"></path>
  <path d="M 176.031 210.623 C 176.031 207.795 178.323 205.503 181.151 205.503 L 256.24 205.503 C 259.067 205.503 261.359 207.795 261.359 210.623 L 261.359 212.329 C 261.359 215.157 259.067 217.449 256.24 217.449 L 181.151 217.449 C 178.323 217.449 176.031 215.157 176.031 212.329 L 176.031 210.623 Z" fill="#000000" fill-rule="nonzero" opacity="1" style=""></path>
  <path d="M 176.031 210.623 C 176.031 207.795 178.323 205.503 181.151 205.503 L 256.24 205.503 C 259.067 205.503 261.359 207.795 261.359 210.623 L 261.359 212.329 C 261.359 215.157 259.067 217.449 256.24 217.449 L 181.151 217.449 C 178.323 217.449 176.031 215.157 176.031 212.329 L 176.031 210.623 Z" fill="none" opacity="1" stroke-linecap="butt" stroke-linejoin="round" stroke-width="4" style=""></path>
  <path d="M 176.031 244.755 C 176.031 241.928 178.323 239.636 181.151 239.636 L 211.869 239.636 C 214.696 239.636 216.988 241.928 216.988 244.755 L 216.988 246.462 C 216.988 249.29 214.696 251.582 211.869 251.582 L 181.151 251.582 C 178.323 251.582 176.031 249.29 176.031 246.462 L 176.031 244.755 Z" fill="#000000" fill-rule="nonzero" opacity="1" style=""></path>
  <path d="M 176.031 244.755 C 176.031 241.928 178.323 239.636 181.151 239.636 L 211.869 239.636 C 214.696 239.636 216.988 241.928 216.988 244.755 L 216.988 246.462 C 216.988 249.29 214.696 251.582 211.869 251.582 L 181.151 251.582 C 178.323 251.582 176.031 249.29 176.031 246.462 L 176.031 244.755 Z" fill="none" opacity="1" stroke-linecap="butt" stroke-linejoin="round" stroke-width="4" style=""></path>
  <path d="M 176.031 278.888 C 176.031 276.061 178.323 273.769 181.151 273.769 L 196.51 273.769 C 199.338 273.769 201.63 276.061 201.63 278.888 L 201.63 280.595 C 201.63 283.423 199.338 285.715 196.51 285.715 L 181.151 285.715 C 178.323 285.715 176.031 283.423 176.031 280.595 L 176.031 278.888 Z" fill="#000000" fill-rule="nonzero" opacity="1" style=""></path>
  <path d="M 176.031 278.888 C 176.031 276.061 178.323 273.769 181.151 273.769 L 196.51 273.769 C 199.338 273.769 201.63 276.061 201.63 278.888 L 201.63 280.595 C 201.63 283.423 199.338 285.715 196.51 285.715 L 181.151 285.715 C 178.323 285.715 176.031 283.423 176.031 280.595 L 176.031 278.888 Z" fill="none" opacity="1" stroke-linecap="butt" stroke-linejoin="round" stroke-width="4" style=""></path>
  <path d="M 317.088 191.604 C 313.882 191.604 310.628 192.763 308.184 195.207 C 303.871 199.517 295.217 208.177 290.905 212.486 C 274.172 228.463 240.829 260.349 224.124 276.3 C 222.552 277.783 221.35 279.638 220.732 281.706 C 218.141 290.216 213.04 307.223 210.449 315.733 C 210.447 315.741 210.346 315.723 210.343 315.733 C 210.335 315.761 210.343 316.156 210.343 316.156 C 209.207 320.923 213.62 325.085 218.293 323.682 C 218.296 323.682 227.589 320.72 237.056 317.641 C 241.79 316.102 246.629 314.56 250.306 313.295 C 252.145 312.661 253.702 312.039 254.865 311.599 C 255.447 311.377 255.964 311.236 256.348 311.068 C 256.653 310.935 257.171 310.661 257.196 310.644 C 258.103 310.076 258.25 308.772 257.514 307.995 C 257.512 307.992 251.19 301.249 251.154 301.211 C 250.701 300.73 249.979 300.577 249.352 300.786 C 249.29 300.807 247.718 301.383 245.218 302.164 C 242.736 302.94 239.395 303.905 236.102 304.921 C 231.057 306.475 228.112 307.357 226.032 307.995 C 228.113 301.143 231.203 291.073 232.922 285.416 C 248.545 270.502 279.083 241.276 295.251 225.842 C 299.663 230.252 306.594 237.188 311.046 241.637 C 303.271 249.054 289.52 262.223 282.319 269.092 C 281.642 269.737 281.568 270.852 282.213 271.529 C 283.814 273.213 287.078 276.524 288.679 278.208 C 289.325 278.888 290.332 278.961 291.011 278.314 C 299.383 270.321 316.136 254.294 324.508 246.301 C 324.532 246.279 324.591 246.218 324.614 246.195 C 328.935 241.875 337.57 233.236 341.893 228.916 C 346.78 224.018 346.782 216.103 341.893 211.214 C 337.889 207.212 329.889 199.21 325.886 195.207 C 323.441 192.763 320.293 191.603 317.088 191.604 Z M 317.088 204.324 C 321.089 208.326 328.881 216.117 332.882 220.118 C 329.662 223.333 323.838 229.17 320.162 232.838 C 315.738 228.412 308.811 221.49 304.368 217.044 C 308.037 213.375 313.857 207.555 317.088 204.324 Z" fill="#000000" fill-rule="nonzero" opacity="1" style=""></path>
  <path d="M 317.088 191.604 C 313.882 191.604 310.628 192.763 308.184 195.207 C 303.871 199.517 295.217 208.177 290.905 212.486 C 274.172 228.463 240.829 260.349 224.124 276.3 C 222.552 277.783 221.35 279.638 220.732 281.706 C 218.141 290.216 213.04 307.223 210.449 315.733 C 210.447 315.741 210.346 315.723 210.343 315.733 C 210.335 315.761 210.343 316.156 210.343 316.156 C 209.207 320.923 213.62 325.085 218.293 323.682 C 218.296 323.682 227.589 320.72 237.056 317.641 C 241.79 316.102 246.629 314.56 250.306 313.295 C 252.145 312.661 253.702 312.039 254.865 311.599 C 255.447 311.377 255.964 311.236 256.348 311.068 C 256.653 310.935 257.171 310.661 257.196 310.644 C 258.103 310.076 258.25 308.772 257.514 307.995 C 257.512 307.992 251.19 301.249 251.154 301.211 C 250.701 300.73 249.979 300.577 249.352 300.786 C 249.29 300.807 247.718 301.383 245.218 302.164 C 242.736 302.94 239.395 303.905 236.102 304.921 C 231.057 306.475 228.112 307.357 226.032 307.995 C 228.113 301.143 231.203 291.073 232.922 285.416 C 248.545 270.502 279.083 241.276 295.251 225.842 C 299.663 230.252 306.594 237.188 311.046 241.637 C 303.271 249.054 289.52 262.223 282.319 269.092 C 281.642 269.737 281.568 270.852 282.213 271.529 C 283.814 273.213 287.078 276.524 288.679 278.208 C 289.325 278.888 290.332 278.961 291.011 278.314 C 299.383 270.321 316.136 254.294 324.508 246.301 C 324.532 246.279 324.591 246.218 324.614 246.195 C 328.935 241.875 337.57 233.236 341.893 228.916 C 346.78 224.018 346.782 216.103 341.893 211.214 C 337.889 207.212 329.889 199.21 325.886 195.207 C 323.441 192.763 320.293 191.603 317.088 191.604 Z M 317.088 204.324 C 321.089 208.326 328.881 216.117 332.882 220.118 C 329.662 223.333 323.838 229.17 320.162 232.838 C 315.738 228.412 308.811 221.49 304.368 217.044 C 308.037 213.375 313.857 207.555 317.088 204.324 Z" fill="none" opacity="1" stroke-linecap="butt" stroke-linejoin="round" stroke-width="4" style=""></path>
  <path d="M 360.337 248.316 C 358.839 248.316 357.344 248.968 356.202 250.118 C 341.386 265.006 312.371 294.191 296.947 309.691 C 289.836 302.221 277.225 289.028 270.659 282.129 C 269.184 280.508 266.951 279.852 264.828 280.433 C 260.482 281.631 258.992 287.013 262.178 290.186 C 269.775 298.169 285.005 314.11 292.601 322.094 C 294.865 324.464 298.655 324.505 300.976 322.199 C 316.858 306.236 348.587 274.349 364.47 258.385 C 366.744 256.099 366.742 252.401 364.47 250.118 C 363.329 248.968 361.834 248.316 360.337 248.316 Z" fill="#000000" fill-rule="nonzero" opacity="1" style=""></path>
  <path d="M 360.337 248.316 C 358.839 248.316 357.344 248.968 356.202 250.118 C 341.386 265.006 312.371 294.191 296.947 309.691 C 289.836 302.221 277.225 289.028 270.659 282.129 C 269.184 280.508 266.951 279.852 264.828 280.433 C 260.482 281.631 258.992 287.013 262.178 290.186 C 269.775 298.169 285.005 314.11 292.601 322.094 C 294.865 324.464 298.655 324.505 300.976 322.199 C 316.858 306.236 348.587 274.349 364.47 258.385 C 366.744 256.099 366.742 252.401 364.47 250.118 C 363.329 248.968 361.834 248.316 360.337 248.316 Z" fill="none" opacity="1" stroke-linecap="butt" stroke-linejoin="round" stroke-width="4" style=""></path>
  <path style="fill: none; stroke-width: 5px; stroke: rgb(223, 227, 229);" d="M 120.571 148.114 H 1182.271 A 20 20 0 0 1 1202.271 168.114 V 600 H 100.571 V 168.114 A 20 20 0 0 1 120.571 148.114 Z" bx:shape="rect 100.571 148.114 1101.7 451.886 20 20 0 0 1@d1acb80c"></path>
</svg>
