<svg height="100%" stroke-miterlimit="10" style="fill-rule:nonzero;clip-rule:evenodd;stroke-linecap:round;stroke-linejoin:round;" version="1.1" viewBox="0 0 440 280" width="100%" xmlns="http://www.w3.org/2000/svg">
  <defs>
    <path d="M5.47118e-12 0L440 0L440 280L5.47118e-12 280L5.47118e-12 0Z" id="Fill"></path>
    <path d="M-20.6112 150.338C-20.6676 150.406-20.8639 150.473-21.3197 150.545C-22.7026 150.767-24.3911 151.27-26.5491 152.136C-30.9556 153.901-36.1457 156.728-40.9226 160.503C-47.482 165.645-55.554 172.539-64.5257 181.485C-87.1966 204.068-114.441 237.349-114.441 237.349L-116.946 240.41L-119.549 237.431C-119.549 237.431-125.392 230.74-139.405 216.384C-153.171 202.207-171.555 190.766-171.555 190.766L-172.137 190.404L-172.267 190.169C-172.797 189.207-173.115 189.112-174.073 189.636C-174.138 189.641-174.187 189.645-174.226 189.645C-174.194 190.339-174.138 190.725-173.083 191.673C-171.59 192.798-156.727 203.895-141.542 219.452C-126.36 235.082-118.074 247.536-118.074 247.536C-117.854 247.709-117.866 247.663-117.135 247.671C-116.403 247.68-116.265 247.781-115.839 247.14L-115.732 246.976C-112.23 242.638-82.802 206.343-60.406 184.016C-36.3113 159.996-20.5224 152.155-20.5224 152.155C-20.3961 151.943-20.4319 151.987-20.4319 151.255C-20.4319 150.751-20.4371 150.574-20.6112 150.338Z" id="Fill_2"></path>
    <path d="M-111.232 220.22C-110.999 220.155-110.767 220.089-110.535 220.024C-101.816 217.572-92.962 215.52-84.1064 213.714C-93.1976 215.569-102.287 217.681-111.232 220.22ZM-108.193 219.375C-106.251 217.072-104.109 214.552-101.783 211.858C-116.799 214.95-131.581 218.931-146.048 224.116C-181.844 236.946-240.353 264.73-288.713 273.2C-345.454 283.138-381.971 264.568-411.155 243.43C-427.924 231.285-441.657 215.554-453.997 199.041C-444.518 221.883-433.399 245.044-413.663 260.343C-371.531 293.001-327.878 298.548-266.518 283.072C-233.821 274.824-167.513 241.998-148.395 233.721C-138.41 229.397-128.27 225.434-117.878 222.197C-115.443 221.439-112.995 220.715-110.535 220.024C-109.756 219.803-108.975 219.588-108.193 219.375ZM-101.783 211.858C-100.964 211.689-100.145 211.523-99.325 211.361C-100.145 211.523-100.966 211.691-101.783 211.858ZM-111.232 220.22C-111.604 220.326-111.976 220.432-112.346 220.539C-111.976 220.432-111.604 220.326-111.232 220.22ZM-99.325 211.361C-98.1299 211.124-96.9348 210.89-95.738 210.663C-96.9348 210.89-98.1299 211.122-99.325 211.361ZM-95.738 210.663C-93.802 210.296-91.8642 209.944-89.9214 209.604C-91.8642 209.944-93.802 210.297-95.738 210.663ZM-13.3075 207.525C6.59418 210.88 25.3571 218.185 43.2988 227.264C25.9068 219.353 7.89512 212.952-11.0659 210.139C-33.2809 206.842-55.8186 208.464-77.8219 212.496C-76.2154 210.683-74.5935 208.867-72.9664 207.064C-53.1416 204.629-33.0794 204.19-13.3075 207.525Z" id="Fill_3"></path>
    <path d="M309.308 129.928C309.301 129.936 309.278 129.944 309.222 129.953C309.054 129.98 308.85 130.041 308.588 130.146C308.053 130.36 307.423 130.703 306.844 131.161C306.048 131.785 305.068 132.622 303.98 133.707C301.229 136.447 297.923 140.485 297.923 140.485L297.62 140.857L297.304 140.495C297.304 140.495 296.595 139.683 294.894 137.941C293.224 136.221 290.994 134.833 290.994 134.833L290.923 134.789L290.907 134.761C290.843 134.644 290.804 134.632 290.688 134.696C290.68 134.697 290.674 134.697 290.669 134.697C290.673 134.781 290.68 134.828 290.808 134.943C290.989 135.08 292.793 136.426 294.635 138.314C296.477 140.21 297.483 141.721 297.483 141.721C297.509 141.742 297.508 141.737 297.597 141.738C297.685 141.739 297.702 141.751 297.754 141.673L297.767 141.653C298.192 141.127 301.762 136.723 304.48 134.014C307.403 131.1 309.319 130.148 309.319 130.148C309.334 130.122 309.33 130.128 309.33 130.039C309.33 129.978 309.329 129.956 309.308 129.928Z" id="Fill_4"></path>
    <path d="M288 123.833L312 123.833L312 147.833L288 147.833L288 123.833Z" id="Fill_5"></path>
    <path d="M309.308 185.761C309.301 185.769 309.278 185.777 309.222 185.786C309.054 185.813 308.85 185.874 308.588 185.979C308.053 186.193 307.423 186.536 306.844 186.994C306.048 187.618 305.068 188.455 303.98 189.54C301.229 192.28 297.923 196.319 297.923 196.319L297.62 196.69L297.304 196.328C297.304 196.328 296.595 195.517 294.894 193.775C293.224 192.055 290.994 190.666 290.994 190.666L290.923 190.622L290.907 190.594C290.843 190.477 290.804 190.466 290.688 190.529C290.68 190.53 290.674 190.53 290.669 190.53C290.673 190.615 290.68 190.661 290.808 190.776C290.989 190.913 292.793 192.259 294.635 194.147C296.477 196.043 297.483 197.555 297.483 197.555C297.509 197.575 297.508 197.57 297.597 197.571C297.685 197.572 297.702 197.584 297.754 197.507L297.767 197.487C298.192 196.96 301.762 192.556 304.48 189.847C307.403 186.933 309.319 185.981 309.319 185.981C309.334 185.956 309.33 185.961 309.33 185.872C309.33 185.811 309.329 185.79 309.308 185.761Z" id="Fill_6"></path>
    <path d="M288 179.667L312 179.667L312 203.667L288 203.667L288 179.667Z" id="Fill_7"></path>
  </defs>
  <rect width="440" height="280" style="fill: rgb(0, 105, 97);"></rect>
  <path d="M 377.469 -22 C 377.426 -21.938 377.273 -21.877 376.908 -21.812 C 375.811 -21.61 374.469 -21.153 372.758 -20.367 C 369.259 -18.762 365.137 -16.194 361.346 -12.764 C 356.141 -8.091 349.733 -1.827 342.611 6.302 C 324.614 26.822 302.983 57.063 302.983 57.063 L 300.994 59.844 L 298.929 57.137 C 298.929 57.137 294.289 51.058 283.165 38.013 C 272.237 25.131 257.643 14.735 257.643 14.735 L 257.183 14.406 L 257.077 14.193 C 256.661 13.318 256.406 13.232 255.644 13.708 C 255.597 13.713 255.554 13.717 255.525 13.717 C 255.549 14.347 255.597 14.697 256.431 15.559 C 257.619 16.581 269.414 26.665 281.468 40.8 C 293.522 55.003 300.103 66.319 300.103 66.319 C 300.276 66.476 300.266 66.434 300.846 66.442 C 301.426 66.45 301.536 66.542 301.876 65.96 L 301.958 65.811 C 304.738 61.869 328.103 28.889 345.879 8.602 C 365.008 -13.224 377.541 -20.349 377.541 -20.349 C 377.642 -20.542 377.613 -20.502 377.613 -21.167 C 377.613 -21.625 377.608 -21.786 377.469 -22 Z" fill-rule="nonzero" opacity="1" stroke="none" style="fill: rgb(255, 255, 255); fill-opacity: 0.25;"></path>
  <path d="M 305.533 41.498 C 305.715 41.439 305.902 41.379 306.084 41.32 C 313.005 39.092 320.037 37.228 327.067 35.587 C 319.849 37.272 312.631 39.191 305.533 41.498 Z M 307.944 40.731 C 309.487 38.638 311.189 36.348 313.034 33.9 C 301.114 36.71 289.377 40.327 277.893 45.039 C 249.476 56.696 203.03 81.942 164.639 89.639 C 119.595 98.669 90.606 81.796 67.439 62.588 C 54.126 51.552 43.224 37.259 33.428 22.254 C 40.953 43.009 49.78 64.055 65.448 77.956 C 98.894 107.631 133.548 112.672 182.258 98.609 C 208.215 91.114 260.854 61.287 276.028 53.766 C 283.956 49.837 292.008 46.236 300.256 43.295 C 302.188 42.606 304.134 41.948 306.084 41.32 C 306.703 41.119 307.326 40.924 307.944 40.731 Z M 313.034 33.9 C 313.681 33.747 314.333 33.596 314.985 33.449 C 314.333 33.596 313.681 33.748 313.034 33.9 Z M 305.533 41.498 C 305.236 41.594 304.944 41.691 304.647 41.788 C 304.944 41.691 305.236 41.594 305.533 41.498 Z M 314.985 33.449 C 315.934 33.233 316.883 33.021 317.832 32.814 C 316.883 33.021 315.934 33.232 314.985 33.449 Z M 317.832 32.814 C 319.37 32.481 320.909 32.161 322.447 31.852 C 320.909 32.161 319.37 32.482 317.832 32.814 Z M 383.269 29.963 C 399.071 33.011 413.962 39.649 428.206 47.899 C 414.398 40.711 400.101 34.894 385.047 32.338 C 367.414 29.342 349.522 30.817 332.057 34.48 C 333.332 32.833 334.616 31.182 335.91 29.544 C 351.645 27.332 367.572 26.933 383.269 29.963 Z" fill-rule="nonzero" opacity="1" stroke="none" style="fill: rgb(255, 255, 255); fill-opacity: 0.25;"></path>
  <path d="M 42.206 84.818 C 42.206 81.193 45.145 78.254 48.77 78.254 L 269.045 78.254 C 272.671 78.254 275.609 81.193 275.609 84.818 L 275.609 87.006 C 275.609 90.632 272.671 93.571 269.045 93.571 L 48.77 93.571 C 45.145 93.571 42.206 90.632 42.206 87.006 L 42.206 84.818 Z" fill-rule="nonzero" opacity="1" style="fill: rgb(255, 255, 255); paint-order: stroke; stroke-width: 15px; stroke: rgb(0, 105, 97);"></path>
  <path d="M 116.206 128.582 C 116.206 124.957 119.145 122.018 122.77 122.018 L 212.155 122.018 C 215.781 122.018 218.72 124.957 218.72 128.582 L 218.72 130.771 C 218.72 134.396 215.781 137.335 212.155 137.335 L 122.77 137.335 C 119.145 137.335 116.206 134.396 116.206 130.771 L 116.206 128.582 Z" fill-rule="nonzero" opacity="1" style="fill: rgb(255, 255, 255); paint-order: stroke; stroke-width: 15px; stroke: rgb(0, 105, 97);"></path>
  <path d="M 116.206 172.347 C 116.206 168.721 119.145 165.782 122.77 165.782 L 192.463 165.782 C 196.088 165.782 199.027 168.721 199.027 172.347 L 199.027 174.535 C 199.027 178.16 196.088 181.099 192.463 181.099 L 122.77 181.099 C 119.145 181.099 116.206 178.16 116.206 174.535 L 116.206 172.347 Z" fill-rule="nonzero" opacity="1" style="fill: rgb(255, 255, 255); paint-order: stroke; stroke-width: 15px; stroke: rgb(0, 105, 97);"></path>
  <path d="M 347.063 70.433 C 342.952 70.433 338.779 71.921 335.646 75.054 C 330.117 80.579 319.021 91.682 313.492 97.209 C 292.037 117.693 249.287 158.575 227.868 179.027 C 225.851 180.929 224.312 183.307 223.518 185.959 C 220.197 196.871 213.656 218.675 210.335 229.587 C 210.331 229.598 210.201 229.574 210.199 229.587 C 210.188 229.622 210.199 230.13 210.199 230.13 C 208.742 236.241 214.4 241.578 220.391 239.779 C 220.396 239.779 232.31 235.981 244.449 232.033 C 250.519 230.06 256.722 228.084 261.437 226.46 C 263.796 225.648 265.789 224.85 267.282 224.285 C 268.028 224.003 268.693 223.821 269.185 223.607 C 269.575 223.436 270.24 223.084 270.271 223.062 C 271.435 222.334 271.623 220.662 270.68 219.664 C 270.678 219.662 262.571 211.017 262.525 210.967 C 261.943 210.349 261.017 210.155 260.214 210.424 C 260.135 210.45 258.12 211.188 254.912 212.19 C 251.731 213.185 247.447 214.421 243.226 215.723 C 236.758 217.717 232.979 218.848 230.314 219.664 C 232.984 210.881 236.944 197.969 239.147 190.716 C 259.179 171.594 298.335 134.121 319.065 114.333 C 324.721 119.986 333.606 128.879 339.315 134.583 C 329.346 144.092 311.715 160.978 302.483 169.785 C 301.615 170.612 301.521 172.041 302.348 172.912 C 304.398 175.071 308.586 179.314 310.638 181.473 C 311.465 182.347 312.759 182.441 313.627 181.609 C 324.362 171.362 345.842 150.812 356.577 140.563 C 356.608 140.535 356.682 140.458 356.713 140.427 C 362.253 134.889 373.324 123.813 378.867 118.273 C 385.133 111.993 385.136 101.845 378.867 95.576 C 373.734 90.445 363.476 80.185 358.343 75.054 C 355.207 71.919 351.172 70.433 347.063 70.433 Z M 347.063 86.743 C 352.192 91.872 362.183 101.863 367.314 106.994 C 363.185 111.114 355.717 118.599 351.004 123.304 C 345.332 117.628 336.451 108.753 330.753 103.053 C 335.458 98.346 342.919 90.885 347.063 86.743 Z" mask="url(#mask-4)" stroke-linecap="butt" stroke-linejoin="round" opacity="1" style="fill: rgb(255, 255, 255); paint-order: stroke; stroke-width: 15px; stroke: rgb(0, 105, 97);"></path>
  <path d="M 402.515 143.146 C 400.594 143.146 398.678 143.984 397.214 145.457 C 378.217 164.547 341.016 201.966 321.239 221.839 C 312.121 212.262 295.953 195.346 287.533 186.502 C 285.643 184.423 282.78 183.582 280.058 184.328 C 274.485 185.863 272.574 192.763 276.66 196.832 C 286.4 207.067 305.927 227.506 315.667 237.742 C 318.569 240.781 323.43 240.834 326.404 237.878 C 346.768 217.409 387.451 176.526 407.815 156.058 C 410.729 153.127 410.727 148.385 407.815 145.457 C 406.351 143.984 404.434 143.146 402.515 143.146 Z" mask="url(#mask-5)" stroke-linecap="butt" stroke-linejoin="round" opacity="1" style="fill: rgb(255, 255, 255); paint-order: stroke; stroke-width: 15px; stroke: rgb(0, 105, 97);"></path>
  <path d="M 402.515 133.146 C 400.594 133.146 398.678 133.984 397.214 135.457 C 378.217 154.547 341.016 191.966 321.239 211.839 C 312.121 202.262 295.953 185.346 287.533 176.502 C 285.643 174.423 282.78 173.582 280.058 174.328 C 274.485 175.863 272.574 182.763 276.66 186.832 C 286.4 197.067 305.927 217.506 315.667 227.742 C 318.569 230.781 323.43 230.834 326.404 227.878 C 346.768 207.409 387.451 166.526 407.815 146.058 C 410.729 143.127 410.727 138.385 407.815 135.457 C 406.351 133.984 404.434 133.146 402.515 133.146 Z" fill-rule="nonzero" opacity="1" style="fill: rgb(255, 255, 255); paint-order: stroke; stroke-width: 15px; stroke: rgb(0, 105, 97);"></path>
  <path d="M 347.063 60.433 C 342.953 60.433 338.78 61.92 335.646 65.054 C 330.117 70.58 319.021 81.682 313.492 87.208 C 292.037 107.693 249.287 148.576 227.867 169.027 C 225.852 170.929 224.312 173.307 223.518 175.959 C 220.197 186.87 213.656 208.675 210.335 219.587 C 210.331 219.598 210.202 219.574 210.199 219.587 C 210.189 219.622 210.199 220.13 210.199 220.13 C 208.742 226.241 214.4 231.578 220.392 229.779 C 220.396 229.779 232.31 225.981 244.449 222.033 C 250.519 220.06 256.723 218.083 261.438 216.46 C 263.796 215.649 265.791 214.851 267.282 214.286 C 268.029 214.003 268.693 213.821 269.185 213.606 C 269.576 213.435 270.24 213.083 270.272 213.063 C 271.435 212.333 271.624 210.661 270.68 209.665 C 270.677 209.662 262.572 201.016 262.525 200.967 C 261.944 200.35 261.018 200.154 260.215 200.423 C 260.135 200.449 258.12 201.188 254.914 202.19 C 251.731 203.184 247.447 204.422 243.226 205.723 C 236.758 207.717 232.98 208.848 230.314 209.665 C 232.983 200.881 236.944 187.968 239.148 180.715 C 259.179 161.594 298.335 124.121 319.065 104.333 C 324.722 109.987 333.608 118.879 339.316 124.584 C 329.347 134.093 311.716 150.978 302.483 159.785 C 301.616 160.613 301.521 162.042 302.347 162.911 C 304.399 165.07 308.586 169.314 310.638 171.473 C 311.467 172.345 312.758 172.44 313.628 171.609 C 324.362 161.362 345.842 140.812 356.576 130.564 C 356.608 130.536 356.682 130.458 356.712 130.428 C 362.254 124.89 373.324 113.813 378.867 108.274 C 385.133 101.994 385.136 91.846 378.867 85.577 C 373.734 80.445 363.476 70.185 358.343 65.054 C 355.208 61.919 351.173 60.433 347.063 60.433 Z M 347.063 76.742 C 352.193 81.873 362.183 91.863 367.314 96.993 C 363.185 101.115 355.718 108.599 351.004 113.303 C 345.332 107.628 336.451 98.753 330.753 93.052 C 335.458 88.347 342.92 80.885 347.063 76.742 Z" fill-rule="nonzero" opacity="1" style="fill: rgb(255, 255, 255); paint-order: stroke; stroke-width: 15px; stroke: rgb(0, 105, 97);"></path>
  <mask height="81.5569" id="mask-4" maskUnits="userSpaceOnUse" width="83.3394" x="28" y="25.4429" opacity="1">
    <rect fill="#ffffff" height="81.557" stroke="none" width="83.339" x="28" y="23.376"></rect>
    <path d="M 92.656 25.376 C 90.777 25.376 88.87 26.056 87.438 27.488 C 84.911 30.013 79.84 35.087 77.313 37.613 C 67.508 46.975 47.97 65.659 38.181 75.006 C 37.26 75.875 36.556 76.962 36.193 78.174 C 34.675 83.161 31.686 93.126 30.168 98.113 C 30.166 98.118 30.108 98.107 30.106 98.113 C 30.101 98.129 30.106 98.361 30.106 98.361 C 29.44 101.154 32.026 103.593 34.765 102.771 C 34.766 102.771 40.211 101.035 45.759 99.231 C 48.533 98.329 51.368 97.426 53.523 96.684 C 54.601 96.313 55.513 95.948 56.194 95.69 C 56.536 95.561 56.839 95.478 57.064 95.38 C 57.242 95.302 57.546 95.141 57.561 95.131 C 58.092 94.798 58.179 94.034 57.747 93.578 C 57.746 93.577 54.041 89.626 54.02 89.603 C 53.755 89.321 53.331 89.232 52.964 89.355 C 52.928 89.367 52.007 89.704 50.542 90.162 C 49.087 90.617 47.129 91.182 45.2 91.777 C 42.244 92.688 40.518 93.205 39.299 93.578 C 40.519 89.564 42.329 83.663 43.336 80.348 C 52.491 71.609 70.386 54.483 79.86 45.439 C 82.445 48.023 86.507 52.087 89.115 54.694 C 84.559 59.04 76.501 66.757 72.282 70.782 C 71.885 71.16 71.842 71.813 72.22 72.211 C 73.158 73.198 75.071 75.137 76.009 76.124 C 76.388 76.523 76.978 76.566 77.375 76.186 C 82.281 71.503 92.098 62.111 97.004 57.427 C 97.018 57.414 97.052 57.379 97.066 57.365 C 99.599 54.834 104.658 49.772 107.191 47.24 C 110.055 44.37 110.056 39.732 107.191 36.867 C 104.845 34.522 100.157 29.833 97.811 27.488 C 96.379 26.055 94.534 25.376 92.656 25.376 Z M 92.656 32.83 C 95 35.174 99.566 39.74 101.911 42.085 C 100.024 43.968 96.611 47.389 94.457 49.539 C 91.865 46.945 87.806 42.889 85.202 40.284 C 87.352 38.133 90.763 34.723 92.656 32.83 Z" fill="#000000" fill-rule="evenodd" stroke="none"></path>
  </mask>
  <mask height="48.2913" id="mask-5" maskUnits="userSpaceOnUse" width="65.9408" x="57.4788" y="58.6745" opacity="1">
    <rect fill="#ffffff" height="48.291" stroke="none" width="65.941" x="57.479" y="56.607"></rect>
    <path d="M 117.999 58.607 C 117.121 58.607 116.245 58.99 115.576 59.663 C 106.894 68.388 89.892 85.49 80.854 94.572 C 76.687 90.195 69.297 82.464 65.449 78.422 C 64.585 77.472 63.277 77.088 62.033 77.428 C 59.486 78.13 58.613 81.283 60.48 83.143 C 64.932 87.821 73.856 97.162 78.307 101.84 C 79.634 103.229 81.855 103.253 83.214 101.902 C 92.521 92.547 111.114 73.863 120.421 64.508 C 121.753 63.169 121.752 61.002 120.421 59.663 C 119.752 58.99 118.876 58.607 117.999 58.607 Z" fill="#000000" fill-rule="evenodd" stroke="none"></path>
  </mask>
  <clipPath id="ArtboardFrame">
    <rect height="280" width="440" y="-178.929" x="-238.166"></rect>
  </clipPath>
  <clipPath id="clip-1">
    <rect height="280" width="440" y="6.508" x="-238.166"></rect>
  </clipPath>
  <path d="M 49.522 118.696 C 43.999 118.695 39.522 123.173 39.522 128.696 L 39.522 154.696 C 39.522 160.218 43.999 164.696 49.522 164.696 L 75.522 164.696 C 81.044 164.695 85.522 160.218 85.522 154.696 L 85.522 128.696 C 85.522 123.173 81.044 118.696 75.522 118.696 L 49.522 118.696 Z M 49.522 125.696 C 56.022 125.695 69.021 125.696 75.522 125.696 C 77.18 125.695 78.522 127.044 78.522 128.696 C 78.522 135.195 78.522 148.195 78.522 154.696 C 78.522 156.354 77.173 157.696 75.522 157.696 C 69.021 157.695 56.022 157.696 49.522 157.696 C 47.863 157.696 46.522 156.347 46.522 154.696 C 46.522 148.195 46.522 135.196 46.522 128.696 C 46.521 127.037 47.87 125.696 49.522 125.696 Z M 71.334 134.446 C 70.799 134.392 70.24 134.557 69.803 134.946 C 69.69 135.046 70.288 134.611 70.334 134.602 C 70.116 134.661 69.89 134.704 69.678 134.789 C 68.965 135.074 68.178 135.508 67.428 136.102 C 66.578 136.769 65.539 137.65 64.396 138.789 C 62.085 141.091 60.325 143.266 59.396 144.383 C 59.004 143.959 59.012 143.926 58.178 143.07 C 56.488 141.33 54.675 140.146 54.209 139.852 C 54.152 139.816 53.903 139.637 53.896 139.633 C 53.886 139.626 53.85 139.643 53.834 139.633 C 53.654 139.495 53.512 139.348 53.209 139.258 C 52.862 139.154 52.644 139.195 52.396 139.227 C 51.305 139.284 50.438 140.184 50.49 141.289 C 50.493 141.341 50.531 141.776 50.74 142.196 C 50.94 142.597 51.163 142.82 51.303 142.946 C 51.344 142.983 51.383 143.005 51.428 143.039 C 51.587 143.159 53.305 144.472 55.022 146.227 C 56.748 148.004 57.646 149.352 57.646 149.352 C 57.764 149.529 57.917 149.658 58.084 149.789 C 58.084 149.789 58.272 149.93 58.615 150.102 C 58.615 150.102 59.017 150.228 59.334 150.258 L 59.396 150.258 C 59.396 150.258 59.667 150.236 60.334 150.07 C 60.334 150.07 60.788 149.787 61.053 149.539 L 61.146 149.414 C 61.175 149.379 61.214 149.358 61.24 149.32 C 61.25 149.306 61.262 149.273 61.272 149.258 C 61.791 148.617 65.201 144.476 67.74 141.946 C 70.507 139.187 72.053 138.445 72.053 138.446 C 72.407 138.27 72.7 138.007 72.896 137.664 C 72.896 137.664 72.97 137.493 73.084 137.196 C 73.084 137.196 73.163 136.885 73.178 136.633 L 73.178 136.539 C 73.178 136.539 73.166 135.794 72.74 135.227 C 72.389 134.759 71.869 134.499 71.334 134.446 Z" fill-opacity="0.75" fill-rule="nonzero" opacity="1" clip-path="url(#clip-1)" style="fill: rgb(255, 255, 255); stroke: rgb(0, 105, 97); paint-order: stroke; stroke-width: 15px;"></path>
  <clipPath id="clip-2">
    <rect height="280" width="440" y="71.945" x="-238.166"></rect>
  </clipPath>
  <path d="M 49.522 184.133 C 43.999 184.132 39.522 188.61 39.522 194.133 L 39.522 220.133 C 39.522 225.655 43.999 230.133 49.522 230.133 L 75.522 230.133 C 81.044 230.132 85.522 225.655 85.522 220.133 L 85.522 194.133 C 85.522 188.61 81.044 184.133 75.522 184.133 L 49.522 184.133 Z M 49.522 191.133 C 56.022 191.132 69.021 191.133 75.522 191.133 C 77.18 191.132 78.522 192.481 78.522 194.133 C 78.522 200.632 78.522 213.632 78.522 220.133 C 78.522 221.791 77.173 223.133 75.522 223.133 C 69.021 223.132 56.022 223.133 49.522 223.133 C 47.863 223.133 46.522 221.784 46.522 220.133 C 46.522 213.632 46.522 200.633 46.522 194.133 C 46.521 192.474 47.87 191.133 49.522 191.133 Z M 71.334 199.883 C 70.799 199.829 70.24 199.994 69.803 200.383 C 69.69 200.483 70.288 200.048 70.334 200.039 C 70.116 200.098 69.89 200.141 69.678 200.226 C 68.965 200.511 68.178 200.945 67.428 201.539 C 66.578 202.206 65.539 203.087 64.396 204.226 C 62.085 206.528 60.325 208.703 59.396 209.82 C 59.004 209.396 59.012 209.363 58.178 208.507 C 56.488 206.767 54.675 205.583 54.209 205.289 C 54.152 205.253 53.903 205.074 53.896 205.07 C 53.886 205.063 53.85 205.08 53.834 205.07 C 53.654 204.932 53.512 204.785 53.209 204.695 C 52.862 204.591 52.644 204.632 52.396 204.664 C 51.305 204.721 50.438 205.621 50.49 206.726 C 50.493 206.778 50.531 207.213 50.74 207.633 C 50.94 208.034 51.163 208.257 51.303 208.383 C 51.344 208.42 51.383 208.442 51.428 208.476 C 51.587 208.596 53.305 209.909 55.022 211.664 C 56.748 213.441 57.646 214.789 57.646 214.789 C 57.764 214.966 57.917 215.095 58.084 215.226 C 58.084 215.226 58.272 215.367 58.615 215.539 C 58.615 215.539 59.017 215.665 59.334 215.695 L 59.396 215.695 C 59.396 215.695 59.667 215.673 60.334 215.507 C 60.334 215.507 60.788 215.224 61.053 214.976 L 61.146 214.851 C 61.175 214.816 61.214 214.795 61.24 214.757 C 61.25 214.743 61.262 214.71 61.272 214.695 C 61.791 214.054 65.201 209.913 67.74 207.383 C 70.507 204.624 72.053 203.882 72.053 203.883 C 72.407 203.707 72.7 203.444 72.896 203.101 C 72.896 203.101 72.97 202.93 73.084 202.633 C 73.084 202.633 73.163 202.322 73.178 202.07 L 73.178 201.976 C 73.178 201.976 73.166 201.231 72.74 200.664 C 72.389 200.196 71.869 199.936 71.334 199.883 Z" fill-opacity="0.75" fill-rule="nonzero" opacity="1" clip-path="url(#clip-2)" style="fill: rgb(255, 255, 255); stroke: rgb(0, 105, 97); paint-order: stroke; stroke-width: 15px;"></path>
  <path d="M 116.206 216.859 C 116.206 213.233 119.145 210.294 122.77 210.294 L 162.463 210.294 C 166.088 210.294 169.027 213.233 169.027 216.859 L 169.027 219.047 C 169.027 222.672 166.088 225.611 162.463 225.611 L 122.77 225.611 C 119.145 225.611 116.206 222.672 116.206 219.047 L 116.206 216.859 Z" fill-rule="nonzero" opacity="1" style="fill: rgb(255, 255, 255); paint-order: stroke; stroke-width: 15px; stroke: rgb(0, 105, 97);"></path>
</svg>
