<?xml version="1.0" encoding="UTF-8" standalone="no"?>
<!DOCTYPE svg PUBLIC "-//W3C//DTD SVG 1.1//EN" "http://www.w3.org/Graphics/SVG/1.1/DTD/svg11.dtd">
<!-- Created with Vectornator (http://vectornator.io/) -->
<svg height="100%" stroke-miterlimit="10" style="fill-rule:nonzero;clip-rule:evenodd;stroke-linecap:round;stroke-linejoin:round;" version="1.1" viewBox="0 0 440 280" width="100%" xml:space="preserve" xmlns="http://www.w3.org/2000/svg" xmlns:vectornator="http://vectornator.io" xmlns:xlink="http://www.w3.org/1999/xlink">
<defs/>
<clipPath id="ArtboardFrame">
<rect height="280" width="440" x="0" y="0"/>
</clipPath>
<g clip-path="url(#ArtboardFrame)" id="Layer-1" vectornator:layerName="Layer 1">
<g opacity="1" vectornator:layerName="path 1">
<path d="M-20.6112 150.338C-20.6676 150.406-20.8639 150.473-21.3197 150.545C-22.7026 150.767-24.3911 151.27-26.5491 152.136C-30.9556 153.901-36.1457 156.728-40.9226 160.503C-47.482 165.645-55.554 172.539-64.5257 181.485C-87.1966 204.068-114.441 237.349-114.441 237.349L-116.946 240.41L-119.549 237.431C-119.549 237.431-125.392 230.74-139.405 216.384C-153.171 202.207-171.555 190.766-171.555 190.766L-172.137 190.404L-172.267 190.169C-172.797 189.207-173.115 189.112-174.073 189.636C-174.138 189.641-174.187 189.645-174.226 189.645C-174.194 190.339-174.138 190.725-173.083 191.673C-171.59 192.798-156.727 203.895-141.542 219.452C-126.36 235.082-118.074 247.536-118.074 247.536C-117.854 247.709-117.866 247.663-117.135 247.671C-116.403 247.68-116.265 247.781-115.839 247.14L-115.732 246.976C-112.23 242.638-82.802 206.343-60.406 184.016C-36.3113 159.996-20.5224 152.155-20.5224 152.155C-20.3961 151.943-20.4319 151.987-20.4319 151.255C-20.4319 150.751-20.4371 150.574-20.6112 150.338Z" fill="#ffffff" fill-rule="nonzero" opacity="1" stroke="none" vectornator:layerName="path"/>
<g opacity="1" vectornator:layerName="use">
<clipPath clip-rule="nonzero" id="ClipPath">
<path d="M-175.219 149.344L-175.219 248.688L-19.4375 248.688L-19.4375 149.344L-175.219 149.344ZM-20.625 150.344C-20.4509 150.58-20.4375 150.746-20.4375 151.25C-20.4375 151.982-20.405 151.944-20.5312 152.156C-20.5312 152.156-36.3115 160.011-60.4062 184.031C-82.8023 206.358-112.217 242.631-115.719 246.969L-115.844 247.125C-116.27 247.766-116.393 247.665-117.125 247.656C-117.856 247.648-117.842 247.704-118.062 247.531C-118.062 247.531-126.349 235.068-141.531 219.438C-156.716 203.881-171.601 192.813-173.094 191.688C-174.149 190.74-174.187 190.35-174.219 189.656C-174.18 189.656-174.127 189.63-174.062 189.625C-173.105 189.101-172.811 189.194-172.281 190.156L-172.125 190.406L-171.562 190.781C-171.563 190.781-153.172 202.198-139.406 216.375C-125.393 230.731-119.562 237.438-119.562 237.438L-116.938 240.406L-114.438 237.344C-114.438 237.344-87.2022 204.083-64.5312 181.5C-55.5595 172.554-47.4969 165.642-40.9375 160.5C-36.1606 156.725-30.969 153.89-26.5625 152.125C-24.4045 151.259-22.6954 150.753-21.3125 150.531C-20.8567 150.459-20.6814 150.412-20.625 150.344Z"/>
</clipPath>
<g clip-path="url(#ClipPath)">
<path d="M-20.6112 150.338C-20.6676 150.406-20.8639 150.473-21.3197 150.545C-22.7026 150.767-24.3911 151.27-26.5491 152.136C-30.9556 153.901-36.1457 156.728-40.9226 160.503C-47.482 165.645-55.554 172.539-64.5257 181.485C-87.1966 204.068-114.441 237.349-114.441 237.349L-116.946 240.41L-119.549 237.431C-119.549 237.431-125.392 230.74-139.405 216.384C-153.171 202.207-171.555 190.766-171.555 190.766L-172.137 190.404L-172.267 190.169C-172.797 189.207-173.115 189.112-174.073 189.636C-174.138 189.641-174.187 189.645-174.226 189.645C-174.194 190.339-174.138 190.725-173.083 191.673C-171.59 192.798-156.727 203.895-141.542 219.452C-126.36 235.082-118.074 247.536-118.074 247.536C-117.854 247.709-117.866 247.663-117.135 247.671C-116.403 247.68-116.265 247.781-115.839 247.14L-115.732 246.976C-112.23 242.638-82.802 206.343-60.406 184.016C-36.3113 159.996-20.5224 152.155-20.5224 152.155C-20.3961 151.943-20.4319 151.987-20.4319 151.255C-20.4319 150.751-20.4371 150.574-20.6112 150.338Z" fill="none" opacity="1" stroke="#ffffff" stroke-linecap="butt" stroke-linejoin="round" stroke-width="2" vectornator:layerName="path"/>
</g>
</g>
</g>
<g opacity="1" vectornator:layerName="path 2">
<path d="M-111.232 220.22C-110.999 220.155-110.767 220.089-110.535 220.024C-101.816 217.572-92.962 215.52-84.1064 213.714C-93.1976 215.569-102.287 217.681-111.232 220.22ZM-108.193 219.375C-106.251 217.072-104.109 214.552-101.783 211.858C-116.799 214.95-131.581 218.931-146.048 224.116C-181.844 236.946-240.353 264.73-288.713 273.2C-345.454 283.138-381.971 264.568-411.155 243.43C-427.924 231.285-441.657 215.554-453.997 199.041C-444.518 221.883-433.399 245.044-413.663 260.343C-371.531 293.001-327.878 298.548-266.518 283.072C-233.821 274.824-167.513 241.998-148.395 233.721C-138.41 229.397-128.27 225.434-117.878 222.197C-115.443 221.439-112.995 220.715-110.535 220.024C-109.756 219.803-108.975 219.588-108.193 219.375ZM-101.783 211.858C-100.964 211.689-100.145 211.523-99.325 211.361C-100.145 211.523-100.966 211.691-101.783 211.858ZM-111.232 220.22C-111.604 220.326-111.976 220.432-112.346 220.539C-111.976 220.432-111.604 220.326-111.232 220.22ZM-99.325 211.361C-98.1299 211.124-96.9348 210.89-95.738 210.663C-96.9348 210.89-98.1299 211.122-99.325 211.361ZM-95.738 210.663C-93.802 210.296-91.8642 209.944-89.9214 209.604C-91.8642 209.944-93.802 210.297-95.738 210.663ZM-13.3075 207.525C6.59418 210.88 25.3571 218.185 43.2988 227.264C25.9068 219.353 7.89512 212.952-11.0659 210.139C-33.2809 206.842-55.8186 208.464-77.8219 212.496C-76.2154 210.683-74.5935 208.867-72.9664 207.064C-53.1416 204.629-33.0794 204.19-13.3075 207.525Z" fill="#ffffff" fill-rule="nonzero" opacity="1" stroke="none" vectornator:layerName="path"/>
<g opacity="1" vectornator:layerName="use">
<clipPath clip-rule="nonzero" id="ClipPath_2">
<path d="M-455 198.031L-455 292.344L44.3125 292.344L44.3125 198.031L-455 198.031ZM-454 199.031C-441.66 215.544-427.925 231.292-411.156 243.438C-381.972 264.575-345.46 283.126-288.719 273.188C-240.359 264.717-181.859 236.955-146.062 224.125C-131.596 218.94-116.797 214.936-101.781 211.844C-104.107 214.538-106.245 217.072-108.188 219.375C-108.969 219.588-109.752 219.81-110.531 220.031C-110.626 220.058-110.717 220.098-110.812 220.125C-110.948 220.163-111.083 220.181-111.219 220.219C-113.448 220.851-115.667 221.5-117.875 222.188C-128.267 225.425-138.421 229.395-148.406 233.719C-167.524 241.996-233.834 274.814-266.531 283.062C-327.891 298.538-371.524 293.002-413.656 260.344C-433.392 245.045-444.521 221.873-454 199.031ZM-43.125 205.125C-33.1599 205.128-23.1985 205.864-13.3125 207.531C6.58918 210.886 25.3708 218.171 43.3125 227.25C25.9205 219.339 7.89852 212.938-11.0625 210.125C-33.2775 206.828-55.8092 208.468-77.8125 212.5C-76.206 210.687-74.5959 208.865-72.9688 207.062C-63.0563 205.845-53.0901 205.122-43.125 205.125Z"/>
</clipPath>
<g clip-path="url(#ClipPath_2)">
<path d="M-111.232 220.22C-110.999 220.155-110.767 220.089-110.535 220.024C-101.816 217.572-92.962 215.52-84.1064 213.714C-93.1976 215.569-102.287 217.681-111.232 220.22ZM-108.193 219.375C-106.251 217.072-104.109 214.552-101.783 211.858C-116.799 214.95-131.581 218.931-146.048 224.116C-181.844 236.946-240.353 264.73-288.713 273.2C-345.454 283.138-381.971 264.568-411.155 243.43C-427.924 231.285-441.657 215.554-453.997 199.041C-444.518 221.883-433.399 245.044-413.663 260.343C-371.531 293.001-327.878 298.548-266.518 283.072C-233.821 274.824-167.513 241.998-148.395 233.721C-138.41 229.397-128.27 225.434-117.878 222.197C-115.443 221.439-112.995 220.715-110.535 220.024C-109.756 219.803-108.975 219.588-108.193 219.375ZM-101.783 211.858C-100.964 211.689-100.145 211.523-99.325 211.361C-100.145 211.523-100.966 211.691-101.783 211.858ZM-111.232 220.22C-111.604 220.326-111.976 220.432-112.346 220.539C-111.976 220.432-111.604 220.326-111.232 220.22ZM-99.325 211.361C-98.1299 211.124-96.9348 210.89-95.738 210.663C-96.9348 210.89-98.1299 211.122-99.325 211.361ZM-95.738 210.663C-93.802 210.296-91.8642 209.944-89.9214 209.604C-91.8642 209.944-93.802 210.297-95.738 210.663ZM-13.3075 207.525C6.59418 210.88 25.3571 218.185 43.2988 227.264C25.9068 219.353 7.89512 212.952-11.0659 210.139C-33.2809 206.842-55.8186 208.464-77.8219 212.496C-76.2154 210.683-74.5935 208.867-72.9664 207.064C-53.1416 204.629-33.0794 204.19-13.3075 207.525Z" fill="none" opacity="1" stroke="#ffffff" stroke-linecap="butt" stroke-linejoin="round" stroke-width="2" vectornator:layerName="path"/>
</g>
</g>
</g>
<path d="M433.375-28C433.319-27.9317 433.143-27.853 432.688-27.7812C431.305-27.5593 429.595-27.0531 427.438-26.1875C423.031-24.4222 417.839-21.6185 413.062-17.8438C406.503-12.7014 398.44-5.78986 389.469 3.15625C366.798 25.7383 339.562 59 339.562 59L337.062 62.0625L334.438 59.0938C334.438 59.0938 330.384 54.6519 324.125 48.0312C328.101 46.5722 332.078 45.1355 336.125 43.875C338.333 43.1874 340.552 42.5076 342.781 41.875C342.929 41.8336 343.07 41.7919 343.219 41.75C343.301 41.7267 343.386 41.7107 343.469 41.6875C344.247 41.4673 345.031 41.2447 345.812 41.0312C347.754 38.7281 349.893 36.2253 352.219 33.5312C340.894 35.8631 329.743 38.8965 318.719 42.375C317.112 40.707 316.495 40.0103 314.594 38.0625C300.828 23.8853 282.438 12.4375 282.438 12.4375L281.875 12.0625L281.719 11.8438C281.188 10.8826 280.895 10.7884 279.938 11.3125C279.873 11.3176 279.82 11.3125 279.781 11.3125C279.814 12.0074 279.851 12.3962 280.906 13.3438C282.398 14.4688 297.284 25.5683 312.469 41.125C313.337 42.019 313.958 42.7535 314.781 43.625C312.509 44.3764 310.194 44.9724 307.938 45.7812C286.7 53.3933 257.425 66.2329 227.062 77.2188C228.947 81.0786 230.027 85.181 230.312 89.375C246.498 82.5645 263.22 74.8454 277.562 68.1875C279.681 66.4024 282.26 65.1937 285.125 64.75C291.595 61.7475 301.968 56.9449 305.594 55.375C310.39 53.298 315.247 51.3385 320.125 49.4688C326.007 56.0931 329.859 60.985 332.5 64.5C335.818 64.5 338.287 64.5 341.688 64.5C348.655 55.9319 373.066 26.152 393.594 5.6875C417.688-18.3321 433.469-26.1875 433.469-26.1875C433.595-26.3992 433.563-26.3613 433.562-27.0938C433.562-27.5974 433.549-27.7644 433.375-28ZM0 20.7188C9.47878 43.5604 20.6077 66.7011 40.3438 82C56.8273 94.7771 73.554 103.342 91.4688 108.188C96.8101 103.082 100.673 99.3839 105.75 94.5312C80.3934 89.2512 60.2498 77.7008 42.8438 65.0938C26.0749 52.9482 12.3402 37.2315 0 20.7188ZM410.875 26.7812C400.91 26.7785 390.944 27.5015 381.031 28.7188C379.404 30.5216 377.794 32.3431 376.188 34.1562C398.191 30.1237 420.723 28.5158 442.938 31.8125C461.898 34.6261 479.889 41.026 497.281 48.9375C479.339 39.8582 460.589 32.5423 440.688 29.1875C430.802 27.5203 420.84 26.784 410.875 26.7812Z" fill="#dfe3e5" fill-rule="nonzero" opacity="0.75" stroke="none" vectornator:layerName="Curve 3"/>
<path d="M177.062 55.1562C172.953 55.1565 168.79 56.6478 165.656 59.7812C160.128 65.3064 149.028 76.4124 143.5 81.9375C122.048 102.42 79.3224 143.302 57.9062 163.75C55.891 165.652 54.3564 168.005 53.5625 170.656C50.2419 181.566 43.6955 203.371 40.375 214.281C40.3713 214.293 40.2221 214.269 40.2188 214.281C40.2083 214.317 40.2187 214.844 40.2188 214.844C38.7625 220.953 44.4463 226.266 50.4375 224.469C50.441 224.468 62.332 220.697 74.4688 216.75C80.538 214.776 86.7546 212.778 91.4688 211.156C93.8271 210.344 95.8216 209.565 97.3125 209C98.0597 208.717 98.7272 208.527 99.2188 208.312C99.6096 208.141 100.249 207.802 100.281 207.781C101.444 207.052 101.631 205.371 100.688 204.375C100.685 204.372 92.609 195.736 92.5625 195.688C91.9813 195.071 91.0533 194.856 90.25 195.125C90.1704 195.151 88.1434 195.905 84.9375 196.906C81.7549 197.9 77.4711 199.136 73.25 200.438C66.784 202.432 63.0097 203.558 60.3438 204.375C63.0129 195.592 66.9837 182.69 69.1875 175.438C89.2156 156.319 128.368 118.847 149.094 99.0625C154.75 104.715 163.606 113.609 169.312 119.312C159.346 128.821 141.731 145.695 132.5 154.5C131.632 155.328 131.549 156.756 132.375 157.625C134.427 159.784 138.605 164.029 140.656 166.188C141.485 167.06 142.786 167.142 143.656 166.312C154.388 156.066 175.862 135.527 186.594 125.281C186.626 125.253 186.689 125.186 186.719 125.156C192.259 119.619 203.335 108.537 208.875 103C215.141 96.7205 215.143 86.5804 208.875 80.3125C203.744 75.1818 193.474 64.912 188.344 59.7812C185.209 56.6469 181.171 55.156 177.062 55.1562ZM177.062 71.4688C182.191 76.598 192.184 86.5893 197.312 91.7188C193.184 95.8391 185.712 103.328 181 108.031C175.329 102.357 166.478 93.4809 160.781 87.7812C165.485 83.0772 172.921 75.6107 177.062 71.4688ZM232.531 127.875C230.612 127.875 228.683 128.714 227.219 130.188C208.225 149.275 171.023 186.661 151.25 206.531C142.133 196.955 125.981 180.061 117.562 171.219C115.672 169.14 112.815 168.285 110.094 169.031C104.522 170.566 102.602 177.463 106.688 181.531C116.426 191.765 135.95 212.204 145.688 222.438C148.59 225.479 153.432 225.551 156.406 222.594C176.766 202.13 217.452 161.246 237.812 140.781C240.726 137.851 240.724 133.115 237.812 130.188C236.347 128.714 234.45 127.875 232.531 127.875Z" fill="#000000" fill-rule="nonzero" opacity="1" stroke="none" vectornator:layerName="Curve 6"/>
<path d="M220 244C220 241.791 221.791 240 224 240L406 240C408.209 240 410 241.791 410 244L410 251C410 253.209 408.209 255 406 255L224 255C221.791 255 220 253.209 220 251L220 244Z" fill="#089589" fill-opacity="0.75" fill-rule="nonzero" opacity="0.75" stroke="none" vectornator:layerName="Rectangle 6"/>
<path d="M290 76.5C290 74.2909 291.791 72.5 294 72.5L406 72.5C408.209 72.5 410 74.2909 410 76.5L410 83.5C410 85.7091 408.209 87.5 406 87.5L294 87.5C291.791 87.5 290 85.7091 290 83.5L290 76.5Z" fill="#089589" fill-opacity="0.75" fill-rule="nonzero" opacity="0.75" stroke="none" vectornator:layerName="Rectangle 9"/>
<path d="M335 131.333C335 129.124 336.791 127.333 339 127.333L406 127.333C408.209 127.333 410 129.124 410 131.333L410 138.333C410 140.542 408.209 142.333 406 142.333L339 142.333C336.791 142.333 335 140.542 335 138.333L335 131.333Z" fill="#089589" fill-opacity="0.75" fill-rule="nonzero" opacity="0.75" stroke="none" vectornator:layerName="Rectangle 8"/>
<path d="M287.688 112.188C282.165 112.187 277.688 116.665 277.688 122.188L277.688 148.188C277.688 153.71 282.165 158.188 287.688 158.188L313.688 158.188C319.21 158.187 323.688 153.71 323.688 148.188L323.688 122.188C323.688 116.665 319.21 112.188 313.688 112.188L287.688 112.188ZM287.688 119.188C294.188 119.187 307.187 119.188 313.688 119.188C315.346 119.187 316.688 120.536 316.688 122.188C316.688 128.687 316.688 141.687 316.688 148.188C316.688 149.846 315.339 151.188 313.688 151.188C307.187 151.187 294.188 151.188 287.688 151.188C286.029 151.188 284.688 149.839 284.688 148.188C284.688 141.687 284.688 128.688 284.688 122.188C284.687 120.529 286.036 119.188 287.688 119.188ZM309.5 127.938C308.965 127.884 308.406 128.049 307.969 128.438C307.856 128.538 308.454 128.103 308.5 128.094C308.282 128.153 308.056 128.196 307.844 128.281C307.131 128.566 306.344 129 305.594 129.594C304.744 130.261 303.705 131.142 302.562 132.281C300.251 134.583 298.491 136.758 297.562 137.875C297.17 137.451 297.178 137.418 296.344 136.562C294.654 134.822 292.841 133.638 292.375 133.344C292.318 133.308 292.069 133.129 292.062 133.125C292.052 133.118 292.016 133.135 292 133.125C291.82 132.987 291.678 132.84 291.375 132.75C291.028 132.646 290.81 132.687 290.562 132.719C289.471 132.776 288.604 133.676 288.656 134.781C288.659 134.833 288.697 135.268 288.906 135.688C289.106 136.089 289.329 136.312 289.469 136.438C289.51 136.475 289.549 136.497 289.594 136.531C289.753 136.651 291.471 137.964 293.188 139.719C294.914 141.496 295.812 142.844 295.812 142.844C295.93 143.021 296.083 143.15 296.25 143.281C296.25 143.281 296.438 143.422 296.781 143.594C296.781 143.594 297.183 143.72 297.5 143.75L297.562 143.75C297.562 143.75 297.833 143.728 298.5 143.562C298.5 143.562 298.954 143.279 299.219 143.031L299.312 142.906C299.341 142.871 299.38 142.85 299.406 142.812C299.416 142.798 299.428 142.765 299.438 142.75C299.957 142.109 303.367 137.968 305.906 135.438C308.673 132.679 310.219 131.937 310.219 131.938C310.573 131.762 310.866 131.499 311.062 131.156C311.062 131.156 311.136 130.985 311.25 130.688C311.25 130.688 311.329 130.377 311.344 130.125L311.344 130.031C311.344 130.031 311.332 129.286 310.906 128.719C310.555 128.251 310.035 127.991 309.5 127.938Z" fill="#089589" fill-opacity="0.75" fill-rule="nonzero" opacity="1" stroke="none" vectornator:layerName="Curve 4"/>
<path d="M287.688 170.188C282.165 170.187 277.688 174.665 277.688 180.188L277.688 206.188C277.688 211.71 282.165 216.188 287.688 216.188L313.688 216.188C319.21 216.187 323.688 211.71 323.688 206.188L323.688 180.188C323.688 174.665 319.21 170.188 313.688 170.188L287.688 170.188ZM287.688 177.188C294.188 177.187 307.187 177.188 313.688 177.188C315.346 177.187 316.688 178.536 316.688 180.188C316.688 186.687 316.688 199.687 316.688 206.188C316.688 207.846 315.339 209.188 313.688 209.188C307.187 209.187 294.188 209.188 287.688 209.188C286.029 209.188 284.688 207.839 284.688 206.188C284.688 199.687 284.688 186.688 284.688 180.188C284.687 178.529 286.036 177.188 287.688 177.188ZM309.5 185.938C308.965 185.884 308.406 186.049 307.969 186.438C307.856 186.538 308.454 186.103 308.5 186.094C308.282 186.153 308.056 186.196 307.844 186.281C307.131 186.566 306.344 187 305.594 187.594C304.744 188.261 303.705 189.142 302.562 190.281C300.251 192.583 298.491 194.758 297.562 195.875C297.17 195.451 297.178 195.418 296.344 194.562C294.654 192.822 292.841 191.638 292.375 191.344C292.318 191.308 292.069 191.129 292.062 191.125C292.052 191.118 292.016 191.135 292 191.125C291.82 190.987 291.678 190.84 291.375 190.75C291.028 190.646 290.81 190.687 290.562 190.719C289.471 190.776 288.604 191.676 288.656 192.781C288.659 192.833 288.697 193.268 288.906 193.688C289.106 194.089 289.329 194.312 289.469 194.438C289.51 194.475 289.549 194.497 289.594 194.531C289.753 194.651 291.471 195.964 293.188 197.719C294.914 199.496 295.812 200.844 295.812 200.844C295.93 201.021 296.083 201.15 296.25 201.281C296.25 201.281 296.438 201.422 296.781 201.594C296.781 201.594 297.183 201.72 297.5 201.75L297.562 201.75C297.562 201.75 297.833 201.728 298.5 201.562C298.5 201.562 298.954 201.279 299.219 201.031L299.312 200.906C299.341 200.871 299.38 200.85 299.406 200.812C299.416 200.798 299.428 200.765 299.438 200.75C299.957 200.109 303.367 195.968 305.906 193.438C308.673 190.679 310.219 189.937 310.219 189.938C310.573 189.762 310.866 189.499 311.062 189.156C311.062 189.156 311.136 188.985 311.25 188.688C311.25 188.688 311.329 188.377 311.344 188.125L311.344 188.031C311.344 188.031 311.332 187.286 310.906 186.719C310.555 186.251 310.035 185.991 309.5 185.938Z" fill="#089589" fill-opacity="0.75" fill-rule="nonzero" opacity="1" stroke="none" vectornator:layerName="Curve 5"/>
<path d="M335 188.667C335 186.458 336.791 184.667 339 184.667L406 184.667C408.209 184.667 410 186.458 410 188.667L410 195.667C410 197.876 408.209 199.667 406 199.667L339 199.667C336.791 199.667 335 197.876 335 195.667L335 188.667Z" fill="#089589" fill-opacity="0.75" fill-rule="nonzero" opacity="0.75" stroke="none" vectornator:layerName="Rectangle 7"/>
</g>
</svg>
