<?xml version="1.0" encoding="UTF-8" standalone="no"?>
<!DOCTYPE svg PUBLIC "-//W3C//DTD SVG 1.1//EN" "http://www.w3.org/Graphics/SVG/1.1/DTD/svg11.dtd">
<!-- Created with Vectornator (http://vectornator.io/) -->
<svg height="100%" stroke-miterlimit="10" style="fill-rule:nonzero;clip-rule:evenodd;stroke-linecap:round;stroke-linejoin:round;" version="1.1" viewBox="0 0 440 280" width="100%" xml:space="preserve" xmlns="http://www.w3.org/2000/svg" xmlns:vectornator="http://vectornator.io" xmlns:xlink="http://www.w3.org/1999/xlink">
<defs>
<path d="M5.47118e-12 0L440 0L440 280L5.47118e-12 280L5.47118e-12 0Z" id="Fill"/>
<path d="M-20.6112 150.338C-20.6676 150.406-20.8639 150.473-21.3197 150.545C-22.7026 150.767-24.3911 151.27-26.5491 152.136C-30.9556 153.901-36.1457 156.728-40.9226 160.503C-47.482 165.645-55.554 172.539-64.5257 181.485C-87.1966 204.068-114.441 237.349-114.441 237.349L-116.946 240.41L-119.549 237.431C-119.549 237.431-125.392 230.74-139.405 216.384C-153.171 202.207-171.555 190.766-171.555 190.766L-172.137 190.404L-172.267 190.169C-172.797 189.207-173.115 189.112-174.073 189.636C-174.138 189.641-174.187 189.645-174.226 189.645C-174.194 190.339-174.138 190.725-173.083 191.673C-171.59 192.798-156.727 203.895-141.542 219.452C-126.36 235.082-118.074 247.536-118.074 247.536C-117.854 247.709-117.866 247.663-117.135 247.671C-116.403 247.68-116.265 247.781-115.839 247.14L-115.732 246.976C-112.23 242.638-82.802 206.343-60.406 184.016C-36.3113 159.996-20.5224 152.155-20.5224 152.155C-20.3961 151.943-20.4319 151.987-20.4319 151.255C-20.4319 150.751-20.4371 150.574-20.6112 150.338Z" id="Fill_2"/>
<path d="M-111.232 220.22C-110.999 220.155-110.767 220.089-110.535 220.024C-101.816 217.572-92.962 215.52-84.1064 213.714C-93.1976 215.569-102.287 217.681-111.232 220.22ZM-108.193 219.375C-106.251 217.072-104.109 214.552-101.783 211.858C-116.799 214.95-131.581 218.931-146.048 224.116C-181.844 236.946-240.353 264.73-288.713 273.2C-345.454 283.138-381.971 264.568-411.155 243.43C-427.924 231.285-441.657 215.554-453.997 199.041C-444.518 221.883-433.399 245.044-413.663 260.343C-371.531 293.001-327.878 298.548-266.518 283.072C-233.821 274.824-167.513 241.998-148.395 233.721C-138.41 229.397-128.27 225.434-117.878 222.197C-115.443 221.439-112.995 220.715-110.535 220.024C-109.756 219.803-108.975 219.588-108.193 219.375ZM-101.783 211.858C-100.964 211.689-100.145 211.523-99.325 211.361C-100.145 211.523-100.966 211.691-101.783 211.858ZM-111.232 220.22C-111.604 220.326-111.976 220.432-112.346 220.539C-111.976 220.432-111.604 220.326-111.232 220.22ZM-99.325 211.361C-98.1299 211.124-96.9348 210.89-95.738 210.663C-96.9348 210.89-98.1299 211.122-99.325 211.361ZM-95.738 210.663C-93.802 210.296-91.8642 209.944-89.9214 209.604C-91.8642 209.944-93.802 210.297-95.738 210.663ZM-13.3075 207.525C6.59418 210.88 25.3571 218.185 43.2988 227.264C25.9068 219.353 7.89512 212.952-11.0659 210.139C-33.2809 206.842-55.8186 208.464-77.8219 212.496C-76.2154 210.683-74.5935 208.867-72.9664 207.064C-53.1416 204.629-33.0794 204.19-13.3075 207.525Z" id="Fill_3"/>
<path d="M309.308 129.928C309.301 129.936 309.278 129.944 309.222 129.953C309.054 129.98 308.85 130.041 308.588 130.146C308.053 130.36 307.423 130.703 306.844 131.161C306.048 131.785 305.068 132.622 303.98 133.707C301.229 136.447 297.923 140.485 297.923 140.485L297.62 140.857L297.304 140.495C297.304 140.495 296.595 139.683 294.894 137.941C293.224 136.221 290.994 134.833 290.994 134.833L290.923 134.789L290.907 134.761C290.843 134.644 290.804 134.632 290.688 134.696C290.68 134.697 290.674 134.697 290.669 134.697C290.673 134.781 290.68 134.828 290.808 134.943C290.989 135.08 292.793 136.426 294.635 138.314C296.477 140.21 297.483 141.721 297.483 141.721C297.509 141.742 297.508 141.737 297.597 141.738C297.685 141.739 297.702 141.751 297.754 141.673L297.767 141.653C298.192 141.127 301.762 136.723 304.48 134.014C307.403 131.1 309.319 130.148 309.319 130.148C309.334 130.122 309.33 130.128 309.33 130.039C309.33 129.978 309.329 129.956 309.308 129.928Z" id="Fill_4"/>
<path d="M288 123.833L312 123.833L312 147.833L288 147.833L288 123.833Z" id="Fill_5"/>
<filter color-interpolation-filters="sRGB" filterUnits="userSpaceOnUse" height="171" id="Filter" width="171" x="214.5" y="50.3333">
<feComponentTransfer in="SourceGraphic" result="Alpha">
<feFuncA slope="0.75" type="linear"/>
</feComponentTransfer>
<feDropShadow dx="-0" dy="0" flood-color="#ffffff" flood-opacity="1" in="Alpha" result="Shadow" stdDeviation="25"/>
</filter>
<path d="M309.308 185.761C309.301 185.769 309.278 185.777 309.222 185.786C309.054 185.813 308.85 185.874 308.588 185.979C308.053 186.193 307.423 186.536 306.844 186.994C306.048 187.618 305.068 188.455 303.98 189.54C301.229 192.28 297.923 196.319 297.923 196.319L297.62 196.69L297.304 196.328C297.304 196.328 296.595 195.517 294.894 193.775C293.224 192.055 290.994 190.666 290.994 190.666L290.923 190.622L290.907 190.594C290.843 190.477 290.804 190.466 290.688 190.529C290.68 190.53 290.674 190.53 290.669 190.53C290.673 190.615 290.68 190.661 290.808 190.776C290.989 190.913 292.793 192.259 294.635 194.147C296.477 196.043 297.483 197.555 297.483 197.555C297.509 197.575 297.508 197.57 297.597 197.571C297.685 197.572 297.702 197.584 297.754 197.507L297.767 197.487C298.192 196.96 301.762 192.556 304.48 189.847C307.403 186.933 309.319 185.981 309.319 185.981C309.334 185.956 309.33 185.961 309.33 185.872C309.33 185.811 309.329 185.79 309.308 185.761Z" id="Fill_6"/>
<path d="M288 179.667L312 179.667L312 203.667L288 203.667L288 179.667Z" id="Fill_7"/>
<filter color-interpolation-filters="sRGB" filterUnits="userSpaceOnUse" height="171" id="Filter_2" width="171" x="214.5" y="106.167">
<feComponentTransfer in="SourceGraphic" result="Alpha">
<feFuncA slope="0.75" type="linear"/>
</feComponentTransfer>
<feDropShadow dx="-0" dy="0" flood-color="#ffffff" flood-opacity="1" in="Alpha" result="Shadow" stdDeviation="25"/>
</filter>
</defs>
<clipPath id="ArtboardFrame">
<rect height="280" width="440" x="0" y="0"/>
</clipPath>
<g clip-path="url(#ArtboardFrame)" id="Layer-1" vectornator:layerName="Layer 1">
<g opacity="1" vectornator:layerName="Rectangle 5">
<use fill="#006961" fill-rule="nonzero" stroke="none" xlink:href="#Fill"/>
<mask height="282" id="StrokeMask" maskUnits="userSpaceOnUse" width="442" x="-1" y="-1">
<rect fill="#ffffff" height="282" stroke="none" width="442" x="-1" y="-1"/>
<use fill="#000000" fill-rule="evenodd" stroke="none" xlink:href="#Fill"/>
</mask>
<use fill="none" mask="url(#StrokeMask)" stroke="#ffffff" stroke-linecap="butt" stroke-linejoin="round" stroke-width="2" xlink:href="#Fill"/>
</g>
<g opacity="1" vectornator:layerName="Group 3">
<g opacity="1" vectornator:layerName="path 1">
<use fill="#ffffff" fill-rule="nonzero" stroke="none" xlink:href="#Fill_2"/>
<mask height="99.344" id="StrokeMask_2" maskUnits="userSpaceOnUse" width="155.799" x="-175.226" y="149.338">
<rect fill="#ffffff" height="99.344" stroke="none" width="155.799" x="-175.226" y="149.338"/>
<use fill="#000000" fill-rule="evenodd" stroke="none" xlink:href="#Fill_2"/>
</mask>
<use fill="none" mask="url(#StrokeMask_2)" stroke="#ffffff" stroke-linecap="butt" stroke-linejoin="round" stroke-width="2" xlink:href="#Fill_2"/>
</g>
<g opacity="1" vectornator:layerName="path 2">
<use fill="#ffffff" fill-rule="nonzero" stroke="none" xlink:href="#Fill_3"/>
<mask height="94.2934" id="StrokeMask_3" maskUnits="userSpaceOnUse" width="499.296" x="-454.997" y="198.041">
<rect fill="#ffffff" height="94.2934" stroke="none" width="499.296" x="-454.997" y="198.041"/>
<use fill="#000000" fill-rule="evenodd" stroke="none" xlink:href="#Fill_3"/>
</mask>
<use fill="none" mask="url(#StrokeMask_3)" stroke="#ffffff" stroke-linecap="butt" stroke-linejoin="round" stroke-width="2" xlink:href="#Fill_3"/>
</g>
</g>
<path d="M433.375-28C433.319-27.9317 433.143-27.853 432.688-27.7812C431.305-27.5593 429.595-27.0531 427.438-26.1875C423.031-24.4222 417.839-21.6185 413.062-17.8438C406.503-12.7014 398.44-5.78986 389.469 3.15625C366.798 25.7383 339.562 59 339.562 59L337.062 62.0625L334.438 59.0938C334.438 59.0938 330.384 54.6519 324.125 48.0312C328.101 46.5722 332.078 45.1355 336.125 43.875C338.333 43.1874 340.552 42.5076 342.781 41.875C342.929 41.8336 343.07 41.7919 343.219 41.75C343.301 41.7267 343.386 41.7107 343.469 41.6875C344.247 41.4673 345.031 41.2447 345.812 41.0312C347.754 38.7281 349.893 36.2253 352.219 33.5312C340.894 35.8631 329.743 38.8965 318.719 42.375C317.112 40.707 316.495 40.0103 314.594 38.0625C300.828 23.8853 282.438 12.4375 282.438 12.4375L281.875 12.0625L281.719 11.8438C281.188 10.8826 280.895 10.7884 279.938 11.3125C279.873 11.3176 279.82 11.3125 279.781 11.3125C279.814 12.0074 279.851 12.3962 280.906 13.3438C282.398 14.4688 297.284 25.5683 312.469 41.125C313.337 42.019 313.958 42.7535 314.781 43.625C312.509 44.3764 310.194 44.9724 307.938 45.7812C286.7 53.3933 257.425 66.2329 227.062 77.2188C228.947 81.0786 230.027 85.181 230.312 89.375C246.498 82.5645 263.22 74.8454 277.562 68.1875C279.681 66.4024 282.26 65.1937 285.125 64.75C291.595 61.7475 301.968 56.9449 305.594 55.375C310.39 53.298 315.247 51.3385 320.125 49.4688C326.007 56.0931 329.859 60.985 332.5 64.5C335.818 64.5 338.287 64.5 341.688 64.5C348.655 55.9319 373.066 26.152 393.594 5.6875C417.688-18.3321 433.469-26.1875 433.469-26.1875C433.595-26.3992 433.563-26.3613 433.562-27.0938C433.562-27.5974 433.549-27.7644 433.375-28ZM0 20.7188C9.47878 43.5604 20.6077 66.7011 40.3438 82C56.8273 94.7771 73.554 103.342 91.4688 108.188C96.8101 103.082 100.673 99.3839 105.75 94.5312C80.3934 89.2512 60.2498 77.7008 42.8438 65.0938C26.0749 52.9482 12.3402 37.2315 0 20.7188ZM410.875 26.7812C400.91 26.7785 390.944 27.5015 381.031 28.7188C379.404 30.5216 377.794 32.3431 376.188 34.1562C398.191 30.1237 420.723 28.5158 442.938 31.8125C461.898 34.6261 479.889 41.026 497.281 48.9375C479.339 39.8582 460.589 32.5423 440.688 29.1875C430.802 27.5203 420.84 26.784 410.875 26.7812Z" fill="#dfe3e5" fill-rule="nonzero" opacity="0.75" stroke="none" vectornator:layerName="Curve 3"/>
<path d="M177.073 55.1636C172.964 55.1638 168.792 56.6504 165.658 59.7839C160.13 65.309 149.036 76.4089 143.508 81.934C122.056 102.416 79.3134 143.292 57.8972 163.74C55.882 165.642 54.3426 168.019 53.5487 170.67C50.2281 181.58 43.6879 203.381 40.3674 214.291C40.3637 214.303 40.2349 214.279 40.2315 214.291C40.2211 214.327 40.2315 214.835 40.2315 214.835C38.7752 220.944 44.432 226.28 50.4232 224.483C50.4267 224.482 62.3391 220.684 74.4758 216.737C80.545 214.763 86.7479 212.788 91.4621 211.166C93.8204 210.354 95.8144 209.556 97.3053 208.991C98.0525 208.708 98.7162 208.527 99.2078 208.312C99.5986 208.141 100.263 207.789 100.295 207.768C101.458 207.039 101.647 205.367 100.703 204.371C100.7 204.368 92.5957 195.723 92.5492 195.674C91.968 195.058 91.0423 194.862 90.239 195.131C90.1594 195.157 88.1452 195.896 84.9393 196.897C81.7567 197.891 77.4739 199.129 73.2528 200.43C66.7868 202.424 63.0092 203.554 60.3432 204.371C63.0123 195.588 66.9723 182.678 69.1761 175.426C89.2042 156.308 128.353 118.841 149.079 99.0562C154.735 104.709 163.62 113.6 169.327 119.304C159.36 128.812 141.732 145.694 132.501 154.499C131.633 155.327 131.539 156.756 132.365 157.625C134.417 159.784 138.603 164.027 140.654 166.186C141.483 167.058 142.774 167.152 143.644 166.322C154.376 156.076 175.853 135.529 186.585 125.283C186.617 125.255 186.691 125.177 186.721 125.147C192.261 119.61 203.331 108.534 208.871 102.997C215.137 96.7175 215.139 86.5712 208.871 80.3033C203.74 75.1726 193.482 64.9146 188.352 59.7839C185.217 56.6496 181.182 55.1634 177.073 55.1636ZM177.073 71.4705C182.202 76.5998 192.191 86.5887 197.32 91.7181C193.192 95.8384 185.726 103.322 181.014 108.025C175.343 102.351 166.463 93.477 160.766 87.7773C165.47 83.0733 172.931 75.6124 177.073 71.4705Z" fill="#ffffff" fill-rule="nonzero" opacity="1" stroke="none" vectornator:layerName="Curve 2"/>
<path d="M232.516 127.865C230.597 127.865 228.68 128.702 227.216 130.175C208.222 149.262 171.027 186.675 151.254 206.545C142.137 196.969 125.971 180.056 117.553 171.214C115.663 169.135 112.8 168.294 110.079 169.04C104.507 170.575 102.597 177.473 106.682 181.541C116.42 191.775 135.944 212.211 145.682 222.444C148.584 225.485 153.444 225.537 156.418 222.58C176.778 202.116 217.455 161.239 237.816 140.774C240.729 137.844 240.727 133.103 237.816 130.175C236.351 128.702 234.435 127.865 232.516 127.865Z" fill="#ffffff" fill-rule="nonzero" opacity="1" stroke="none" vectornator:layerName="Curve 1"/>
<path d="M220 244C220 241.791 221.791 240 224 240L406 240C408.209 240 410 241.791 410 244L410 251C410 253.209 408.209 255 406 255L224 255C221.791 255 220 253.209 220 251L220 244Z" fill="#ffffff" fill-rule="nonzero" opacity="0.75" stroke="none" vectornator:layerName="Rectangle 6"/>
<path d="M290 76.5C290 74.2909 291.791 72.5 294 72.5L406 72.5C408.209 72.5 410 74.2909 410 76.5L410 83.5C410 85.7091 408.209 87.5 406 87.5L294 87.5C291.791 87.5 290 85.7091 290 83.5L290 76.5Z" fill="#ffffff" fill-rule="nonzero" opacity="0.75" stroke="none" vectornator:layerName="Rectangle 9"/>
<g opacity="1" vectornator:layerName="Group 7">
<path d="M335 131.333C335 129.124 336.791 127.333 339 127.333L406 127.333C408.209 127.333 410 129.124 410 131.333L410 138.333C410 140.542 408.209 142.333 406 142.333L339 142.333C336.791 142.333 335 140.542 335 138.333L335 131.333Z" fill="#ffffff" fill-rule="nonzero" opacity="0.75" stroke="none" vectornator:layerName="Rectangle 8"/>
<g opacity="1" vectornator:layerName="Group 5">
<g opacity="0.75" vectornator:layerName="path 1">
<use fill="#dfe3e5" fill-rule="nonzero" stroke="none" xlink:href="#Fill_4"/>
<mask height="14.8112" id="StrokeMask_4" maskUnits="userSpaceOnUse" width="21.6611" x="289.169" y="128.428">
<rect fill="#ffffff" height="14.8112" stroke="none" width="21.6611" x="289.169" y="128.428"/>
<use fill="#000000" fill-rule="evenodd" stroke="none" xlink:href="#Fill_4"/>
</mask>
<use fill="none" mask="url(#StrokeMask_4)" stroke="#ffffff" stroke-linecap="butt" stroke-linejoin="round" stroke-width="3" xlink:href="#Fill_4"/>
</g>
<g filter="url(#Filter)" vectornator:layerName="Rectangle 10" vectornator:shadowAngle="1.5708" vectornator:shadowColor="#ffffff" vectornator:shadowOffset="0" vectornator:shadowOpacity="1" vectornator:shadowRadius="50">
<mask height="46" id="StrokeMask_5" maskUnits="userSpaceOnUse" width="46" x="277" y="112.833">
<rect fill="#ffffff" height="46" stroke="none" width="46" x="277" y="112.833"/>
<use fill="#000000" fill-rule="evenodd" stroke="none" xlink:href="#Fill_5"/>
</mask>
<use fill="none" mask="url(#StrokeMask_5)" stroke="#ffffff" stroke-linecap="butt" stroke-linejoin="round" stroke-width="22" xlink:href="#Fill_5"/>
</g>
</g>
</g>
<g opacity="1" vectornator:layerName="Group 8">
<path d="M335 188.667C335 186.458 336.791 184.667 339 184.667L406 184.667C408.209 184.667 410 186.458 410 188.667L410 195.667C410 197.876 408.209 199.667 406 199.667L339 199.667C336.791 199.667 335 197.876 335 195.667L335 188.667Z" fill="#ffffff" fill-rule="nonzero" opacity="0.75" stroke="none" vectornator:layerName="Rectangle 7"/>
<g opacity="1" vectornator:layerName="Group 6">
<g opacity="0.75" vectornator:layerName="path 1">
<use fill="#dfe3e5" fill-rule="nonzero" stroke="none" xlink:href="#Fill_6"/>
<mask height="14.8112" id="StrokeMask_6" maskUnits="userSpaceOnUse" width="21.6611" x="289.169" y="184.261">
<rect fill="#ffffff" height="14.8112" stroke="none" width="21.6611" x="289.169" y="184.261"/>
<use fill="#000000" fill-rule="evenodd" stroke="none" xlink:href="#Fill_6"/>
</mask>
<use fill="none" mask="url(#StrokeMask_6)" stroke="#ffffff" stroke-linecap="butt" stroke-linejoin="round" stroke-width="3" xlink:href="#Fill_6"/>
</g>
<g filter="url(#Filter_2)" vectornator:layerName="Rectangle 10" vectornator:shadowAngle="1.5708" vectornator:shadowColor="#ffffff" vectornator:shadowOffset="0" vectornator:shadowOpacity="1" vectornator:shadowRadius="50">
<mask height="46" id="StrokeMask_7" maskUnits="userSpaceOnUse" width="46" x="277" y="168.667">
<rect fill="#ffffff" height="46" stroke="none" width="46" x="277" y="168.667"/>
<use fill="#000000" fill-rule="evenodd" stroke="none" xlink:href="#Fill_7"/>
</mask>
<use fill="none" mask="url(#StrokeMask_7)" stroke="#ffffff" stroke-linecap="butt" stroke-linejoin="round" stroke-width="22" xlink:href="#Fill_7"/>
</g>
</g>
</g>
</g>
</svg>
