<svg version="1.1" viewBox="0 0 500 200" width="100%" xmlns="http://www.w3.org/2000/svg" xmlns:bx="https://boxy-svg.com">
  <path d="M461.606 42.588C465.085 39.1373 470.732 39.1373 474.212 42.588L487.39 55.6521C490.87 59.1027 490.87 64.6998 487.39 68.1504L473.157 82.2592L473.095 82.3254L417.919 134.539C416.909 135.492 415.691 136.199 414.356 136.604L386.211 145.091C383.393 145.934 380.714 143.44 381.386 140.601C381.401 140.523 381.42 140.444 381.448 140.366L389.973 112.583C390.421 111.127 391.235 109.814 392.347 108.764L447.403 56.6617L461.606 42.588ZM450.012 64.6699L397.627 114.244C397.469 114.395 397.351 114.583 397.286 114.789L390.845 135.776L412.13 129.353C412.322 129.294 412.495 129.192 412.639 129.055L446.13 97.3624L464.989 79.5171L450.007 64.6699L450.012 64.6699ZM470.455 74.2276L481.989 62.7999C482.489 62.3055 482.489 61.5074 481.989 61.0117L468.811 47.9488C468.312 47.4531 467.506 47.4531 467.006 47.9488L455.48 59.3752L470.455 74.2276Z"></path>
  <path d="M 343.847 99.598 C 343.814 99.638 343.699 99.677 343.432 99.719 C 342.622 99.849 341.633 100.144 340.369 100.651 C 337.788 101.685 334.748 103.341 331.95 105.552 C 328.108 108.564 323.38 112.602 318.125 117.842 C 304.846 131.069 288.888 150.563 288.888 150.563 L 287.421 152.356 L 285.896 150.611 C 285.896 150.611 282.474 146.692 274.266 138.283 C 266.203 129.979 255.435 123.278 255.435 123.278 L 255.094 123.066 L 255.018 122.928 C 254.707 122.365 254.521 122.309 253.96 122.616 C 253.922 122.619 253.893 122.621 253.87 122.621 C 253.889 123.028 253.922 123.254 254.54 123.809 C 255.414 124.468 264.12 130.968 273.014 140.08 C 281.907 149.235 286.76 156.53 286.76 156.53 C 286.889 156.631 286.882 156.604 287.31 156.609 C 287.739 156.614 287.82 156.673 288.069 156.298 L 288.132 156.202 C 290.183 153.661 307.42 132.402 320.538 119.324 C 334.651 105.255 343.899 100.662 343.899 100.662 C 343.973 100.538 343.952 100.564 343.952 100.135 C 343.952 99.84 343.949 99.736 343.847 99.598 Z"></path>
  <path d="M 290.768 140.53 C 290.904 140.492 291.04 140.453 291.176 140.415 C 296.283 138.979 301.469 137.777 306.656 136.719 C 301.331 137.806 296.007 139.043 290.768 140.53 Z M 292.548 140.035 C 293.685 138.686 294.94 137.21 296.302 135.632 C 287.507 137.443 278.849 139.775 270.375 142.812 C 249.408 150.327 215.138 166.601 186.812 171.562 C 153.577 177.383 132.188 166.506 115.094 154.125 C 105.272 147.011 97.228 137.797 90 128.125 C 95.552 141.504 102.065 155.07 113.625 164.031 C 138.303 183.16 163.872 186.409 199.812 177.344 C 218.964 172.513 257.802 153.286 269 148.438 C 274.849 145.905 280.788 143.584 286.875 141.688 C 288.301 141.244 289.735 140.82 291.176 140.415 C 291.632 140.286 292.09 140.16 292.548 140.035 Z M 296.302 135.632 C 296.782 135.533 297.262 135.436 297.742 135.341 C 297.262 135.436 296.781 135.534 296.302 135.632 Z M 290.768 140.53 C 290.55 140.592 290.332 140.654 290.115 140.717 C 290.332 140.654 290.55 140.592 290.768 140.53 Z M 297.742 135.341 C 298.442 135.202 299.142 135.065 299.843 134.932 C 299.142 135.065 298.442 135.201 297.742 135.341 Z M 299.843 134.932 C 300.977 134.717 302.112 134.511 303.25 134.312 C 302.112 134.511 300.977 134.718 299.843 134.932 Z M 348.125 133.094 C 359.782 135.059 370.772 139.338 381.281 144.656 C 371.094 140.022 360.544 136.273 349.438 134.625 C 336.426 132.694 323.225 133.644 310.337 136.006 C 311.278 134.944 312.228 133.88 313.181 132.824 C 324.793 131.398 336.544 131.141 348.125 133.094 Z"></path>
</svg>
