<svg viewBox="0 0 96 96" width="96px" height="96px" xmlns="http://www.w3.org/2000/svg" xmlns:bx="https://boxy-svg.com">
  <path d="M 61.362 9.437 C 64.02 6.779 68.335 6.779 70.993 9.437 L 81.061 19.505 C 83.719 22.163 83.719 26.477 81.061 29.141 L 70.189 40.008 L 70.135 40.056 L 42.57 66.373 L 38.538 62.142 L 63.948 37.896 L 52.506 26.459 L 12.485 64.662 C 12.359 64.776 12.275 64.914 12.221 65.076 L 7.307 81.247 L 23.561 76.303 C 23.711 76.255 23.843 76.177 23.951 76.069 L 30.425 69.895 L 34.451 74.125 L 27.983 80.293 C 27.215 81.031 26.279 81.577 25.265 81.889 L 3.766 88.429 C 1.606 89.077 -0.44 87.157 0.082 84.967 C 0.088 84.913 0.106 84.847 0.124 84.787 L 6.641 63.378 C 6.977 62.256 7.601 61.242 8.453 60.438 L 50.514 20.279 L 61.362 9.437 Z M 68.119 33.815 L 76.933 25.019 C 77.317 24.635 77.317 24.017 76.933 23.633 L 66.865 13.565 C 66.487 13.187 65.869 13.187 65.491 13.565 L 56.682 22.373 L 68.119 33.815 Z"></path>
  <path d="M 95.239 43.932 C 96.254 44.952 96.254 46.614 95.239 47.634 L 55.284 87.793 C 54.246 88.825 52.566 88.807 51.558 87.751 L 32.447 67.669 C 31.019 66.247 31.655 63.816 33.593 63.282 C 34.535 63.024 35.55 63.324 36.21 64.05 L 53.478 82.189 L 91.549 43.932 C 92.569 42.906 94.219 42.906 95.239 43.932 Z"></path>
</svg>
