<svg xmlns="http://www.w3.org/2000/svg" viewBox="0 0 16 16" width="16" height="16">
  <path fill-rule="evenodd" d="M 11 2.75 L 11 4 L 13.25 4 C 13.827 4 14.188 4.625 13.9 5.125 C 13.766 5.357 13.518 5.5 13.25 5.5 L 2.75 5.5 C 2.173 5.5 1.812 4.875 2.1 4.375 C 2.234 4.143 2.482 4 2.75 4 L 5 4 L 5 2.75 C 5 1.784 5.784 1 6.75 1 L 9.25 1 C 10.216 1 11 1.784 11 2.75 Z M 6.5 4 L 9.5 4 L 9.5 2.75 C 9.5 2.612 9.388 2.5 9.25 2.5 L 6.75 2.5 C 6.612 2.5 6.5 2.612 6.5 2.75 Z M 5.156 14.275 C 5.169 14.403 5.277 14.5 5.405 14.5 L 10.595 14.5 C 10.723 14.5 10.831 14.403 10.844 14.275 L 11.504 7.675 C 11.536 7.424 11.693 7.206 11.92 7.095 C 12.44 6.843 13.037 7.248 12.996 7.824 L 12.336 14.424 C 12.247 15.319 11.495 16 10.595 16 L 5.405 16 C 4.506 16 3.754 15.319 3.664 14.425 L 3.004 7.825 C 2.969 7.546 3.093 7.27 3.326 7.112 C 3.803 6.786 4.453 7.099 4.496 7.675 Z"></path>
</svg>