<svg xmlns="http://www.w3.org/2000/svg" viewBox="0 0 16 16" width="16" height="16">
  <path d="M2.75 3C3.16421 3 3.5 3.3078 3.5 3.6875L3.5 7.58333L8.5 7.58333L8.5 3.6875C8.5 3.3078 8.83579 3 9.25 3C9.66421 3 10 3.3078 10 3.6875L10 13.3125C10 13.6922 9.66421 14 9.25 14C8.83579 14 8.5 13.6922 8.5 13.3125L8.5 9L3.5 9L3.5 13.3125C3.5 13.6922 3.16421 14 2.75 14C2.33579 14 2 13.6922 2 13.3125L2 3.6875C2 3.3078 2.33579 3 2.75 3Z"/>
  <path d="M11 10L11 9.25879C11.6982 9.19076 12.3752 9.07707 12.6509 8.91772C12.9266 8.75838 13.1325 8.38151 13.2686 7.78711L14 7.78711L14 14L13 14L13 10L11 10Z"/>
</svg>
