<svg xmlns="http://www.w3.org/2000/svg" viewBox="0 0 28 17" width="28" height="17">
  <path d="M 7.1322587,6.6993471 C 5.2023543,7.6517372 4.4343073,9.9163976 5.3866975,11.846302 c 0.95239,1.929905 3.21705,2.697951 5.1469545,1.745561 l 2.067755,-1.020418 c 1.309578,-0.646265 2.082983,-1.879684 2.090161,-3.2545974 l -1.603683,0.603911 C 12.844404,10.469467 12.472529,10.92083 11.921128,11.192942 L 9.8533733,12.21336 C 8.6816457,12.791597 7.3434375,12.337751 6.7652006,11.166023 6.1869638,9.9942956 6.6408097,8.6560871 7.8125374,8.0778502 L 9.8802924,7.0574321 C 10.569544,6.7172927 11.291071,6.7790658 11.942719,7.0574584 L 13.707524,6.4543892 C 12.544769,5.3139835 10.716366,4.9306227 9.2000138,5.6789289 Z M 15.237949,3.4224475 c -0.159241,0.078848 -0.308775,0.1784585 -0.452602,0.2769237 l 0.863501,1.2613 c 0.321617,-0.2201835 0.792064,-0.3677567 1.226608,-0.3910426 0.620562,0.042006 1.76786,0.00673 2.288167,-0.031021 1.250264,-0.044495 2.273481,0.972816 2.319189,2.2571461 0.04449,1.2502632 -0.972817,2.2734819 -2.257147,2.3191879 -0.635125,-0.04299 -1.841843,-0.0083 -2.341875,0.03074 l 0.120822,1.5474514 c 0.30696,-0.02396 1.899306,-0.05471 2.180752,-0.03158 l 0.05371,2.84e-4 0.03217,0.01091 c 2.084926,-0.07419 3.82324,-1.7929409 3.747831,-3.9119349 l 2.84e-4,-0.053708 C 22.918107,4.6459644 21.229583,2.9275855 19.128686,3.0023513 l -0.02154,0.010631 -0.03217,-0.010915 c -0.306959,0.023966 -1.899306,0.054709 -2.180751,0.031581 l -0.03217,-0.010909 -0.05371,-2.812e-4 c -0.550872,0.029519 -1.092673,0.1634453 -1.570396,0.3999894 z m -4.181978,4.7690129 a 0.77095282,0.77095282 0 0 0 0.787974,1.3253562 L 17.698096,7.4849537 A 0.77459243,0.77459243 0 0 0 17.190131,6.0214154 l -5.854153,2.0318633 a 0.76868763,0.76868763 0 0 0 -0.215391,0.1062936 0.768986,0.768986 0 0 0 -0.06462,0.03189 z" />
</svg>