<svg xmlns="http://www.w3.org/2000/svg" viewBox="0 0 28 17" width="28" height="17">
  <path d="m 13.626953,3.0019531 c -2.71248,0.076765 -3.958545,2.160587 -2.845703,4.4121094 L 12.419922,6.9121094 C 10.823643,5.3944404 12.789729,3.1570373 16.322266,4.8613281 L 16.794922,3.6621094 C 15.597817,3.1734501 14.531113,2.9763647 13.626953,3.0019531 Z m 3.763672,3.59375 c -0.102021,-0.00794 -0.21397,0.00581 -0.332031,0.046875 l -6.611328,2.2988281 c -0.944494,0.3285316 -0.450354,1.7445478 0.49414,1.4160158 l 6.611328,-2.2988282 c 0.826432,-0.287465 0.552039,-1.4073165 -0.162109,-1.4628907 z m -0.509766,3.0390625 -1.558593,0.4765624 c 1.54483,2.771903 -2.221142,3.246789 -4.757813,1.921875 L 10.125,13.248047 c 3.29697,1.620561 8.449162,0.712622 6.755859,-3.6132814 z" />
</svg>