<svg viewBox="0 0 16 16" width="16px" height="16px" xmlns="http://www.w3.org/2000/svg" xmlns:bx="https://boxy-svg.com">
  <path fill-rule="evenodd" d="M 10.088 1.975 C 10.503 1.559 11.177 1.559 11.593 1.975 L 13.166 3.548 C 13.581 3.963 13.581 4.637 13.166 5.053 L 11.467 6.751 L 11.459 6.759 L 7.152 10.871 L 6.522 10.21 L 10.492 6.421 L 8.704 4.634 L 2.451 10.603 C 2.432 10.621 2.418 10.643 2.41 10.668 L 1.642 13.195 L 4.182 12.422 C 4.205 12.415 4.226 12.402 4.243 12.386 L 5.254 11.421 L 5.883 12.082 L 4.873 13.046 C 4.753 13.161 4.607 13.246 4.448 13.295 L 1.089 14.317 C 0.752 14.418 0.432 14.118 0.513 13.776 C 0.514 13.767 0.517 13.757 0.52 13.748 L 1.538 10.403 C 1.591 10.227 1.688 10.069 1.821 9.943 L 8.393 3.669 L 10.088 1.975 Z M 11.144 5.784 L 12.521 4.409 C 12.581 4.349 12.581 4.253 12.521 4.193 L 10.948 2.62 C 10.889 2.561 10.792 2.561 10.733 2.62 L 9.357 3.996 L 11.144 5.784 Z"></path>
  <path fill-rule="evenodd" d="M 15.381 7.364 C 15.54 7.524 15.54 7.783 15.381 7.943 L 9.138 14.217 C 8.976 14.379 8.714 14.376 8.556 14.211 L 5.57 11.073 C 5.347 10.851 5.447 10.471 5.749 10.388 C 5.897 10.347 6.055 10.394 6.158 10.508 L 8.856 13.342 L 14.805 7.364 C 14.964 7.204 15.222 7.204 15.381 7.364 Z"></path>
</svg>
