<!-- <svg xmlns="http://www.w3.org/2000/svg" viewBox="0 0 16 16" width="16" height="16">
  <path d="M 6.22 12.78 C 6.512 13.072 6.987 13.072 7.28 12.78 L 11.53 8.53 C 11.822 8.237 11.822 7.763 11.53 7.47 L 7.28 3.22 C 6.857 2.826 6.167 3.038 6.038 3.6 C 5.982 3.843 6.05 4.098 6.22 4.28 L 9.94 8 L 6.22 11.72 C 5.927 12.013 5.927 12.487 6.22 12.78 Z"></path>
</svg> -->
<svg xmlns="http://www.w3.org/2000/svg" viewBox="0 0 16 16" width="16" height="16">
  <path d="M6.22 3.22a.75.75 0 0 1 1.06 0l4.25 4.25a.75.75 0 0 1 0 1.06l-4.25 4.25a.751.751 0 0 1-1.042-.018.751.751 0 0 1-.018-1.042L9.94 8 6.22 4.28a.75.75 0 0 1 0-1.06Z"></path>
</svg>