<!-- <svg xmlns="http://www.w3.org/2000/svg" viewBox="0 0 16 16" width="16" height="16"> -->

<!-- <path d="M 3 3 L 13 3 L 13 4.5 L 3 4.5 Z M 3 11 L 13 11 L 13 12.5 L 3 12.5 Z M 3 7 L 13 7 L 13 8.5 L 3 8.5 Z" style="stroke-width: 1.5px; stroke-linecap: round;"></path> -->


<!-- <path d="M 2 4 L 14 4 L 14 5.5 L 2 5.5 L 2 4 Z" style=""></path>
<path d="M 2 10 L 14 10 L 14 11.5 L 2 11.5 L 2 10 Z" style=""></path>
<path d="M 2 7 L 14 7 L 14 8.5 L 2 8.5 L 2 7 Z" style=""></path> -->


<!-- <path d="M 2 3 L 14 3 L 14 4.5 L 2 4.5 L 2 3 Z" style=""></path>
<path d="M 2 11 L 14 11 L 14 12.5 L 2 12.5 L 2 11 Z" style=""></path>
<path d="M 2 7 L 14 7 L 14 8.5 L 2 8.5 L 2 7 Z" style=""></path> -->


<!-- <path d="M 1 3 L 15 3 L 15 4.5 L 1 4.5 L 1 3 Z" style=""></path>
<path d="M 1 11 L 15 11 L 15 12.5 L 1 12.5 L 1 11 Z" style=""></path>
<path d="M 1 7 L 15 7 L 15 8.5 L 1 8.5 L 1 7 Z" style=""></path> -->



<!-- <path d="M 2.5 11.75 C 2.5 12.164 2.164 12.5 1.75 12.5 C 1.336 12.5 1 12.164 1 11.75 C 1 11.336 1.336 11 1.75 11 C 2.164 11 2.5 11.336 2.5 11.75 Z M 5 11.75 C 5 12.164 4.663 12.5 4.25 12.5 C 3.836 12.5 3.5 12.164 3.5 11.75 C 3.5 11.336 3.836 11 4.25 11 C 4.663 11 5 11.336 5 11.75 Z M 7.5 11.75 C 7.5 12.164 7.164 12.5 6.75 12.5 C 6.336 12.5 6 12.164 6 11.75 C 6 11.336 6.336 11 6.75 11 C 7.164 11 7.5 11.336 7.5 11.75 Z M 10 11.75 C 10 12.164 9.664 12.5 9.25 12.5 C 8.836 12.5 8.5 12.164 8.5 11.75 C 8.5 11.336 8.836 11 9.25 11 C 9.664 11 10 11.336 10 11.75 Z M 12.5 11.75 C 12.5 12.164 12.164 12.5 11.75 12.5 C 11.336 12.5 11 12.164 11 11.75 C 11 11.336 11.336 11 11.75 11 C 12.164 11 12.5 11.336 12.5 11.75 Z M 15 11.75 C 15 12.164 14.664 12.5 14.25 12.5 C 13.836 12.5 13.5 12.164 13.5 11.75 C 13.5 11.336 13.836 11 14.25 11 C 14.664 11 15 11.336 15 11.75 Z" style=""></path>
<path d="M 2.5 7.75 C 2.5 8.164 2.164 8.5 1.75 8.5 C 1.336 8.5 1 8.164 1 7.75 C 1 7.336 1.336 7 1.75 7 C 2.164 7 2.5 7.336 2.5 7.75 Z M 5 7.75 C 5 8.164 4.663 8.5 4.25 8.5 C 3.836 8.5 3.5 8.164 3.5 7.75 C 3.5 7.336 3.836 7 4.25 7 C 4.663 7 5 7.336 5 7.75 Z M 7.5 7.75 C 7.5 8.164 7.164 8.5 6.75 8.5 C 6.336 8.5 6 8.164 6 7.75 C 6 7.336 6.336 7 6.75 7 C 7.164 7 7.5 7.336 7.5 7.75 Z M 10 7.75 C 10 8.164 9.664 8.5 9.25 8.5 C 8.836 8.5 8.5 8.164 8.5 7.75 C 8.5 7.336 8.836 7 9.25 7 C 9.664 7 10 7.336 10 7.75 Z M 12.5 7.75 C 12.5 8.164 12.164 8.5 11.75 8.5 C 11.336 8.5 11 8.164 11 7.75 C 11 7.336 11.336 7 11.75 7 C 12.164 7 12.5 7.336 12.5 7.75 Z M 15 7.75 C 15 8.164 14.664 8.5 14.25 8.5 C 13.836 8.5 13.5 8.164 13.5 7.75 C 13.5 7.336 13.836 7 14.25 7 C 14.664 7 15 7.336 15 7.75 Z" style=""></path>
<path d="M 2.5 3.75 C 2.5 4.164 2.164 4.5 1.75 4.5 C 1.336 4.5 1 4.164 1 3.75 C 1 3.336 1.336 3 1.75 3 C 2.164 3 2.5 3.336 2.5 3.75 Z M 5 3.75 C 5 4.164 4.663 4.5 4.25 4.5 C 3.836 4.5 3.5 4.164 3.5 3.75 C 3.5 3.336 3.836 3 4.25 3 C 4.663 3 5 3.336 5 3.75 Z M 7.5 3.75 C 7.5 4.164 7.164 4.5 6.75 4.5 C 6.336 4.5 6 4.164 6 3.75 C 6 3.336 6.336 3 6.75 3 C 7.164 3 7.5 3.336 7.5 3.75 Z M 10 3.75 C 10 4.164 9.664 4.5 9.25 4.5 C 8.836 4.5 8.5 4.164 8.5 3.75 C 8.5 3.336 8.836 3 9.25 3 C 9.664 3 10 3.336 10 3.75 Z M 12.5 3.75 C 12.5 4.164 12.164 4.5 11.75 4.5 C 11.336 4.5 11 4.164 11 3.75 C 11 3.336 11.336 3 11.75 3 C 12.164 3 12.5 3.336 12.5 3.75 Z M 15 3.75 C 15 4.164 14.664 4.5 14.25 4.5 C 13.836 4.5 13.5 4.164 13.5 3.75 C 13.5 3.336 13.836 3 14.25 3 C 14.664 3 15 3.336 15 3.75 Z" style=""></path>
 -->

<!-- <path d="M 14.27 12.5 L 1.73 12.5 C 1.325 12.489 1 12.157 1 11.75 C 1 11.343 1.325 11.011 1.73 11 L 14.27 11 C 14.675 11.011 15 11.343 15 11.75 C 15 12.157 14.675 12.489 14.27 12.5 Z M 14.27 8.5 L 1.73 8.5 C 1.325 8.489 1 8.157 1 7.75 C 1 7.343 1.325 7.011 1.73 7 L 14.27 7 C 14.675 7.011 15 7.343 15 7.75 C 15 8.157 14.675 8.489 14.27 8.5 Z M 14.27 4.5 L 1.73 4.5 C 1.325 4.489 1 4.157 1 3.75 C 1 3.343 1.325 3.011 1.73 3 L 14.27 3 C 14.675 3.011 15 3.343 15 3.75 C 15 4.157 14.675 4.489 14.27 4.5 Z"></path> -->


<!-- </svg> -->

<svg xmlns="http://www.w3.org/2000/svg" viewBox="0 0 10 16" width="10" height="16">
  <!-- <path d="M10 13a1 1 0 1 1 0-2 1 1 0 0 1 0 2Zm0-4a1 1 0 1 1 0-2 1 1 0 0 1 0 2Zm-4 4a1 1 0 1 1 0-2 1 1 0 0 1 0 2Zm5-9a1 1 0 1 1-2 0 1 1 0 0 1 2 0ZM7 8a1 1 0 1 1-2 0 1 1 0 0 1 2 0ZM6 5a1 1 0 1 1 0-2 1 1 0 0 1 0 2Z"></path> -->
<!-- <path d="M7 13C6.44772 13 6 12.5523 6 12C6 11.4477 6.44772 11 7 11C7.55228 11 8 11.4477 8 12C8 12.5523 7.55228 13 7 13ZM7 9C6.44772 9 6 8.55228 6 8C6 7.44772 6.44772 7 7 7C7.55228 7 8 7.44772 8 8C8 8.55228 7.55228 9 7 9ZM3 13C2.44772 13 2 12.5523 2 12C2 11.4477 2.44772 11 3 11C3.55228 11 4 11.4477 4 12C4 12.5523 3.55228 13 3 13ZM8 4C8 4.55228 7.55228 5 7 5C6.44772 5 6 4.55228 6 4C6 3.44772 6.44772 3 7 3C7.55228 3 8 3.44772 8 4ZM4 8C4 8.55228 3.55228 9 3 9C2.44772 9 2 8.55228 2 8C2 7.44772 2.44772 7 3 7C3.55228 7 4 7.44772 4 8ZM3 5C2.44772 5 2 4.55228 2 4C2 3.44772 2.44772 3 3 3C3.55228 3 4 3.44772 4 4C4 4.55228 3.55228 5 3 5Z"/> -->
<!-- <path d="M2 3C1.44772 3 1 3.44772 1 4C1 4.55228 1.44772 5 2 5C2.55228 5 3 4.55228 3 4C3 3.44772 2.55228 3 2 3ZM7 3C6.44772 3 6 3.44772 6 4C6 4.55228 6.44772 5 7 5C7.55228 5 8 4.55228 8 4C8 3.44772 7.55228 3 7 3ZM2 7C1.44772 7 1 7.44772 1 8C1 8.55228 1.44772 9 2 9C2.55228 9 3 8.55228 3 8C3 7.44772 2.55228 7 2 7ZM7 7C6.44772 7 6 7.44772 6 8C6 8.55228 6.44772 9 7 9C7.55228 9 8 8.55228 8 8C8 7.44772 7.55228 7 7 7ZM2 11C1.44772 11 1 11.4477 1 12C1 12.5523 1.44772 13 2 13C2.55228 13 3 12.5523 3 12C3 11.4477 2.55228 11 2 11ZM7 11C6.44772 11 6 11.4477 6 12C6 12.5523 6.44772 13 7 13C7.55228 13 8 12.5523 8 12C8 11.4477 7.55228 11 7 11Z" /> -->
<path d="M2 3C1.44772 3 1 3.44772 1 4C1 4.55228 1.44772 5 2 5C2.55228 5 3 4.55228 3 4C3 3.44772 2.55228 3 2 3ZM6 3C5.44772 3 5 3.44772 5 4C5 4.55228 5.44772 5 6 5C6.55228 5 7 4.55228 7 4C7 3.44772 6.55228 3 6 3ZM2 7C1.44772 7 1 7.44772 1 8C1 8.55228 1.44772 9 2 9C2.55228 9 3 8.55228 3 8C3 7.44772 2.55228 7 2 7ZM6 7C5.44772 7 5 7.44772 5 8C5 8.55228 5.44772 9 6 9C6.55228 9 7 8.55228 7 8C7 7.44772 6.55228 7 6 7ZM2 11C1.44772 11 1 11.4477 1 12C1 12.5523 1.44772 13 2 13C2.55228 13 3 12.5523 3 12C3 11.4477 2.55228 11 2 11ZM6 11C5.44772 11 5 11.4477 5 12C5 12.5523 5.44772 13 6 13C6.55228 13 7 12.5523 7 12C7 11.4477 6.55228 11 6 11Z" />
</svg>