<!-- <svg xmlns="http://www.w3.org/2000/svg" width="12" height="17">
  <path d="M 9,3 V 4 H 8 V 5 H 7 V 6 H 6 V 7 H 5 V 8 H 4 v 1 h 1 v 1 h 1 v 1 h 1 v 1 h 1 v 1 h 1 v 1 h 1 1 V 13 H 10 V 12 H 9 V 11 H 8 V 10 H 7 V 9 H 6 V 8 H 7 V 7 H 8 V 6 H 9 V 5 h 1 V 4 h 1 V 3 h -1 z" />
</svg> -->
<svg xmlns="http://www.w3.org/2000/svg" viewBox="0 0 16 16" width="16" height="16">
  <path fill-rule="evenodd" d="M 13.529 12.78 C 13.237 13.072 12.762 13.072 12.469 12.78 L 8.219 8.53 C 7.927 8.237 7.927 7.763 8.219 7.47 L 12.469 3.22 C 12.892 2.826 13.582 3.038 13.711 3.6 C 13.767 3.843 13.699 4.098 13.529 4.28 L 9.809 8 L 13.529 11.72 C 13.822 12.013 13.822 12.487 13.529 12.78 Z"></path>
</svg>