<svg viewBox="0 0 96 96" width="96px" height="96px" xmlns="http://www.w3.org/2000/svg">
  <defs></defs>
  <path fill-rule="evenodd" d="M 61.363 1.994 C 64.021 -0.665 68.335 -0.665 70.993 1.994 L 81.06 12.061 C 83.719 14.72 83.719 19.033 81.06 21.692 L 70.187 32.564 L 70.14 32.615 L 27.989 72.85 C 27.217 73.584 26.287 74.129 25.267 74.441 L 3.766 80.981 C 1.613 81.631 -0.434 79.709 0.08 77.521 C 0.091 77.461 0.106 77.4 0.127 77.34 L 6.64 55.931 C 6.982 54.809 7.604 53.797 8.453 52.988 L 50.513 12.839 L 61.363 1.994 Z M 52.506 19.01 L 12.487 57.211 C 12.366 57.327 12.276 57.472 12.226 57.631 L 7.306 73.803 L 23.566 68.854 C 23.713 68.808 23.845 68.73 23.955 68.624 L 63.947 30.451 L 52.502 19.01 Z M 68.123 26.375 L 76.934 17.569 C 77.316 17.188 77.316 16.573 76.934 16.191 L 66.867 6.125 C 66.486 5.743 65.87 5.743 65.488 6.125 L 56.683 14.93 L 68.123 26.375 Z" style=""></path>
  <path fill-rule="evenodd" d="M 95.237 36.485 C 96.254 37.507 96.254 39.164 95.237 40.187 L 55.28 80.343 C 54.247 81.381 52.566 81.362 51.556 80.302 L 32.446 60.223 C 31.021 58.804 31.66 56.367 33.595 55.837 C 34.541 55.577 35.554 55.874 36.212 56.605 L 53.481 74.745 L 91.554 36.485 C 92.571 35.463 94.22 35.463 95.237 36.485 Z" style="stroke: rgb(255, 255, 255); stroke-width: 3px; paint-order: stroke;"></path>
</svg>