<svg viewBox="0 0 96 96" width="96px" height="96px" xmlns="http://www.w3.org/2000/svg">
  <defs></defs>
  <path fill-rule="evenodd" d="M 56.683 14.93 L 65.488 6.125 C 65.87 5.743 66.486 5.743 66.867 6.125 L 76.934 16.191 C 77.316 16.573 77.316 17.188 76.934 17.569 L 68.123 26.375 Z M 50.513 12.839 L 8.453 52.988 C 7.604 53.797 6.982 54.809 6.64 55.931 L 0.127 77.34 C 0.106 77.4 0.091 77.461 0.08 77.521 C -0.434 79.709 1.613 81.631 3.766 80.981 L 25.267 74.441 C 26.287 74.129 27.217 73.584 27.989 72.85 L 28.305 72.548 L 24.331 68.372 C 24.317 68.35 24.303 68.328 24.289 68.305 L 23.955 68.624 C 23.845 68.73 23.713 68.808 23.566 68.854 L 7.306 73.803 L 12.226 57.631 C 12.276 57.472 12.366 57.327 12.487 57.211 L 52.504 19.012 L 63.947 30.451 L 44.69 48.832 L 48.718 53.063 L 70.14 32.615 L 70.187 32.564 L 81.06 21.692 C 83.719 19.033 83.719 14.72 81.06 12.061 L 70.993 1.994 C 68.335 -0.665 64.021 -0.665 61.363 1.994 Z" style=""></path>
  <path fill-rule="evenodd" d="M 95.237 36.485 C 96.254 37.507 96.254 39.164 95.237 40.187 L 55.28 80.343 C 54.247 81.381 52.566 81.362 51.556 80.302 L 32.446 60.223 C 31.021 58.804 31.66 56.367 33.595 55.837 C 34.541 55.577 35.554 55.874 36.212 56.605 L 53.481 74.745 L 91.554 36.485 C 92.571 35.463 94.22 35.463 95.237 36.485 Z" style="paint-order: stroke; stroke-width: 23px;"></path>
</svg>