<svg viewBox="0 0 96 96" width="96px" height="96px" xmlns="http://www.w3.org/2000/svg">
  <defs></defs>
  <path d="M 23.955 68.624 L 34.422 58.633 L 42.883 58.633 L 27.989 72.85 C 27.217 73.584 26.287 74.129 25.267 74.441 L 3.766 80.981 C 1.613 81.631 -0.434 79.709 0.08 77.521 C 0.091 77.461 0.106 77.4 0.127 77.34 L 6.64 55.931 C 6.982 54.809 7.604 53.797 8.453 52.988 L 50.513 12.839 L 61.363 1.994 C 64.021 -0.665 68.335 -0.665 70.993 1.994 L 81.06 12.061 C 83.719 14.72 83.719 19.033 81.06 21.692 L 70.187 32.564 L 70.14 32.615 L 69.456 33.268 L 60.996 33.268 L 63.947 30.451 L 52.504 19.012 L 12.487 57.211 C 12.366 57.327 12.276 57.472 12.226 57.631 L 7.306 73.803 L 23.566 68.854 C 23.713 68.808 23.845 68.73 23.955 68.624 Z M 68.123 26.375 L 76.934 17.569 C 77.316 17.188 77.316 16.573 76.934 16.191 L 66.867 6.125 C 66.486 5.743 65.87 5.743 65.488 6.125 L 56.683 14.93 Z" style=""></path>
  <path d="M 46.476 81.109 L 46.476 76.921 L 50.913 76.149 L 50.913 45.658 L 42.692 45.658 L 41.912 51.133 L 37.063 51.133 L 37.063 40.768 L 70.985 40.768 L 70.985 51.133 L 66.198 51.133 L 65.38 45.658 L 57.157 45.658 L 57.157 76.149 L 61.613 76.921 L 61.613 81.109 Z" style="white-space: pre; paint-order: stroke; stroke-width: 15px;"></path>
  <path d="M 76 75 L 96 75 L 96 80 L 76 80 L 76 75 Z" style=""></path>
  <path d="M 86 57 L 96 57 L 96 62 L 86 62 L 86 57 Z" style=""></path>
</svg>