<svg xmlns="http://www.w3.org/2000/svg" width="28" height="19">
  <path d="m 11,1 0,2 -4,0 0,1 1,0 0,12 c 4.263e-4,0.58315 0.1537698,1.111243 0.5214844,1.480469 C 8.889199,17.849695 9.4187095,18.004381 10.003906,18 l 8.990235,0 c 0.586679,0.0079 1.116934,-0.147251 1.484375,-0.517578 C 20.845956,17.112095 20.998723,16.584733 21,16.001953 L 21,16 21,4 22,4 22,3 18,3 18,1 11,1 Z m 1,1 5,0 0,1 -5,0 0,-1 z m -3,2 11,0 0,11.998047 c -9.15e-4,0.41722 -0.09846,0.646249 -0.230469,0.779297 C 19.63752,16.910392 19.41918,17.00558 19.005859,17 l -0.002,0 -9.0058591,0 -0.00195,0 C 9.5812905,17.003105 9.3625714,16.908036 9.2304688,16.775391 9.0983661,16.642745 9.0003047,16.41685 9,16 L 9,4 Z m 2,2 0,9 1,0 0,-9 -1,0 z m 3,0 0,9 1,0 0,-9 -1,0 z m 3,0 0,9 1,0 0,-9 -1,0 z" />
</svg>