<!-- <svg xmlns="http://www.w3.org/2000/svg" width="28" height="19">
  <path d="m 11,1 0,2 -4,0 0,1 1,0 0,12 c 4.263e-4,0.58315 0.1537698,1.111243 0.5214844,1.480469 C 8.889199,17.849695 9.4187095,18.004381 10.003906,18 l 8.990235,0 c 0.586679,0.0079 1.116934,-0.147251 1.484375,-0.517578 C 20.845956,17.112095 20.998723,16.584733 21,16.001953 L 21,16 21,4 22,4 22,3 18,3 18,1 11,1 Z m 1,1 5,0 0,1 -5,0 0,-1 z m -3,2 11,0 0,11.998047 c -9.15e-4,0.41722 -0.09846,0.646249 -0.230469,0.779297 C 19.63752,16.910392 19.41918,17.00558 19.005859,17 l -0.002,0 -9.0058591,0 -0.00195,0 C 9.5812905,17.003105 9.3625714,16.908036 9.2304688,16.775391 9.0983661,16.642745 9.0003047,16.41685 9,16 L 9,4 Z m 2,2 0,9 1,0 0,-9 -1,0 z m 3,0 0,9 1,0 0,-9 -1,0 z m 3,0 0,9 1,0 0,-9 -1,0 z" />
</svg> -->
<svg xmlns="http://www.w3.org/2000/svg" viewBox="0 0 16 16" width="16" height="16">
  <path fill-rule="evenodd" d="M 11 2.75 L 11 4 L 13.25 4 C 13.827 4 14.188 4.625 13.9 5.125 C 13.766 5.357 13.518 5.5 13.25 5.5 L 2.75 5.5 C 2.173 5.5 1.812 4.875 2.1 4.375 C 2.234 4.143 2.482 4 2.75 4 L 5 4 L 5 2.75 C 5 1.784 5.784 1 6.75 1 L 9.25 1 C 10.216 1 11 1.784 11 2.75 Z M 6.5 4 L 9.5 4 L 9.5 2.75 C 9.5 2.612 9.388 2.5 9.25 2.5 L 6.75 2.5 C 6.612 2.5 6.5 2.612 6.5 2.75 Z M 5.156 14.275 C 5.169 14.403 5.277 14.5 5.405 14.5 L 10.595 14.5 C 10.723 14.5 10.831 14.403 10.844 14.275 L 11.504 7.675 C 11.536 7.424 11.693 7.206 11.92 7.095 C 12.44 6.843 13.037 7.248 12.996 7.824 L 12.336 14.424 C 12.247 15.319 11.495 16 10.595 16 L 5.405 16 C 4.506 16 3.754 15.319 3.664 14.425 L 3.004 7.825 C 2.969 7.546 3.093 7.27 3.326 7.112 C 3.803 6.786 4.453 7.099 4.496 7.675 Z"></path>


<!-- <path d="M 6 2 L 11 2 L 11 4 L 14 4 L 14 5 L 13 5 L 13 14.002 C 12.999 14.585 12.846 15.112 12.479 15.482 C 12.111 15.853 11.581 16.008 10.994 16 L 6.004 16 C 5.419 16.004 4.889 15.85 4.521 15.48 C 4.154 15.111 4 14.583 4 14 L 4 5 L 3 5 L 3 4 L 6 4 Z M 10 3 L 7 3 L 7 4 L 10 4 Z M 11 7 L 11 13 L 10 13 L 10 7 Z M 9 7 L 9 13 L 8 13 L 8 7 Z M 7 7 L 7 13 L 6 13 L 6 7 Z M 5 14 C 5 14.417 5.098 14.643 5.23 14.775 C 5.363 14.908 5.581 15.003 5.996 15 L 11.006 15 C 11.419 15.006 11.638 14.91 11.77 14.777 C 11.902 14.644 11.999 14.415 12 13.998 L 12 5 L 5 5 Z" style=""></path> -->


</svg>