<svg xmlns="http://www.w3.org/2000/svg" viewBox="0 0 16 16" width="16" height="16">
  <!-- <path fill-rule="evenodd" d="M11.5 7a4.499 4.499 0 11-8.998 0A4.499 4.499 0 0111.5 7zm-.82 4.74a6 6 0 111.06-1.06l3.04 3.04a.75.75 0 11-1.06 1.06l-3.04-3.04z"></path>
  <path fill-rule="evenodd" d="M 3.985 7.001 C 3.985 5.452 5.102 4.291 6.442 4.034 C 5.306 4.826 4.523 6.137 4.523 7.72 C 4.523 8.138 4.581 8.548 4.692 8.94 C 4.242 8.405 3.985 7.721 3.985 7.001 Z" ></path> -->
<!-- <path d="M 4.399 2.783 C 4.67 2.596 4.967 2.435 5.281 2.306 C 4.934 2.79 4.003 4.568 3.835 4.901 C 3.777 5.017 3.655 5.191 3.527 5.345 C 3.367 5.537 3.086 5.58 2.888 5.452 C 2.716 5.341 2.719 5.038 2.763 4.918 C 2.935 4.452 3.179 4.019 3.474 3.646" style=""></path> -->
  <path d="M 11 5.75 C 11 6.971 10.644 7.849 10.097 8.684 L 14.74 13.328 L 14.755 13.354 C 14.755 13.354 14.88 13.534 14.933 13.759 C 14.98 13.958 14.947 14.418 14.674 14.685 C 14.405 14.948 13.954 14.978 13.757 14.933 C 13.533 14.881 13.353 14.758 13.353 14.758 L 13.317 14.733 L 8.682 10.099 C 7.847 10.645 6.97 11 5.75 11 C 4.336 11 2.96 10.385 2.038 9.462 C 1.115 8.54 0.5 7.164 0.5 5.75 C 0.5 4.336 1.115 2.96 2.038 2.038 C 2.96 1.115 4.336 0.5 5.75 0.5 C 7.164 0.5 8.54 1.115 9.462 2.038 C 10.385 2.96 11 4.336 11 5.75 Z M 8.755 2.745 C 7.958 1.948 6.959 1.5 5.75 1.5 C 4.541 1.5 3.542 1.948 2.745 2.745 C 1.948 3.542 1.5 4.541 1.5 5.75 C 1.5 6.959 1.948 7.958 2.745 8.755 C 3.542 9.552 4.541 10 5.75 10 C 6.792 10 7.673 9.677 8.421 9.056 L 9.054 8.422 C 9.676 7.675 10 6.793 10 5.75 C 10 4.541 9.552 3.542 8.755 2.745 Z" ></path>
  <path d="M 4.264 3.897 C 3.39 4.761 2.738 6.702 2.738 5.138 C 2.738 3.574 4.006 2.306 5.57 2.306 C 7.134 2.306 5.138 3.033 4.264 3.897 Z" ></path>
</svg>
