<svg viewBox="0 0 28 17" width="28" height="17" xmlns="http://www.w3.org/2000/svg" xmlns:bx="https://boxy-svg.com">
  <defs>
    <bx:grid x="0" y="0" width="1" height="1"></bx:grid>
  </defs>
  <path d="M 18.385 13.238 C 17.439 14.114 16.248 14.531 15.005 14.498 C 13.761 14.463 12.57 13.992 11.648 12.975 L 11.265 12.561 C 11.036 12.343 10.993 12.15 11.015 11.92 C 11.035 11.693 11.128 11.526 11.303 11.363 C 11.478 11.202 11.652 11.122 11.881 11.119 C 12.112 11.115 12.303 11.176 12.502 11.422 L 12.884 11.833 C 13.489 12.468 14.307 12.814 15.072 12.83 C 15.84 12.845 16.65 12.537 17.243 12.004 C 17.704 11.568 18.041 10.977 18.171 10.383 C 18.301 9.788 18.24 9.111 17.99 8.519 L 17.813 8.099 L 17.805 8.107 L 17.987 8.531 C 17.761 8.005 17.373 7.51 16.896 7.182 C 16.421 6.855 15.795 6.653 15.142 6.646 L 13.74 6.646 L 13.74 8.609 L 10 5.805 L 13.74 3 L 13.74 4.963 L 15.142 4.963 C 16.774 4.945 18.124 5.722 18.988 6.925 L 19.179 7.191 L 19.182 7.189 C 19.783 8.118 19.993 9.165 19.885 10.215 C 19.766 11.368 19.267 12.424 18.385 13.238 Z"></path>
</svg>