<svg xmlns="http://www.w3.org/2000/svg" viewBox="0 0 16 16" width="16" height="16">
  <path d="M 7.046 14.046 L 7.046 8.955 L 1.955 8.955 C 1.428 8.955 1 8.527 1 8 C 1 7.473 1.428 7.046 1.955 7.046 L 7.046 7.046 L 7.046 1.955 C 7.046 1.428 7.473 1 8 1 C 8.527 1 8.955 1.428 8.955 1.955 L 8.955 7.046 L 14.046 7.046 C 14.572 7.046 15 7.473 15 8 C 15 8.527 14.572 8.955 14.046 8.955 L 8.955 8.955 L 8.955 14.046 C 8.955 14.573 8.527 15 8 15 C 7.473 15 7.046 14.573 7.046 14.046 Z" style="transform-box: fill-box; transform-origin: 50% 50%;" transform="matrix(0.69463, 0.719367, -0.719367, 0.69463, 0, 0)"></path>
</svg>
