<svg viewBox="0 0 16 16" width="16px" height="16px" xmlns="http://www.w3.org/2000/svg" xmlns:bx="https://boxy-svg.com">
  <path d="M 10.227 1.573 C 10.67 1.13 11.389 1.13 11.832 1.573 L 13.51 3.251 C 13.953 3.694 13.953 4.413 13.51 4.857 L 11.698 6.668 L 11.689 6.676 L 7.095 11.062 L 6.423 10.357 L 10.658 6.316 L 8.751 4.41 L 2.081 10.777 C 2.06 10.796 2.046 10.819 2.037 10.846 L 1.218 13.541 L 3.927 12.717 C 3.952 12.709 3.974 12.696 3.992 12.678 L 5.071 11.649 L 5.742 12.354 L 4.664 13.382 C 4.536 13.505 4.38 13.596 4.211 13.648 L 0.628 14.738 C 0.268 14.846 -0.073 14.526 0.014 14.161 C 0.015 14.152 0.018 14.141 0.021 14.131 L 1.107 10.563 C 1.163 10.376 1.267 10.207 1.409 10.073 L 8.419 3.38 L 10.227 1.573 Z M 11.353 5.636 L 12.822 4.17 C 12.886 4.106 12.886 4.003 12.822 3.939 L 11.144 2.261 C 11.081 2.198 10.978 2.198 10.915 2.261 L 9.447 3.729 L 11.353 5.636 Z"></path>
  <path d="M 15.873 7.322 C 16.042 7.492 16.042 7.769 15.873 7.939 L 9.214 14.632 C 9.041 14.804 8.761 14.801 8.593 14.625 L 5.408 11.278 C 5.17 11.041 5.276 10.636 5.599 10.547 C 5.756 10.504 5.925 10.554 6.035 10.675 L 8.913 13.698 L 15.258 7.322 C 15.428 7.151 15.703 7.151 15.873 7.322 Z" style="paint-order: stroke; stroke-width: 5.99999px; alignment-baseline: initial;"></path>
</svg>
