<svg xmlns="http://www.w3.org/2000/svg" width="30" height="19">  
  <path fill="#07a698" d="m 12.65678,13 c -0.466102,0 -0.936441,-0.01695 -1.411017,-0.05085 -0.474577,-0.02543 -0.889831,-0.08475 -1.2457631,-0.177967 l 0,-8.5550843 c 0.1864411,-0.033898 0.3855931,-0.063559 0.5974581,-0.088983 0.211864,-0.033898 0.427966,-0.059322 0.648305,-0.076271 0.220339,-0.016949 0.43644,-0.029661 0.648305,-0.038136 0.220339,-0.00847 0.427966,-0.012712 0.622881,-0.012712 0.533899,0 1.029661,0.042373 1.487288,0.1271186 0.457627,0.076271 0.851695,0.2076271 1.182204,0.3940678 0.796918,0.4478179 1.045654,1.0440198 1.067796,1.8686441 0.02214,0.8246243 -0.530982,1.3256882 -1.131356,1.7796611 1.128027,0.3907992 1.564914,1.0934826 1.56356,2.1101697 -0.0014,1.016687 -0.330509,1.588983 -0.991526,2.04661 C 15.033898,12.775423 14.021187,13 12.65678,13 Z m -1.080509,-4.0677966 0,2.6822036 c 0.177966,0.01695 0.368644,0.02966 0.572034,0.03814 0.20339,0.0085 0.389831,0.01271 0.559322,0.01271 0.330509,0 0.635593,-0.02119 0.915254,-0.06356 0.288136,-0.04237 0.533899,-0.114407 0.737289,-0.216102 0.211864,-0.110169 0.377118,-0.254237 0.495762,-0.432203 0.127119,-0.177966 0.190678,-0.40678 0.190678,-0.686441 C 15.04661,9.7669511 14.864407,9.4194936 14.5,9.2245783 14.135593,9.029663 13.631356,8.9322054 12.987288,8.9322054 Z m 0,-1.2584746 1.131356,0 c 0.610169,0 1.088983,-0.084746 1.436441,-0.2542372 0.347457,-0.1779661 0.521186,-0.4915255 0.521186,-0.940678 0,-0.4237289 -0.182203,-0.7245763 -0.54661,-0.9025424 C 13.762712,5.3983051 13.29661,5.309322 12.720339,5.309322 c -0.245763,0 -0.466102,0.00424 -0.661017,0.012712 -0.186441,0.00847 -0.347458,0.021187 -0.483051,0.038136 z" />
</svg>
