<?xml version="1.0" encoding="UTF-8" standalone="no"?>
<svg
   xmlns:dc="http://purl.org/dc/elements/1.1/"
   xmlns:cc="http://creativecommons.org/ns#"
   xmlns:rdf="http://www.w3.org/1999/02/22-rdf-syntax-ns#"
   xmlns:svg="http://www.w3.org/2000/svg"
   xmlns="http://www.w3.org/2000/svg"
   xmlns:sodipodi="http://sodipodi.sourceforge.net/DTD/sodipodi-0.dtd"
   xmlns:inkscape="http://www.inkscape.org/namespaces/inkscape"
   width="30"
   height="19"
   id="svg2"
   version="1.1"
   inkscape:version="0.91 r13725"
   sodipodi:docname="delete.svg">
  <metadata
     id="metadata9">
    <rdf:RDF>
      <cc:Work
         rdf:about="">
        <dc:format>image/svg+xml</dc:format>
        <dc:type
           rdf:resource="http://purl.org/dc/dcmitype/StillImage" />
        <dc:title />
      </cc:Work>
    </rdf:RDF>
  </metadata>
  <defs
     id="defs7" />
  <sodipodi:namedview
     pagecolor="#ffffff"
     bordercolor="#666666"
     borderopacity="1"
     objecttolerance="10"
     gridtolerance="10"
     guidetolerance="10"
     inkscape:pageopacity="0"
     inkscape:pageshadow="2"
     inkscape:window-width="1218"
     inkscape:window-height="756"
     id="namedview5"
     showgrid="true"
     inkscape:zoom="26.266667"
     inkscape:cx="15"
     inkscape:cy="9.5"
     inkscape:window-x="62"
     inkscape:window-y="0"
     inkscape:window-maximized="1"
     inkscape:current-layer="svg2"
     showguides="false">
    <inkscape:grid
       type="xygrid"
       id="grid3337" />
  </sodipodi:namedview>
  <path
     style="color:#000000;font-style:normal;font-variant:normal;font-weight:normal;font-stretch:normal;font-size:medium;line-height:normal;font-family:sans-serif;text-indent:0;text-align:start;text-decoration:none;text-decoration-line:none;text-decoration-style:solid;text-decoration-color:#000000;letter-spacing:normal;word-spacing:normal;text-transform:none;direction:ltr;block-progression:tb;writing-mode:lr-tb;baseline-shift:baseline;text-anchor:start;white-space:normal;clip-rule:nonzero;display:inline;overflow:visible;visibility:visible;opacity:1;isolation:auto;mix-blend-mode:normal;color-interpolation:sRGB;color-interpolation-filters:linearRGB;solid-color:#000000;solid-opacity:1;fill:#07a698;fill-opacity:1;fill-rule:evenodd;stroke:none;stroke-width:1px;stroke-linecap:butt;stroke-linejoin:miter;stroke-miterlimit:4;stroke-dasharray:none;stroke-dashoffset:0;stroke-opacity:1;color-rendering:auto;image-rendering:auto;shape-rendering:auto;text-rendering:auto;enable-background:accumulate"
     d="m 11,1 0,2 -4,0 0,1 1,0 0,12 c 4.263e-4,0.58315 0.1537698,1.111243 0.5214844,1.480469 C 8.889199,17.849695 9.4187095,18.004381 10.003906,18 l 8.990235,0 c 0.586679,0.0079 1.116934,-0.147251 1.484375,-0.517578 C 20.845956,17.112095 20.998723,16.584733 21,16.001953 L 21,16 21,4 22,4 22,3 18,3 18,1 11,1 Z m 1,1 5,0 0,1 -5,0 0,-1 z m -3,2 11,0 0,11.998047 c -9.15e-4,0.41722 -0.09846,0.646249 -0.230469,0.779297 C 19.63752,16.910392 19.41918,17.00558 19.005859,17 l -0.002,0 -9.0058591,0 -0.00195,0 C 9.5812905,17.003105 9.3625714,16.908036 9.2304688,16.775391 9.0983661,16.642745 9.0003047,16.41685 9,16 L 9,4 Z m 2,2 0,9 1,0 0,-9 -1,0 z m 3,0 0,9 1,0 0,-9 -1,0 z m 3,0 0,9 1,0 0,-9 -1,0 z"
     id="path3623"
     inkscape:connector-curvature="0" />
</svg>
