<?xml version="1.0" encoding="UTF-8" standalone="no"?>
<svg
   xmlns:dc="http://purl.org/dc/elements/1.1/"
   xmlns:cc="http://creativecommons.org/ns#"
   xmlns:rdf="http://www.w3.org/1999/02/22-rdf-syntax-ns#"
   xmlns:svg="http://www.w3.org/2000/svg"
   xmlns="http://www.w3.org/2000/svg"
   xmlns:sodipodi="http://sodipodi.sourceforge.net/DTD/sodipodi-0.dtd"
   xmlns:inkscape="http://www.inkscape.org/namespaces/inkscape"
   width="30"
   height="19"
   id="svg2"
   version="1.1"
   inkscape:version="0.91 r13725"
   sodipodi:docname="redo.svg">
  <metadata
     id="metadata10">
    <rdf:RDF>
      <cc:Work
         rdf:about="">
        <dc:format>image/svg+xml</dc:format>
        <dc:type
           rdf:resource="http://purl.org/dc/dcmitype/StillImage" />
        <dc:title></dc:title>
      </cc:Work>
    </rdf:RDF>
  </metadata>
  <defs
     id="defs8" />
  <sodipodi:namedview
     pagecolor="#ffffff"
     bordercolor="#666666"
     borderopacity="1"
     objecttolerance="10"
     gridtolerance="10"
     guidetolerance="10"
     inkscape:pageopacity="0"
     inkscape:pageshadow="2"
     inkscape:window-width="1218"
     inkscape:window-height="756"
     id="namedview6"
     showgrid="true"
     inkscape:zoom="26.266667"
     inkscape:cx="15"
     inkscape:cy="9.5"
     inkscape:window-x="62"
     inkscape:window-y="0"
     inkscape:window-maximized="1"
     inkscape:current-layer="svg2"
     showguides="false">
    <inkscape:grid
       type="xygrid"
       id="grid3338" />
  </sodipodi:namedview>
  <path
     style="fill:#07a698"
     d="M 9,-16 6.25,-13.000038 9,-10 l 0,-2 4,0 c 1.706009,0 3,1.084743 3,2.5 0,1.415259 -1.043991,2.499963 -2.75,2.499963 l -2.55,0 C 9.685758,-7.014377 9.685758,-4.985656 10.7,-5 l 2.8,0 C 15.936127,-5 18,-7.184655 18,-9.5 18,-11.815344 16.186127,-14 13.75,-14 L 9,-14 Z"
     id="path4"
     inkscape:connector-curvature="0"
     sodipodi:nodetypes="ccccsssccssscc" />
  <g
     id="g4241"
     transform="matrix(-1,0,0,1,26,0)">
    <path
       style="fill:#07a698;fill-opacity:1;stroke:none"
       sodipodi:nodetypes="cccc"
       inkscape:connector-curvature="0"
       id="rect3340"
       d="M 10,3 10,11 6,7 Z" />
    <path
       sodipodi:nodetypes="cccccc"
       inkscape:connector-curvature="0"
       id="path3343"
       d="m 11,14 6,0 c 1,0 2,-1 2,-2 L 19,9 C 19,8 18,7 17,7 L 8,7"
       style="fill:none;fill-rule:evenodd;stroke:#07a698;stroke-width:2;stroke-linecap:butt;stroke-linejoin:miter;stroke-miterlimit:4;stroke-dasharray:none;stroke-opacity:1" />
  </g>
</svg>
