<?xml version="1.0"?>
<svg width="25" height="25" xmlns="http://www.w3.org/2000/svg" xmlns:svg="http://www.w3.org/2000/svg">
  <path
     style="fill:#07a698"
     d="M 7.6796875 6.9511719 C 6.5061848 6.9511719 5.6009115 7.1956802 4.9628906 7.6855469 C 4.3248697 8.1754802 4.0058594 8.8714178 4.0058594 9.7714844 C 4.0058594 10.499499 4.21829 11.07475 4.6367188 11.5 L 2.5957031 11.5 L 2.5957031 12.5 L 6.9257812 12.5 L 7.3125 12.589844 C 8.2866211 12.800644 8.9163412 13.02018 9.2011719 13.248047 C 9.4916993 13.475914 9.6367188 13.803269 9.6367188 14.230469 C 9.6367188 14.691935 9.4378255 15.05226 9.0390625 15.308594 C 8.6402995 15.55926 8.0706381 15.683594 7.3300781 15.683594 C 6.7775065 15.683594 6.2182617 15.609071 5.6542969 15.460938 C 5.090332 15.307138 4.5185547 15.079277 3.9375 14.777344 L 3.9375 16.402344 C 4.5527344 16.601744 5.1368815 16.748836 5.6894531 16.845703 C 6.2477214 16.948236 6.7822266 17 7.2949219 17 C 8.5253907 17 9.4926756 16.741056 10.193359 16.222656 C 10.899739 15.704256 11.251953 14.999995 11.251953 14.111328 C 11.251953 13.444963 11.069284 12.91302 10.724609 12.5 L 12.595703 12.5 L 12.595703 11.5 L 9.0195312 11.5 C 8.7585631 11.417726 8.4794905 11.342148 8.1679688 11.275391 L 7.6289062 11.15625 C 6.7858072 10.96825 6.2244466 10.771473 5.9453125 10.566406 C 5.6661784 10.355606 5.5273438 10.067725 5.5273438 9.703125 C 5.5273438 9.2245917 5.720052 8.8661531 6.1074219 8.6269531 C 6.5004883 8.3876865 7.0887043 8.2675781 7.8691406 8.2675781 C 8.3818359 8.2675781 8.8769531 8.3235667 9.3554688 8.4375 C 9.8339845 8.5514333 10.295898 8.7233052 10.740234 8.9511719 L 10.740234 7.4628906 C 10.307292 7.292024 9.8330081 7.1655448 9.3203125 7.0800781 C 8.8076172 6.9946781 8.2607422 6.9511719 7.6796875 6.9511719 z "
      />
</svg>