<?xml version="1.0" encoding="UTF-8" standalone="no"?>
<svg
   xmlns:dc="http://purl.org/dc/elements/1.1/"
   xmlns:cc="http://creativecommons.org/ns#"
   xmlns:rdf="http://www.w3.org/1999/02/22-rdf-syntax-ns#"
   xmlns:svg="http://www.w3.org/2000/svg"
   xmlns="http://www.w3.org/2000/svg"
   xmlns:sodipodi="http://sodipodi.sourceforge.net/DTD/sodipodi-0.dtd"
   xmlns:inkscape="http://www.inkscape.org/namespaces/inkscape"
   width="30"
   height="19"
   version="1.1"
   id="svg3826"
   sodipodi:docname="strikethrough.svg"
   inkscape:version="0.92.3 (2405546, 2018-03-11)">
  <metadata
     id="metadata3832">
    <rdf:RDF>
      <cc:Work
         rdf:about="">
        <dc:format>image/svg+xml</dc:format>
        <dc:type
           rdf:resource="http://purl.org/dc/dcmitype/StillImage" />
        <dc:title></dc:title>
      </cc:Work>
    </rdf:RDF>
  </metadata>
  <defs
     id="defs3830" />
  <sodipodi:namedview
     pagecolor="#ffffff"
     bordercolor="#666666"
     borderopacity="1"
     objecttolerance="10"
     gridtolerance="10"
     guidetolerance="10"
     inkscape:pageopacity="0"
     inkscape:pageshadow="2"
     inkscape:window-width="1600"
     inkscape:window-height="875"
     id="namedview3828"
     showgrid="true"
     inkscape:zoom="35.333333"
     inkscape:cx="17.512879"
     inkscape:cy="8.8275729"
     inkscape:window-x="0"
     inkscape:window-y="25"
     inkscape:window-maximized="1"
     inkscape:current-layer="svg3826">
    <inkscape:grid
       type="xygrid"
       id="grid4180" />
  </sodipodi:namedview>
  <path
     d="m 13.423828,4.0449219 c -0.999167,0 -1.783229,0.2336719 -2.351562,0.7011719 -0.568334,0.4675 -0.851563,1.1189582 -0.851563,1.953125 0,0.4033332 0.06307,0.7470831 0.191406,1.03125 0.05217,0.107815 0.116277,0.2054756 0.181641,0.3027343 L 12.078125,7.578125 C 11.942608,7.4612471 11.827646,7.3342219 11.746094,7.1933594 11.64526,7.0191927 11.595703,6.8035417 11.595703,6.546875 c 0,-0.2291667 0.04505,-0.4248438 0.136719,-0.5898438 0.100833,-0.1741666 0.233437,-0.3177343 0.398437,-0.4277343 0.165,-0.11 0.358125,-0.1910938 0.578125,-0.2460938 0.22,-0.055 0.458177,-0.083984 0.714844,-0.083984 0.504167,0 0.944479,0.060521 1.320313,0.1796874 0.385,0.11 0.672734,0.2245836 0.865234,0.34375 L 16.037109,4.6367188 C 15.817109,4.4900521 15.468854,4.357448 14.992188,4.2382812 14.524686,4.1099479 14.001328,4.0449219 13.423828,4.0449219 Z M 17.228516,7.2363281 9.9316406,9.4746094 C 8.7236276,9.8451615 8.400477,11.184315 10.013672,10.689453 l 3.380859,-1.0371092 0.427735,-0.1328126 1.375,-0.421875 2.072265,-0.6347656 c 1.143232,-0.350189 1.090263,-1.5735765 -0.04102,-1.2265625 z m -1.113282,2.8203129 -1.410156,0.43164 c 0.04678,0.06018 0.09713,0.11701 0.134766,0.183594 0.128333,0.201667 0.193359,0.448856 0.193359,0.742187 0,0.953334 -0.69651,1.431641 -2.089844,1.431641 -0.623333,0 -1.151198,-0.07404 -1.582031,-0.220703 -0.430833,-0.146667 -0.752057,-0.279271 -0.96289,-0.398438 L 10,13.326172 c 0.100833,0.055 0.237943,0.124531 0.412109,0.207031 0.183334,0.07333 0.398985,0.145417 0.646485,0.21875 0.2475,0.06417 0.528177,0.120182 0.839844,0.166016 0.320833,0.055 0.669088,0.08203 1.044921,0.08203 1.109167,0 1.965313,-0.224661 2.570313,-0.673828 0.614167,-0.449167 0.921875,-1.091615 0.921875,-1.925781 0,-0.449167 -0.06953,-0.828959 -0.207031,-1.140625 -0.03121,-0.07281 -0.07594,-0.135033 -0.113282,-0.203125 z"
     id="path3822"
     inkscape:connector-curvature="0"
     sodipodi:nodetypes="sssccccscsssccccsssscccsscccssscccccscscc" />
  <path
     style="fill:#ff8080"
     d="M -2,7.485 V 8.724 L -11,10.5 V 9.261 Z"
     id="rect4108"
     inkscape:connector-curvature="0"
     sodipodi:nodetypes="ccccc" />
</svg>
