<svg xmlns="http://www.w3.org/2000/svg" width="30" height="19">
  <path fill="#07a698" d="m 12.9425,12.845 q 2.09,0 2.09,-1.43 0,-0.44 -0.1925,-0.7425 -0.17875,-0.31625 -0.495,-0.53625 -0.31625,-0.2337502 -0.72875,-0.3987502 -0.39875,-0.165 -0.8525,-0.33 -0.5225,-0.17875 -0.99,-0.39875 -0.4675,-0.23375 -0.81125,-0.53625 -0.34375,-0.31625 -0.55,-0.7425 -0.1925,-0.42625 -0.1925,-1.03125 0,-1.25125 0.8525,-1.9525 0.8525,-0.70125 2.35125,-0.70125 0.86625,0 1.5675,0.1925 0.715,0.17875 1.045,0.39875 L 15.61,5.7224998 q -0.28875,-0.17875 -0.86625,-0.34375 -0.56375,-0.17875 -1.32,-0.17875 -0.385,0 -0.715,0.0825 -0.33,0.0825 -0.5775,0.2475 -0.2475,0.165 -0.39875,0.42625 -0.1375,0.2475 -0.1375,0.59125 0,0.385 0.15125,0.64625 0.15125,0.26125 0.42625,0.4675 0.275,0.1925 0.6325,0.3575 0.37125,0.165 0.81125,0.33 0.61875,0.2475 1.1275,0.495 0.5225,0.2475 0.89375,0.59125 0.385,0.34375 0.59125,0.8250002 0.20625,0.4675 0.20625,1.14125 0,1.25125 -0.92125,1.925 Q 14.60625,14 12.9425,14 12.37875,14 11.8975,13.9175 11.43,13.84875 11.05875,13.7525 10.6875,13.6425 10.4125,13.5325 10.15125,13.40875 10,13.32625 l 0.39875,-1.1 q 0.31625,0.17875 0.9625,0.39875 0.64625,0.22 1.58125,0.22 z" />
  <path fill="#07a698" d="M 18,7.485 18,8.724 9,10.5 9,9.261 Z" />
</svg>