<svg xmlns="http://www.w3.org/2000/svg" width="30" height="19">
   <!-- <path stroke="#07a698" stroke-width="1.5" fill="none" d="m 10.75,4 0,5.5 c 0.0015,1.5 1.201307,2.759005 2.75,2.749999 C 15.048693,12.240993 16.25,11 16.25,9.5 l 0,-5.5" />
   <path stroke="#07a698" stroke-width="1" fill="none" d="m 10,14.5 7,0" /> -->

  <path fill="#07a698" d="m 10,4 0,5.5 c 0.0019,1.899515 1.546508,3.511383 3.503906,3.5 C 15.450982,12.988677 17,11.400436 17,9.5 l 0,-5.5 -1.5,0 0,5.5 c 0,1.099564 -0.853596,1.993311 -2.003906,2 C 12.356106,11.506629 11.5011,10.600485 11.5,9.5 L 11.5,4 10,4 Z" />
  <path fill="#07a698" d="m 10,14 0,1 7,0 0,-1 -7,0 z" />
</svg>