<svg xmlns="http://www.w3.org/2000/svg" viewBox="0 0 16 16" width="16" height="16">
  <!-- <path d="M 7.75 12.5 L 7.75 8.5 L 3.75 8.5 C 3.336 8.5 3 8.164 3 7.75 C 3 7.336 3.336 7 3.75 7 L 7.75 7 L 7.75 3 C 7.75 2.586 8.086 2.25 8.5 2.25 C 8.914 2.25 9.25 2.586 9.25 3 L 9.25 7 L 13.25 7 C 13.664 7 14 7.336 14 7.75 C 14 8.164 13.664 8.5 13.25 8.5 L 9.25 8.5 L 9.25 12.5 C 9.25 12.914 8.914 13.25 8.5 13.25 C 8.086 13.25 7.75 12.914 7.75 12.5 Z"></path>   -->
  <path d="M 7.75 12.5 L 7.75 8.5 L 3.75 8.5 C 3.336 8.5 3 8.164 3 7.75 C 3 7.336 3.336 7 3.75 7 L 7.75 7 L 7.75 3 C 7.75 2.586 8.086 2.25 8.5 2.25 C 8.914 2.25 9.25 2.586 9.25 3 L 9.25 7 L 13.25 7 C 13.664 7 14 7.336 14 7.75 C 14 8.164 13.664 8.5 13.25 8.5 L 9.25 8.5 L 9.25 12.5 C 9.25 12.914 8.914 13.25 8.5 13.25 C 8.086 13.25 7.75 12.914 7.75 12.5 Z"></path>  
</svg>